neythal-regular.ufo
<glyph name="exclam" format="1">
  <advance width="141"/>
  <unicode hex="0021"/>
  <outline>
    <contour>
      <point x="67" y="188" type="curve" smooth="yes"/>
      <point x="87" y="188"/>
      <point x="86" y="233"/>
      <point x="86" y="253" type="curve" smooth="yes"/>
      <point x="86" y="307"/>
      <point x="74" y="365"/>
      <point x="72" y="415" type="curve" smooth="yes"/>
      <point x="71" y="416"/>
      <point x="71" y="418"/>
      <point x="71" y="420" type="curve"/>
      <point x="79" y="421"/>
      <point x="85" y="427"/>
      <point x="87" y="436" type="curve" smooth="yes"/>
      <point x="101" y="530"/>
      <point x="118" y="623"/>
      <point x="118" y="716" type="curve" smooth="yes"/>
      <point x="118" y="729"/>
      <point x="110" y="735"/>
      <point x="99" y="735" type="curve" smooth="yes"/>
      <point x="96" y="735"/>
      <point x="93" y="735"/>
      <point x="90" y="734" type="curve" smooth="yes"/>
      <point x="33" y="714"/>
      <point x="28" y="632"/>
      <point x="28" y="571" type="curve" smooth="yes"/>
      <point x="28" y="555"/>
      <point x="28" y="542"/>
      <point x="28" y="530" type="curve" smooth="yes"/>
      <point x="29" y="425"/>
      <point x="30" y="300"/>
      <point x="55" y="199" type="curve" smooth="yes"/>
      <point x="57" y="191"/>
      <point x="62" y="188"/>
    </contour>
    <contour>
      <point x="76" y="662" type="curve"/>
      <point x="73" y="622"/>
      <point x="68" y="582"/>
      <point x="63" y="543" type="curve"/>
      <point x="63" y="551"/>
      <point x="62" y="559"/>
      <point x="62" y="567" type="curve" smooth="yes"/>
      <point x="62" y="602"/>
      <point x="66" y="637"/>
    </contour>
    <contour>
      <point x="109" y="36" type="curve" smooth="yes"/>
      <point x="109" y="50"/>
      <point x="99" y="56"/>
      <point x="88" y="63" type="curve"/>
      <point x="88" y="68"/>
      <point x="80" y="69"/>
      <point x="76" y="68" type="curve"/>
      <point x="70" y="71"/>
      <point x="65" y="73"/>
      <point x="59" y="73" type="curve" smooth="yes"/>
      <point x="49" y="74"/>
      <point x="40" y="65"/>
      <point x="40" y="53" type="curve" smooth="yes"/>
      <point x="40" y="45"/>
      <point x="44" y="36"/>
      <point x="51" y="31" type="curve" smooth="yes"/>
      <point x="51" y="30"/>
      <point x="50" y="29"/>
      <point x="50" y="28" type="curve" smooth="yes"/>
      <point x="46" y="24"/>
      <point x="45" y="19"/>
      <point x="45" y="15" type="curve" smooth="yes"/>
      <point x="45" y="3"/>
      <point x="57" y="-6"/>
      <point x="69" y="-6" type="curve" smooth="yes"/>
      <point x="73" y="-6"/>
      <point x="78" y="-5"/>
      <point x="82" y="-2" type="curve" smooth="yes"/>
      <point x="94" y="7"/>
      <point x="109" y="21"/>
    </contour>
  </outline>
</glyph>
<glyph name="quotedbl" format="1">
  <advance width="293"/>
  <unicode hex="0022"/>
  <outline>
    <contour>
      <point x="126" y="727" type="curve"/>
      <point x="127" y="727"/>
      <point x="127" y="727"/>
      <point x="127" y="728" type="curve" smooth="yes"/>
      <point x="127" y="737"/>
      <point x="120" y="748"/>
      <point x="111" y="748" type="curve" smooth="yes"/>
      <point x="103" y="748"/>
      <point x="93" y="746"/>
      <point x="82" y="744" type="curve"/>
      <point x="81" y="778"/>
      <point x="91" y="809"/>
      <point x="122" y="836" type="curve" smooth="yes"/>
      <point x="139" y="851"/>
      <point x="121" y="881"/>
      <point x="99" y="870" type="curve" smooth="yes"/>
      <point x="24" y="834"/>
      <point x="23" y="739"/>
      <point x="50" y="671" type="curve" smooth="yes"/>
      <point x="54" y="660"/>
      <point x="66" y="656"/>
      <point x="76" y="657" type="curve" smooth="yes"/>
      <point x="86" y="658"/>
      <point x="96" y="660"/>
      <point x="106" y="660" type="curve" smooth="yes"/>
      <point x="117" y="660"/>
      <point x="129" y="667"/>
      <point x="129" y="679" type="curve" smooth="yes"/>
      <point x="128" y="691"/>
      <point x="128" y="703"/>
      <point x="129" y="716" type="curve" smooth="yes"/>
      <point x="130" y="720"/>
      <point x="128" y="723"/>
    </contour>
    <contour>
      <point x="230" y="854" type="curve" smooth="yes"/>
      <point x="195" y="826"/>
      <point x="169" y="794"/>
      <point x="163" y="748" type="curve" smooth="yes"/>
      <point x="157" y="703"/>
      <point x="184" y="667"/>
      <point x="224" y="651" type="curve" smooth="yes"/>
      <point x="240" y="645"/>
      <point x="252" y="663"/>
      <point x="247" y="676" type="curve" smooth="yes"/>
      <point x="244" y="684"/>
      <point x="243" y="692"/>
      <point x="242" y="700" type="curve"/>
      <point x="250" y="706"/>
      <point x="254" y="715"/>
      <point x="250" y="726" type="curve" smooth="yes"/>
      <point x="248" y="732"/>
      <point x="246" y="738"/>
      <point x="245" y="743" type="curve" smooth="yes"/>
      <point x="242" y="759"/>
      <point x="224" y="764"/>
      <point x="213" y="758" type="curve"/>
      <point x="219" y="782"/>
      <point x="234" y="806"/>
      <point x="255" y="824" type="curve" smooth="yes"/>
      <point x="272" y="842"/>
      <point x="250" y="868"/>
    </contour>
  </outline>
</glyph>
<glyph name="numbersign" format="1">
  <advance width="467"/>
  <unicode hex="0023"/>
  <outline>
    <contour>
      <point x="424" y="342" type="curve" smooth="yes"/>
      <point x="386" y="342"/>
      <point x="348" y="340"/>
      <point x="310" y="338" type="curve"/>
      <point x="316" y="366"/>
      <point x="320" y="395"/>
      <point x="324" y="423" type="curve"/>
      <point x="356" y="422"/>
      <point x="389" y="421"/>
      <point x="422" y="417" type="curve" smooth="yes"/>
      <point x="423" y="417" type="line" smooth="yes"/>
      <point x="430" y="417"/>
      <point x="435" y="423"/>
      <point x="435" y="429" type="curve" smooth="yes"/>
      <point x="435" y="433"/>
      <point x="432" y="438"/>
      <point x="427" y="440" type="curve" smooth="yes"/>
      <point x="395" y="451"/>
      <point x="362" y="457"/>
      <point x="328" y="460" type="curve"/>
      <point x="330" y="486"/>
      <point x="332" y="513"/>
      <point x="332" y="538" type="curve" smooth="yes"/>
      <point x="332" y="568"/>
      <point x="330" y="597"/>
      <point x="326" y="626" type="curve" smooth="yes"/>
      <point x="325" y="636"/>
      <point x="308" y="636"/>
      <point x="308" y="625" type="curve" smooth="yes"/>
      <point x="308" y="569"/>
      <point x="302" y="515"/>
      <point x="293" y="461" type="curve"/>
      <point x="287" y="461"/>
      <point x="281" y="461"/>
      <point x="275" y="461" type="curve" smooth="yes"/>
      <point x="263" y="461"/>
      <point x="250" y="461"/>
      <point x="237" y="461" type="curve"/>
      <point x="240" y="494"/>
      <point x="242" y="528"/>
      <point x="242" y="561" type="curve" smooth="yes"/>
      <point x="242" y="601"/>
      <point x="239" y="640"/>
      <point x="234" y="678" type="curve" smooth="yes"/>
      <point x="233" y="686"/>
      <point x="221" y="686"/>
      <point x="220" y="678" type="curve" smooth="yes"/>
      <point x="214" y="604"/>
      <point x="207" y="531"/>
      <point x="198" y="459" type="curve"/>
      <point x="173" y="458"/>
      <point x="150" y="457"/>
      <point x="126" y="457" type="curve" smooth="yes"/>
      <point x="97" y="457"/>
      <point x="68" y="459"/>
      <point x="40" y="463" type="curve" smooth="yes"/>
      <point x="39" y="463"/>
      <point x="39" y="463"/>
      <point x="38" y="463" type="curve" smooth="yes"/>
      <point x="31" y="463"/>
      <point x="28" y="458"/>
      <point x="28" y="452" type="curve" smooth="yes"/>
      <point x="28" y="447"/>
      <point x="31" y="441"/>
      <point x="38" y="440" type="curve" smooth="yes"/>
      <point x="89" y="430"/>
      <point x="140" y="428"/>
      <point x="194" y="426" type="curve"/>
      <point x="189" y="393"/>
      <point x="184" y="360"/>
      <point x="178" y="326" type="curve"/>
      <point x="133" y="321"/>
      <point x="88" y="315"/>
      <point x="44" y="305" type="curve" smooth="yes"/>
      <point x="38" y="304"/>
      <point x="35" y="299"/>
      <point x="35" y="294" type="curve" smooth="yes"/>
      <point x="35" y="288"/>
      <point x="39" y="282"/>
      <point x="46" y="282" type="curve" smooth="yes"/>
      <point x="47" y="282"/>
      <point x="48" y="282"/>
      <point x="49" y="282" type="curve" smooth="yes"/>
      <point x="89" y="287"/>
      <point x="130" y="289"/>
      <point x="172" y="291" type="curve"/>
      <point x="160" y="231"/>
      <point x="147" y="171"/>
      <point x="128" y="111" type="curve" smooth="yes"/>
      <point x="127" y="109"/>
      <point x="127" y="107"/>
      <point x="127" y="105" type="curve" smooth="yes"/>
      <point x="127" y="95"/>
      <point x="137" y="88"/>
      <point x="146" y="88" type="curve" smooth="yes"/>
      <point x="152" y="88"/>
      <point x="158" y="91"/>
      <point x="161" y="99" type="curve" smooth="yes"/>
      <point x="180" y="161"/>
      <point x="197" y="226"/>
      <point x="211" y="292" type="curve"/>
      <point x="226" y="293"/>
      <point x="240" y="293"/>
      <point x="255" y="294" type="curve"/>
      <point x="236" y="223"/>
      <point x="215" y="153"/>
      <point x="198" y="80" type="curve" smooth="yes"/>
      <point x="198" y="78"/>
      <point x="197" y="77"/>
      <point x="197" y="75" type="curve" smooth="yes"/>
      <point x="197" y="66"/>
      <point x="204" y="59"/>
      <point x="212" y="59" type="curve" smooth="yes"/>
      <point x="217" y="59"/>
      <point x="223" y="63"/>
      <point x="226" y="70" type="curve" smooth="yes"/>
      <point x="256" y="138"/>
      <point x="282" y="217"/>
      <point x="301" y="297" type="curve"/>
      <point x="343" y="301"/>
      <point x="385" y="306"/>
      <point x="425" y="320" type="curve" smooth="yes"/>
      <point x="431" y="322"/>
      <point x="434" y="328"/>
      <point x="434" y="333" type="curve" smooth="yes"/>
      <point x="434" y="338"/>
      <point x="431" y="342"/>
    </contour>
    <contour>
      <point x="219" y="331" type="curve"/>
      <point x="225" y="362"/>
      <point x="230" y="394"/>
      <point x="234" y="425" type="curve"/>
      <point x="251" y="425"/>
      <point x="268" y="425"/>
      <point x="286" y="424" type="curve"/>
      <point x="280" y="394"/>
      <point x="274" y="365"/>
      <point x="266" y="335" type="curve"/>
      <point x="250" y="334"/>
      <point x="236" y="332"/>
    </contour>
  </outline>
</glyph>
<glyph name="dollar" format="1">
  <advance width="332"/>
  <unicode hex="0024"/>
  <outline>
    <contour>
      <point x="191" y="692" type="curve"/>
      <point x="237" y="668"/>
      <point x="270" y="616"/>
      <point x="231" y="574" type="curve" smooth="yes"/>
      <point x="217" y="559"/>
      <point x="234" y="537"/>
      <point x="253" y="549" type="curve" smooth="yes"/>
      <point x="364" y="630"/>
      <point x="280" y="725"/>
      <point x="188" y="751" type="curve"/>
      <point x="185" y="791"/>
      <point x="182" y="831"/>
      <point x="179" y="871" type="curve" smooth="yes"/>
      <point x="178" y="885"/>
      <point x="157" y="884"/>
      <point x="156" y="870" type="curve" smooth="yes"/>
      <point x="154" y="833"/>
      <point x="152" y="795"/>
      <point x="151" y="756" type="curve"/>
      <point x="109" y="758"/>
      <point x="71" y="742"/>
      <point x="54" y="701" type="curve" smooth="yes"/>
      <point x="22" y="617"/>
      <point x="62" y="521"/>
      <point x="97" y="445" type="curve" smooth="yes"/>
      <point x="112" y="415"/>
      <point x="129" y="387"/>
      <point x="146" y="358" type="curve"/>
      <point x="145" y="257"/>
      <point x="142" y="155"/>
      <point x="132" y="53" type="curve"/>
      <point x="106" y="67"/>
      <point x="86" y="95"/>
      <point x="83" y="141" type="curve" smooth="yes"/>
      <point x="81" y="166"/>
      <point x="42" y="164"/>
      <point x="41" y="140" type="curve" smooth="yes"/>
      <point x="38" y="71"/>
      <point x="78" y="25"/>
      <point x="126" y="5" type="curve"/>
      <point x="120" y="-41"/>
      <point x="113" y="-88"/>
      <point x="102" y="-135" type="curve" smooth="yes"/>
      <point x="96" y="-164"/>
      <point x="142" y="-168"/>
      <point x="148" y="-139" type="curve" smooth="yes"/>
      <point x="158" y="-95"/>
      <point x="165" y="-50"/>
      <point x="171" y="-4" type="curve"/>
      <point x="230" y="-7"/>
      <point x="289" y="27"/>
      <point x="294" y="109" type="curve" smooth="yes"/>
      <point x="299" y="206"/>
      <point x="251" y="291"/>
      <point x="200" y="371" type="curve"/>
      <point x="201" y="478"/>
      <point x="198" y="586"/>
    </contour>
    <contour>
      <point x="109" y="546" type="curve" smooth="yes"/>
      <point x="98" y="572"/>
      <point x="93" y="599"/>
      <point x="89" y="626" type="curve" smooth="yes"/>
      <point x="80" y="691"/>
      <point x="112" y="712"/>
      <point x="150" y="707" type="curve"/>
      <point x="147" y="623"/>
      <point x="147" y="539"/>
      <point x="147" y="456" type="curve"/>
      <point x="132" y="484"/>
      <point x="120" y="515"/>
    </contour>
    <contour>
      <point x="177" y="44" type="curve"/>
      <point x="187" y="122"/>
      <point x="194" y="201"/>
      <point x="197" y="279" type="curve"/>
      <point x="217" y="242"/>
      <point x="234" y="203"/>
      <point x="245" y="161" type="curve" smooth="yes"/>
      <point x="262" y="91"/>
      <point x="222" y="49"/>
    </contour>
  </outline>
</glyph>
<glyph name="percent" format="1">
  <advance width="461"/>
  <unicode hex="0025"/>
  <outline>
    <contour>
      <point x="110" y="722" type="line" smooth="yes"/>
      <point x="49" y="739"/>
      <point x="23" y="653"/>
      <point x="20" y="609" type="curve" smooth="yes"/>
      <point x="18" y="541"/>
      <point x="49" y="464"/>
      <point x="102" y="421" type="curve" smooth="yes"/>
      <point x="111" y="415"/>
      <point x="124" y="416"/>
      <point x="131" y="423" type="curve" smooth="yes"/>
      <point x="182" y="470"/>
      <point x="208" y="543"/>
      <point x="208" y="612" type="curve" smooth="yes"/>
      <point x="209" y="672"/>
      <point x="173" y="755"/>
      <point x="102" y="748" type="curve" smooth="yes"/>
      <point x="85" y="745"/>
      <point x="84" y="724"/>
      <point x="95" y="715" type="curve" smooth="yes"/>
      <point x="115" y="698"/>
      <point x="136" y="691"/>
      <point x="150" y="668" type="curve" smooth="yes"/>
      <point x="162" y="645"/>
      <point x="162" y="617"/>
      <point x="160" y="593" type="curve" smooth="yes"/>
      <point x="158" y="545"/>
      <point x="136" y="492"/>
      <point x="100" y="459" type="curve"/>
      <point x="111" y="459"/>
      <point x="120" y="460"/>
      <point x="129" y="460" type="curve"/>
      <point x="91" y="490"/>
      <point x="74" y="540"/>
      <point x="68" y="587" type="curve" smooth="yes"/>
      <point x="63" y="609"/>
      <point x="67" y="632"/>
      <point x="75" y="653" type="curve" smooth="yes"/>
      <point x="82" y="676"/>
      <point x="104" y="683"/>
      <point x="117" y="701" type="curve" smooth="yes"/>
      <point x="121" y="709"/>
      <point x="119" y="719"/>
      <point x="110" y="722" type="curve" smooth="yes"/>
    </contour>
    <contour>
      <point x="352" y="820" type="line" smooth="yes"/>
      <point x="284" y="702"/>
      <point x="264" y="569"/>
      <point x="222" y="441" type="curve" smooth="yes"/>
      <point x="172" y="286"/>
      <point x="94" y="140"/>
      <point x="44" y="-16" type="curve" smooth="yes"/>
      <point x="36" y="-43"/>
      <point x="76" y="-57"/>
      <point x="84" y="-32" type="curve" smooth="yes"/>
      <point x="128" y="105"/>
      <point x="187" y="236"/>
      <point x="241" y="370" type="curve" smooth="yes"/>
      <point x="297" y="512"/>
      <point x="319" y="665"/>
      <point x="377" y="808" type="curve" smooth="yes"/>
      <point x="383" y="822"/>
      <point x="360" y="835"/>
      <point x="352" y="820" type="curve" smooth="yes"/>
    </contour>
    <contour>
      <point x="307" y="276" type="line" smooth="yes"/>
      <point x="195" y="220"/>
      <point x="265" y="48"/>
      <point x="352" y="0" type="curve" smooth="yes"/>
      <point x="362" y="-6"/>
      <point x="373" y="-4"/>
      <point x="381" y="5" type="curve" smooth="yes"/>
      <point x="431" y="63"/>
      <point x="466" y="138"/>
      <point x="433" y="213" type="curve" smooth="yes"/>
      <point x="403" y="282"/>
      <point x="307" y="304"/>
      <point x="243" y="281" type="curve" smooth="yes"/>
      <point x="225" y="274"/>
      <point x="233" y="251"/>
      <point x="249" y="248" type="curve" smooth="yes"/>
      <point x="302" y="240"/>
      <point x="353" y="243"/>
      <point x="390" y="197" type="curve" smooth="yes"/>
      <point x="433" y="144"/>
      <point x="382" y="69"/>
      <point x="347" y="29" type="curve"/>
      <point x="356" y="31"/>
      <point x="366" y="33"/>
      <point x="376" y="34" type="curve"/>
      <point x="317" y="68"/>
      <point x="244" y="204"/>
      <point x="319" y="256" type="curve" smooth="yes"/>
      <point x="332" y="263"/>
      <point x="318" y="283"/>
      <point x="307" y="276" type="curve" smooth="yes"/>
    </contour>
  </outline>
</glyph>
<glyph name="ampersand" format="1">
  <advance width="633"/>
  <unicode hex="0026"/>
  <outline>
    <contour>
      <point x="508" y="448" type="curve" smooth="yes"/>
      <point x="573" y="448"/>
      <point x="618" y="490"/>
      <point x="618" y="536" type="curve" smooth="yes"/>
      <point x="618" y="566"/>
      <point x="600" y="597"/>
      <point x="561" y="618" type="curve" smooth="yes"/>
      <point x="539" y="630"/>
      <point x="516" y="635"/>
      <point x="493" y="635" type="curve" smooth="yes"/>
      <point x="405" y="635"/>
      <point x="324" y="556"/>
      <point x="324" y="469" type="curve" smooth="yes"/>
      <point x="324" y="445"/>
      <point x="333" y="417"/>
      <point x="344" y="398" type="curve"/>
      <point x="339" y="398"/>
      <point x="334" y="398"/>
      <point x="329" y="398" type="curve" smooth="yes"/>
      <point x="273" y="398"/>
      <point x="207" y="382"/>
      <point x="173" y="338" type="curve" smooth="yes"/>
      <point x="153" y="311"/>
      <point x="144" y="283"/>
      <point x="144" y="257" type="curve" smooth="yes"/>
      <point x="144" y="198"/>
      <point x="189" y="148"/>
      <point x="259" y="148" type="curve" smooth="yes"/>
      <point x="328" y="148"/>
      <point x="376" y="188"/>
      <point x="376" y="236" type="curve" smooth="yes"/>
      <point x="376" y="262"/>
      <point x="361" y="290"/>
      <point x="329" y="313" type="curve" smooth="yes"/>
      <point x="324" y="316"/>
      <point x="319" y="318"/>
      <point x="315" y="318" type="curve" smooth="yes"/>
      <point x="302" y="318"/>
      <point x="291" y="305"/>
      <point x="291" y="291" type="curve" smooth="yes"/>
      <point x="291" y="284"/>
      <point x="294" y="276"/>
      <point x="301" y="271" type="curve" smooth="yes"/>
      <point x="319" y="258"/>
      <point x="326" y="247"/>
      <point x="326" y="237" type="curve" smooth="yes"/>
      <point x="326" y="214"/>
      <point x="286" y="195"/>
      <point x="249" y="195" type="curve" smooth="yes"/>
      <point x="210" y="195"/>
      <point x="193" y="222"/>
      <point x="193" y="253" type="curve" smooth="yes"/>
      <point x="193" y="283"/>
      <point x="210" y="317"/>
      <point x="239" y="334" type="curve" smooth="yes"/>
      <point x="266" y="349"/>
      <point x="297" y="357"/>
      <point x="329" y="357" type="curve" smooth="yes"/>
      <point x="345" y="357"/>
      <point x="362" y="355"/>
      <point x="377" y="351" type="curve"/>
      <point x="397" y="339"/>
      <point x="406" y="335"/>
      <point x="422" y="332" type="curve"/>
      <point x="460" y="311"/>
      <point x="495" y="270"/>
      <point x="495" y="217" type="curve" smooth="yes"/>
      <point x="495" y="125"/>
      <point x="357.976" y="31"/>
      <point x="275" y="31" type="curve" smooth="yes"/>
      <point x="144" y="31"/>
      <point x="68" y="160.137"/>
      <point x="68" y="277" type="curve" smooth="yes"/>
      <point x="68" y="376"/>
      <point x="125" y="472"/>
      <point x="257" y="499" type="curve" smooth="yes"/>
      <point x="270" y="501"/>
      <point x="277" y="512"/>
      <point x="277" y="523" type="curve" smooth="yes"/>
      <point x="277" y="530"/>
      <point x="274" y="537"/>
      <point x="267" y="542" type="curve" smooth="yes"/>
      <point x="232" y="566"/>
      <point x="219" y="592"/>
      <point x="219" y="617" type="curve" smooth="yes"/>
      <point x="219" y="664"/>
      <point x="267" y="703"/>
      <point x="311" y="703" type="curve" smooth="yes"/>
      <point x="335" y="703"/>
      <point x="354" y="704"/>
      <point x="366" y="675" type="curve"/>
      <point x="372" y="654"/>
      <point x="365.224" y="649.337"/>
      <point x="361" y="643" type="curve" smooth="yes"/>
      <point x="355" y="634"/>
      <point x="346" y="631"/>
      <point x="337" y="634" type="curve" smooth="yes"/>
      <point x="330" y="636"/>
      <point x="332" y="648"/>
      <point x="332" y="653" type="curve" smooth="yes"/>
      <point x="332" y="672"/>
      <point x="335" y="688"/>
      <point x="317" y="688" type="curve" smooth="yes"/>
      <point x="296" y="688"/>
      <point x="294" y="669"/>
      <point x="294" y="646" type="curve" smooth="yes"/>
      <point x="294" y="614.1"/>
      <point x="312" y="596"/>
      <point x="327" y="596" type="curve" smooth="yes"/>
      <point x="347" y="596"/>
      <point x="370" y="599"/>
      <point x="383" y="616" type="curve" smooth="yes"/>
      <point x="427.972" y="672.215"/>
      <point x="383.057" y="742"/>
      <point x="324" y="742" type="curve" smooth="yes"/>
      <point x="256" y="742"/>
      <point x="168" y="683"/>
      <point x="168" y="611" type="curve" smooth="yes"/>
      <point x="168" y="586"/>
      <point x="178" y="559"/>
      <point x="204" y="533" type="curve"/>
      <point x="78" y="489"/>
      <point x="24" y="382"/>
      <point x="24" y="275" type="curve" smooth="yes"/>
      <point x="24" y="135"/>
      <point x="116" y="-5"/>
      <point x="261" y="-5" type="curve" smooth="yes"/>
      <point x="395.383" y="-5"/>
      <point x="529" y="92.0141"/>
      <point x="529" y="222" type="curve" smooth="yes"/>
      <point x="529" y="253"/>
      <point x="520" y="284"/>
      <point x="499" y="314" type="curve" smooth="yes"/>
      <point x="476.064" y="352.227"/>
      <point x="456" y="358"/>
      <point x="395" y="391" type="curve"/>
      <point x="371" y="410"/>
      <point x="360" y="436"/>
      <point x="360" y="464" type="curve" smooth="yes"/>
      <point x="360" y="522"/>
      <point x="413" y="591"/>
      <point x="495" y="591" type="curve" smooth="yes"/>
      <point x="528" y="591"/>
      <point x="562" y="578"/>
      <point x="575" y="543" type="curve" smooth="yes"/>
      <point x="576" y="539"/>
      <point x="577" y="535"/>
      <point x="577" y="531" type="curve" smooth="yes"/>
      <point x="577" y="502"/>
      <point x="532" y="489"/>
      <point x="502" y="489" type="curve" smooth="yes"/>
      <point x="488" y="489"/>
      <point x="478" y="494"/>
      <point x="478" y="504" type="curve" smooth="yes"/>
      <point x="478" y="511"/>
      <point x="482" y="520"/>
      <point x="493" y="533" type="curve" smooth="yes"/>
      <point x="497" y="537"/>
      <point x="498" y="542"/>
      <point x="498" y="546" type="curve" smooth="yes"/>
      <point x="498" y="558"/>
      <point x="488" y="568"/>
      <point x="476" y="568" type="curve" smooth="yes"/>
      <point x="471" y="568"/>
      <point x="465" y="566"/>
      <point x="460" y="561" type="curve" smooth="yes"/>
      <point x="441" y="540"/>
      <point x="432" y="521"/>
      <point x="432" y="504" type="curve" smooth="yes"/>
      <point x="432" y="471"/>
      <point x="465" y="448"/>
    </contour>
  </outline>
</glyph>
<glyph name="quotesingle" format="1">
  <advance width="145"/>
  <unicode hex="0027"/>
  <outline>
    <contour>
      <point x="87" y="854" type="curve" smooth="yes"/>
      <point x="51" y="826"/>
      <point x="26" y="794"/>
      <point x="19" y="748" type="curve" smooth="yes"/>
      <point x="13" y="703"/>
      <point x="41" y="667"/>
      <point x="81" y="651" type="curve" smooth="yes"/>
      <point x="96" y="645"/>
      <point x="109" y="663"/>
      <point x="103" y="676" type="curve" smooth="yes"/>
      <point x="100" y="684"/>
      <point x="99" y="692"/>
      <point x="98" y="700" type="curve"/>
      <point x="106" y="706"/>
      <point x="111" y="715"/>
      <point x="106" y="726" type="curve" smooth="yes"/>
      <point x="104" y="732"/>
      <point x="102" y="738"/>
      <point x="101" y="743" type="curve" smooth="yes"/>
      <point x="98" y="759"/>
      <point x="81" y="764"/>
      <point x="70" y="758" type="curve"/>
      <point x="76" y="782"/>
      <point x="91" y="806"/>
      <point x="112" y="824" type="curve" smooth="yes"/>
      <point x="129" y="842"/>
      <point x="106" y="868"/>
    </contour>
  </outline>
</glyph>
<glyph name="parenleft" format="1">
  <advance width="295"/>
  <unicode hex="0028"/>
  <outline>
    <contour>
      <point x="219" y="734" type="line" smooth="yes"/>
      <point x="20" y="592"/>
      <point x="38" y="14"/>
      <point x="253" y="-109" type="curve" smooth="yes"/>
      <point x="282" y="-126"/>
      <point x="259" y="-173"/>
      <point x="231" y="-156" type="curve" smooth="yes"/>
      <point x="-6" y="-19"/>
      <point x="-58" y="627"/>
      <point x="192" y="772" type="curve" smooth="yes"/>
      <point x="217" y="787"/>
      <point x="244" y="752"/>
      <point x="219" y="734" type="curve" smooth="yes"/>
    </contour>
  </outline>
</glyph>
<glyph name="parenright" format="1">
  <advance width="295"/>
  <unicode hex="0029"/>
  <outline>
    <contour>
      <point x="221" y="339" type="curve" smooth="yes"/>
      <point x="221" y="150"/>
      <point x="145" y="-41"/>
      <point x="43" y="-112" type="curve" smooth="yes"/>
      <point x="34.1221" y="-118.18"/>
      <point x="30" y="-123"/>
      <point x="30" y="-132" type="curve" smooth="yes"/>
      <point x="30" y="-146"/>
      <point x="40" y="-160"/>
      <point x="53" y="-160" type="curve" smooth="yes"/>
      <point x="57" y="-160"/>
      <point x="60.7803" y="-154.683"/>
      <point x="65" y="-152" type="curve" smooth="yes"/>
      <point x="194" y="-70"/>
      <point x="269" y="145"/>
      <point x="269" y="359" type="curve" smooth="yes"/>
      <point x="269" y="537"/>
      <point x="213" y="681"/>
      <point x="104" y="769" type="curve" smooth="yes"/>
      <point x="100.109" y="772.141"/>
      <point x="95" y="776"/>
      <point x="91" y="776" type="curve" smooth="yes"/>
      <point x="78" y="776"/>
      <point x="67" y="764"/>
      <point x="67" y="752" type="curve" smooth="yes"/>
      <point x="67" y="746"/>
      <point x="73.0938" y="739.129"/>
      <point x="80" y="734" type="curve" smooth="yes"/>
      <point x="181" y="659"/>
      <point x="221" y="505"/>
    </contour>
  </outline>
</glyph>
<glyph name="asterisk" format="1">
  <advance width="378"/>
  <unicode hex="002A"/>
  <outline>
    <contour>
      <point x="323" y="637" type="qcurve" smooth="yes"/>
      <point x="299" y="637"/>
      <point x="257" y="621" type="qcurve" smooth="yes"/>
      <point x="242" y="616"/>
      <point x="208" y="604" type="qcurve"/>
      <point x="204" y="604" type="line" smooth="yes"/>
      <point x="203" y="603"/>
      <point x="200" y="603" type="qcurve"/>
      <point x="242" y="681"/>
      <point x="281" y="743" type="qcurve" smooth="yes"/>
      <point x="284" y="748"/>
      <point x="284" y="751" type="qcurve" smooth="yes"/>
      <point x="284" y="757"/>
      <point x="275" y="766"/>
      <point x="269" y="766" type="qcurve" smooth="yes"/>
      <point x="264" y="766"/>
      <point x="260" y="762" type="qcurve" smooth="yes"/>
      <point x="228" y="730"/>
      <point x="194" y="685" type="qcurve"/>
      <point x="194" y="700"/>
      <point x="192" y="722"/>
      <point x="192" y="736" type="qcurve" smooth="yes"/>
      <point x="192" y="744"/>
      <point x="180" y="754"/>
      <point x="173" y="754" type="qcurve" smooth="yes"/>
      <point x="158" y="754"/>
      <point x="158" y="739" type="qcurve" smooth="yes"/>
      <point x="157" y="722"/>
      <point x="157" y="665" type="qcurve" smooth="yes"/>
      <point x="157" y="634" type="line"/>
      <point x="155" y="632" type="line"/>
      <point x="100" y="675"/>
      <point x="77" y="705" type="qcurve" smooth="yes"/>
      <point x="72" y="710"/>
      <point x="68" y="710" type="qcurve" smooth="yes"/>
      <point x="63" y="710"/>
      <point x="54" y="701"/>
      <point x="54" y="696" type="qcurve" smooth="yes"/>
      <point x="54" y="694" type="line"/>
      <point x="55" y="692" type="line"/>
      <point x="75" y="637"/>
      <point x="120" y="593" type="qcurve"/>
      <point x="74" y="593"/>
      <point x="46" y="605" type="qcurve" smooth="yes"/>
      <point x="45" y="606"/>
      <point x="41" y="606" type="qcurve" smooth="yes"/>
      <point x="34" y="606"/>
      <point x="22" y="596"/>
      <point x="22" y="589" type="qcurve" smooth="yes"/>
      <point x="22" y="584"/>
      <point x="24" y="582" type="qcurve" smooth="yes"/>
      <point x="44" y="549"/>
      <point x="92" y="541" type="qcurve"/>
      <point x="47" y="481" type="line" smooth="yes"/>
      <point x="42" y="473"/>
      <point x="42" y="468" type="qcurve" smooth="yes"/>
      <point x="42" y="458"/>
      <point x="57" y="443"/>
      <point x="67" y="443" type="qcurve" smooth="yes"/>
      <point x="74" y="443"/>
      <point x="82" y="449" type="qcurve" smooth="yes"/>
      <point x="122" y="483"/>
      <point x="162" y="542" type="qcurve" smooth="yes"/>
      <point x="163" y="542"/>
      <point x="163" y="543" type="qcurve"/>
      <point x="170" y="489"/>
      <point x="181" y="450" type="qcurve" smooth="yes"/>
      <point x="185" y="434"/>
      <point x="203" y="434" type="qcurve" smooth="yes"/>
      <point x="224" y="434"/>
      <point x="224" y="453" type="qcurve" smooth="yes"/>
      <point x="224" y="456" type="line" smooth="yes"/>
      <point x="223" y="457"/>
      <point x="223" y="458" type="qcurve" smooth="yes"/>
      <point x="219" y="475"/>
      <point x="210" y="520" type="qcurve"/>
      <point x="223" y="511"/>
      <point x="245" y="497" type="qcurve" smooth="yes"/>
      <point x="253" y="491"/>
      <point x="276" y="475"/>
      <point x="280" y="472" type="qcurve" smooth="yes"/>
      <point x="288" y="466"/>
      <point x="296" y="466" type="qcurve" smooth="yes"/>
      <point x="307" y="466"/>
      <point x="323" y="484"/>
      <point x="323" y="508"/>
      <point x="312" y="517" type="qcurve" smooth="yes"/>
      <point x="296" y="533"/>
      <point x="260" y="558" type="qcurve"/>
      <point x="337" y="578"/>
      <point x="353" y="605" type="qcurve" smooth="yes"/>
      <point x="356" y="611"/>
      <point x="356" y="617" type="qcurve" smooth="yes"/>
      <point x="356" y="637"/>
    </contour>
  </outline>
</glyph>
<glyph name="plus" format="1">
  <advance width="473"/>
  <unicode hex="002B"/>
  <outline>
    <contour>
      <point x="414" y="360" type="curve" smooth="yes"/>
      <point x="366" y="365"/>
      <point x="319" y="368"/>
      <point x="270" y="370" type="curve"/>
      <point x="274" y="411"/>
      <point x="276" y="451"/>
      <point x="276" y="492" type="curve" smooth="yes"/>
      <point x="276" y="500"/>
      <point x="276" y="509"/>
      <point x="276" y="517" type="curve" smooth="yes"/>
      <point x="276" y="532"/>
      <point x="264" y="540"/>
      <point x="252" y="540" type="curve" smooth="yes"/>
      <point x="242" y="540"/>
      <point x="232" y="534"/>
      <point x="232" y="521" type="curve" smooth="yes"/>
      <point x="231" y="470"/>
      <point x="231" y="422"/>
      <point x="229" y="372" type="curve"/>
      <point x="215" y="372"/>
      <point x="202" y="372"/>
      <point x="188" y="372" type="curve" smooth="yes"/>
      <point x="144" y="372"/>
      <point x="99" y="371"/>
      <point x="55" y="368" type="curve" smooth="yes"/>
      <point x="44" y="367"/>
      <point x="39" y="358"/>
      <point x="39" y="349" type="curve" smooth="yes"/>
      <point x="39" y="339"/>
      <point x="45" y="330"/>
      <point x="56" y="329" type="curve" smooth="yes"/>
      <point x="114" y="325"/>
      <point x="170" y="324"/>
      <point x="227" y="322" type="curve"/>
      <point x="225" y="264"/>
      <point x="219" y="208"/>
      <point x="219" y="152" type="curve" smooth="yes"/>
      <point x="219" y="138"/>
      <point x="229" y="131"/>
      <point x="240" y="131" type="curve" smooth="yes"/>
      <point x="251" y="131"/>
      <point x="263" y="139"/>
      <point x="263" y="154" type="curve" smooth="yes"/>
      <point x="263" y="170"/>
      <point x="262" y="187"/>
      <point x="262" y="203" type="curve" smooth="yes"/>
      <point x="262" y="242"/>
      <point x="264" y="281"/>
      <point x="267" y="321" type="curve"/>
      <point x="315" y="319"/>
      <point x="362" y="317"/>
      <point x="409" y="311" type="curve" smooth="yes"/>
      <point x="410" y="311"/>
      <point x="411" y="311"/>
      <point x="412" y="311" type="curve" smooth="yes"/>
      <point x="427" y="311"/>
      <point x="435" y="323"/>
      <point x="435" y="336" type="curve" smooth="yes"/>
      <point x="435" y="347"/>
      <point x="428" y="359"/>
    </contour>
  </outline>
</glyph>
<glyph name="comma" format="1">
  <advance width="145"/>
  <unicode hex="002C"/>
  <outline>
    <contour>
      <point x="61" y="-87" type="curve" smooth="yes"/>
      <point x="97" y="-59"/>
      <point x="122" y="-26"/>
      <point x="128" y="19" type="curve" smooth="yes"/>
      <point x="134" y="65"/>
      <point x="105" y="100"/>
      <point x="66" y="116" type="curve" smooth="yes"/>
      <point x="50" y="122"/>
      <point x="38" y="104"/>
      <point x="44" y="90" type="curve" smooth="yes"/>
      <point x="46" y="83"/>
      <point x="48" y="75"/>
      <point x="49" y="67" type="curve"/>
      <point x="41" y="61"/>
      <point x="37" y="51"/>
      <point x="41" y="40" type="curve" smooth="yes"/>
      <point x="43" y="34"/>
      <point x="45" y="29"/>
      <point x="46" y="23" type="curve" smooth="yes"/>
      <point x="49" y="7"/>
      <point x="68" y="3"/>
      <point x="79" y="9" type="curve"/>
      <point x="73" y="-15"/>
      <point x="56" y="-39"/>
      <point x="37" y="-58" type="curve" smooth="yes"/>
      <point x="19" y="-75"/>
      <point x="42" y="-102"/>
    </contour>
  </outline>
</glyph>
<glyph name="period" format="1">
  <advance width="94"/>
  <unicode hex="002E"/>
  <outline>
    <contour>
      <point x="61" y="68" type="qcurve"/>
      <point x="57" y="72"/>
      <point x="49" y="72" type="qcurve" smooth="yes"/>
      <point x="44" y="72"/>
      <point x="39" y="69" type="qcurve" smooth="yes"/>
      <point x="38" y="70"/>
      <point x="36" y="70" type="qcurve" smooth="yes"/>
      <point x="24" y="70"/>
      <point x="19" y="58" type="qcurve"/>
      <point x="19" y="57" type="line" smooth="yes"/>
      <point x="16" y="51"/>
      <point x="16" y="41" type="qcurve" smooth="yes"/>
      <point x="16" y="12"/>
      <point x="39" y="9" type="qcurve" smooth="yes"/>
      <point x="42" y="9" type="line" smooth="yes"/>
      <point x="55" y="9"/>
      <point x="78" y="29"/>
      <point x="78" y="41" type="qcurve" smooth="yes"/>
      <point x="84" y="68"/>
    </contour>
  </outline>
</glyph>
<glyph name="slash" format="1">
  <advance width="358"/>
  <unicode hex="002F"/>
  <outline>
    <contour>
      <point x="313" y="801" type="line" smooth="yes"/>
      <point x="183" y="514"/>
      <point x="179" y="180"/>
      <point x="24" y="-97" type="curve" smooth="yes"/>
      <point x="5" y="-130"/>
      <point x="53" y="-155"/>
      <point x="69" y="-121" type="curve" smooth="yes"/>
      <point x="203" y="163"/>
      <point x="265" y="487"/>
      <point x="340" y="791" type="curve" smooth="yes"/>
      <point x="345" y="809"/>
      <point x="321" y="818"/>
      <point x="313" y="801" type="curve" smooth="yes"/>
    </contour>
  </outline>
</glyph>
<glyph name="zero" format="1">
  <advance width="361"/>
  <unicode hex="0030"/>
  <outline>
    <contour>
      <point x="323" y="425" type="curve" smooth="yes"/>
      <point x="316" y="533"/>
      <point x="298" y="737"/>
      <point x="175" y="737" type="curve" smooth="yes"/>
      <point x="157" y="737"/>
      <point x="137" y="733"/>
      <point x="114" y="723" type="curve" smooth="yes"/>
      <point x="108" y="721"/>
      <point x="105" y="717"/>
      <point x="105" y="712" type="curve" smooth="yes"/>
      <point x="105" y="706"/>
      <point x="109" y="699"/>
      <point x="115" y="697" type="curve"/>
      <point x="65" y="620"/>
      <point x="25" y="439"/>
      <point x="25" y="280" type="curve" smooth="yes"/>
      <point x="25" y="126"/>
      <point x="63" y="-7"/>
      <point x="164" y="-7" type="curve" smooth="yes"/>
      <point x="181" y="-7"/>
      <point x="199" y="-3"/>
      <point x="220" y="5" type="curve" smooth="yes"/>
      <point x="311" y="40"/>
      <point x="330" y="170"/>
      <point x="330" y="284" type="curve" smooth="yes"/>
      <point x="330" y="339"/>
      <point x="325" y="391"/>
    </contour>
    <contour>
      <point x="168" y="29" type="curve" smooth="yes"/>
      <point x="82" y="50"/>
      <point x="53" y="151"/>
      <point x="53" y="270" type="curve" smooth="yes"/>
      <point x="53" y="429"/>
      <point x="105" y="620"/>
      <point x="146" y="697" type="curve"/>
      <point x="252" y="688"/>
      <point x="295" y="529"/>
      <point x="295" y="368" type="curve" smooth="yes"/>
      <point x="295" y="199"/>
      <point x="248" y="28"/>
      <point x="179" y="28" type="curve" smooth="yes"/>
      <point x="176" y="28"/>
      <point x="172" y="28"/>
    </contour>
  </outline>
</glyph>
<glyph name="one" format="1">
  <advance width="134"/>
  <unicode hex="0031"/>
  <outline>
    <contour>
      <point x="87" y="732" type="line" smooth="yes"/>
      <point x="19" y="670"/>
      <point x="37" y="527"/>
      <point x="39" y="447" type="curve" smooth="yes"/>
      <point x="41" y="302"/>
      <point x="65" y="158"/>
      <point x="44" y="14" type="curve" smooth="yes"/>
      <point x="41" y="-10"/>
      <point x="80" y="-14"/>
      <point x="83" y="10" type="curve" smooth="yes"/>
      <point x="115" y="248"/>
      <point x="63" y="485"/>
      <point x="105" y="723" type="curve" smooth="yes"/>
      <point x="106" y="733"/>
      <point x="94" y="738"/>
      <point x="87" y="732" type="curve" smooth="yes"/>
    </contour>
  </outline>
</glyph>
<glyph name="two" format="1">
  <advance width="331"/>
  <unicode hex="0032"/>
  <outline>
    <contour>
      <point x="100" y="601" type="curve" smooth="yes"/>
      <point x="100" y="632"/>
      <point x="114" y="660"/>
      <point x="150" y="680" type="curve" smooth="yes"/>
      <point x="165" y="688"/>
      <point x="178" y="692"/>
      <point x="189" y="692" type="curve" smooth="yes"/>
      <point x="244" y="692"/>
      <point x="258" y="607"/>
      <point x="258" y="538" type="curve" smooth="yes"/>
      <point x="258" y="504"/>
      <point x="254" y="474"/>
      <point x="251" y="460" type="curve" smooth="yes"/>
      <point x="214" y="308"/>
      <point x="97" y="183"/>
      <point x="35" y="41" type="curve" smooth="yes"/>
      <point x="34" y="38"/>
      <point x="33" y="36"/>
      <point x="33" y="33" type="curve" smooth="yes"/>
      <point x="33" y="25"/>
      <point x="39" y="17"/>
      <point x="47" y="14" type="curve" smooth="yes"/>
      <point x="97" y="-4"/>
      <point x="145" y="-8"/>
      <point x="196" y="-8" type="curve" smooth="yes"/>
      <point x="214" y="-8"/>
      <point x="232" y="-7"/>
      <point x="251" y="-7" type="curve" smooth="yes"/>
      <point x="265" y="-7"/>
      <point x="273" y="6"/>
      <point x="273" y="17" type="curve" smooth="yes"/>
      <point x="273" y="27"/>
      <point x="268" y="35"/>
      <point x="256" y="35" type="curve" smooth="yes"/>
      <point x="255" y="35" type="line" smooth="yes"/>
      <point x="221" y="35"/>
      <point x="185" y="34"/>
      <point x="152" y="34" type="curve" smooth="yes"/>
      <point x="109" y="34"/>
      <point x="94" y="45"/>
      <point x="94" y="61" type="curve" smooth="yes"/>
      <point x="94" y="80"/>
      <point x="114" y="107"/>
      <point x="131" y="137" type="curve" smooth="yes"/>
      <point x="172" y="209"/>
      <point x="216" y="280"/>
      <point x="253" y="353" type="curve" smooth="yes"/>
      <point x="281" y="411"/>
      <point x="304" y="482"/>
      <point x="304" y="550" type="curve" smooth="yes"/>
      <point x="304" y="602"/>
      <point x="291" y="653"/>
      <point x="255" y="694" type="curve" smooth="yes"/>
      <point x="232" y="721"/>
      <point x="206" y="732"/>
      <point x="182" y="732" type="curve" smooth="yes"/>
      <point x="121" y="732"/>
      <point x="67" y="660"/>
      <point x="67" y="587" type="curve" smooth="yes"/>
      <point x="67" y="560"/>
      <point x="75" y="532"/>
      <point x="92" y="508" type="curve" smooth="yes"/>
      <point x="95" y="504"/>
      <point x="100" y="502"/>
      <point x="104" y="502" type="curve" smooth="yes"/>
      <point x="113" y="502"/>
      <point x="122" y="509"/>
      <point x="122" y="519" type="curve" smooth="yes"/>
      <point x="122" y="521"/>
      <point x="121" y="524"/>
      <point x="120" y="526" type="curve" smooth="yes"/>
      <point x="108" y="551"/>
      <point x="100" y="577"/>
    </contour>
  </outline>
</glyph>
<glyph name="three" format="1">
  <advance width="357"/>
  <unicode hex="0033"/>
  <outline>
    <contour>
      <point x="186" y="-4" type="qcurve" smooth="yes"/>
      <point x="221" y="-4"/>
      <point x="283" y="45"/>
      <point x="304" y="86" type="qcurve" smooth="yes"/>
      <point x="317" y="111"/>
      <point x="317" y="154" type="qcurve" smooth="yes"/>
      <point x="317" y="226"/>
      <point x="251" y="358"/>
      <point x="202" y="372" type="qcurve"/>
      <point x="249" y="402"/>
      <point x="304" y="512"/>
      <point x="304" y="571" type="qcurve" smooth="yes"/>
      <point x="304" y="642"/>
      <point x="227" y="738"/>
      <point x="172" y="738" type="qcurve" smooth="yes"/>
      <point x="124" y="738"/>
      <point x="47" y="674"/>
      <point x="47" y="633" type="qcurve" smooth="yes"/>
      <point x="47" y="588"/>
      <point x="97" y="553" type="qcurve" smooth="yes"/>
      <point x="102" y="550"/>
      <point x="106" y="550" type="qcurve" smooth="yes"/>
      <point x="113" y="550"/>
      <point x="123" y="561"/>
      <point x="123" y="567" type="qcurve" smooth="yes"/>
      <point x="123" y="575"/>
      <point x="116" y="579" type="qcurve" smooth="yes"/>
      <point x="86" y="602"/>
      <point x="86" y="631" type="qcurve" smooth="yes"/>
      <point x="86" y="657"/>
      <point x="133" y="695"/>
      <point x="167" y="695" type="qcurve" smooth="yes"/>
      <point x="211" y="695"/>
      <point x="263" y="624"/>
      <point x="263" y="571" type="qcurve" smooth="yes"/>
      <point x="263" y="509"/>
      <point x="195" y="402"/>
      <point x="142" y="390" type="qcurve" smooth="yes"/>
      <point x="126" y="386"/>
      <point x="126" y="369" type="qcurve" smooth="yes"/>
      <point x="126" y="363"/>
      <point x="129" y="357" type="qcurve" smooth="yes"/>
      <point x="128" y="356"/>
      <point x="128" y="350" type="qcurve" smooth="yes"/>
      <point x="128" y="331"/>
      <point x="146" y="331" type="qcurve" smooth="yes"/>
      <point x="151" y="331"/>
      <point x="155" y="332" type="qcurve" smooth="yes"/>
      <point x="163" y="332" type="line" smooth="yes"/>
      <point x="198" y="332"/>
      <point x="252" y="274"/>
      <point x="263" y="232" type="qcurve" smooth="yes"/>
      <point x="273" y="195"/>
      <point x="273" y="153" type="qcurve" smooth="yes"/>
      <point x="273" y="106"/>
      <point x="224" y="39"/>
      <point x="187" y="39" type="qcurve" smooth="yes"/>
      <point x="152" y="39"/>
      <point x="133" y="65" type="qcurve" smooth="yes"/>
      <point x="117" y="85"/>
      <point x="110" y="131" type="qcurve" smooth="yes"/>
      <point x="109" y="136"/>
      <point x="107" y="151"/>
      <point x="106" y="158"/>
      <point x="104" y="168"/>
      <point x="101" y="172"/>
      <point x="97" y="177"/>
      <point x="91" y="179"/>
      <point x="87" y="179" type="qcurve" smooth="yes"/>
      <point x="62" y="179"/>
      <point x="62" y="131" type="qcurve" smooth="yes"/>
      <point x="62" y="80"/>
      <point x="136" y="-4"/>
    </contour>
  </outline>
</glyph>
<glyph name="four" format="1">
  <advance width="386"/>
  <unicode hex="0034"/>
  <outline>
    <contour>
      <point x="352" y="280" type="curve" smooth="yes"/>
      <point x="325" y="287"/>
      <point x="298" y="290"/>
      <point x="271" y="290" type="curve"/>
      <point x="281" y="428"/>
      <point x="290" y="565"/>
      <point x="282" y="702" type="curve"/>
      <point x="287" y="710"/>
      <point x="291" y="718"/>
      <point x="296" y="725" type="curve" smooth="yes"/>
      <point x="308" y="744"/>
      <point x="282" y="762"/>
      <point x="266" y="745" type="curve" smooth="yes"/>
      <point x="151" y="615"/>
      <point x="104" y="421"/>
      <point x="29" y="267" type="curve" smooth="yes"/>
      <point x="23" y="255"/>
      <point x="34" y="240"/>
      <point x="47" y="239" type="curve" smooth="yes"/>
      <point x="106" y="236"/>
      <point x="167" y="246"/>
      <point x="227" y="249" type="curve"/>
      <point x="223" y="172"/>
      <point x="219" y="95"/>
      <point x="217" y="18" type="curve" smooth="yes"/>
      <point x="216" y="-9"/>
      <point x="261" y="-13"/>
      <point x="260" y="14" type="curve" smooth="yes"/>
      <point x="259" y="93"/>
      <point x="263" y="171"/>
      <point x="268" y="249" type="curve"/>
      <point x="292" y="248"/>
      <point x="314" y="246"/>
      <point x="337" y="240" type="curve" smooth="yes"/>
      <point x="364" y="233"/>
      <point x="379" y="273"/>
    </contour>
    <contour>
      <point x="81" y="281" type="curve"/>
      <point x="140" y="406"/>
      <point x="188" y="534"/>
      <point x="255" y="654" type="curve"/>
      <point x="245" y="534"/>
      <point x="236" y="412"/>
      <point x="229" y="290" type="curve"/>
      <point x="180" y="287"/>
      <point x="131" y="281"/>
    </contour>
  </outline>
</glyph>
<glyph name="five" format="1">
  <advance width="384"/>
  <unicode hex="0035"/>
  <outline>
    <contour>
      <point x="53" y="111" type="curve" smooth="yes"/>
      <point x="53" y="53"/>
      <point x="75" y="-4"/>
      <point x="146" y="-4" type="curve" smooth="yes"/>
      <point x="212" y="-4"/>
      <point x="272" y="56"/>
      <point x="299" y="112" type="curve" smooth="yes"/>
      <point x="318" y="153"/>
      <point x="328" y="198"/>
      <point x="328" y="243" type="curve" smooth="yes"/>
      <point x="328" y="292"/>
      <point x="316" y="342"/>
      <point x="294" y="386" type="curve" smooth="yes"/>
      <point x="265" y="442"/>
      <point x="214" y="473"/>
      <point x="160" y="473" type="curve" smooth="yes"/>
      <point x="144" y="473"/>
      <point x="129" y="470"/>
      <point x="113" y="465" type="curve"/>
      <point x="113" y="470"/>
      <point x="113" y="474"/>
      <point x="113" y="479" type="curve" smooth="yes"/>
      <point x="113" y="508"/>
      <point x="114" y="539"/>
      <point x="114" y="568" type="curve" smooth="yes"/>
      <point x="114" y="610"/>
      <point x="112" y="651"/>
      <point x="102" y="691" type="curve"/>
      <point x="158" y="689"/>
      <point x="244" y="689"/>
      <point x="302" y="688" type="curve" smooth="yes"/>
      <point x="317" y="688"/>
      <point x="326" y="701"/>
      <point x="326" y="713" type="curve" smooth="yes"/>
      <point x="326" y="723"/>
      <point x="320" y="733"/>
      <point x="307" y="733" type="curve" smooth="yes"/>
      <point x="242" y="733"/>
      <point x="147" y="733"/>
      <point x="82" y="729" type="curve" smooth="yes"/>
      <point x="72" y="729"/>
      <point x="67" y="721"/>
      <point x="67" y="712" type="curve" smooth="yes"/>
      <point x="67" y="705"/>
      <point x="70" y="698"/>
      <point x="75" y="695" type="curve"/>
      <point x="79" y="642"/>
      <point x="82" y="589"/>
      <point x="82" y="536" type="curve" smooth="yes"/>
      <point x="82" y="507"/>
      <point x="81" y="479"/>
      <point x="79" y="450" type="curve" smooth="yes"/>
      <point x="78" y="449"/>
      <point x="77" y="449"/>
      <point x="76" y="448" type="curve" smooth="yes"/>
      <point x="68" y="443"/>
      <point x="64" y="435"/>
      <point x="64" y="428" type="curve" smooth="yes"/>
      <point x="64" y="418"/>
      <point x="71" y="408"/>
      <point x="81" y="406" type="curve"/>
      <point x="85" y="401"/>
      <point x="90" y="399"/>
      <point x="95" y="399" type="curve" smooth="yes"/>
      <point x="103" y="399"/>
      <point x="112" y="405"/>
      <point x="114" y="415" type="curve"/>
      <point x="132" y="421"/>
      <point x="148" y="424"/>
      <point x="163" y="424" type="curve" smooth="yes"/>
      <point x="202" y="424"/>
      <point x="235" y="404"/>
      <point x="259" y="358" type="curve" smooth="yes"/>
      <point x="278" y="320"/>
      <point x="289" y="276"/>
      <point x="289" y="233" type="curve" smooth="yes"/>
      <point x="289" y="207"/>
      <point x="285" y="182"/>
      <point x="277" y="158" type="curve" smooth="yes"/>
      <point x="259" y="103"/>
      <point x="217" y="49"/>
      <point x="159" y="35" type="curve" smooth="yes"/>
      <point x="153" y="33"/>
      <point x="147" y="33"/>
      <point x="142" y="33" type="curve" smooth="yes"/>
      <point x="98" y="33"/>
      <point x="88" y="85"/>
      <point x="88" y="129" type="curve" smooth="yes"/>
      <point x="88" y="143"/>
      <point x="90" y="156"/>
      <point x="90" y="167" type="curve" smooth="yes"/>
      <point x="90" y="176"/>
      <point x="81" y="181"/>
      <point x="73" y="181" type="curve" smooth="yes"/>
      <point x="67" y="181"/>
      <point x="63" y="179"/>
      <point x="61" y="172" type="curve" smooth="yes"/>
      <point x="57" y="154"/>
      <point x="53" y="133"/>
    </contour>
  </outline>
</glyph>
<glyph name="six" format="1">
  <advance width="303"/>
  <unicode hex="0036"/>
  <outline>
    <contour>
      <point x="276" y="281" type="curve" smooth="yes"/>
      <point x="258" y="363"/>
      <point x="219" y="394"/>
      <point x="169" y="394" type="curve" smooth="yes"/>
      <point x="140" y="394"/>
      <point x="107" y="383"/>
      <point x="73" y="366" type="curve"/>
      <point x="80" y="427"/>
      <point x="94" y="483"/>
      <point x="103" y="542" type="curve" smooth="yes"/>
      <point x="110" y="571"/>
      <point x="115" y="600"/>
      <point x="123" y="628" type="curve"/>
      <point x="127" y="654"/>
      <point x="137" y="666"/>
      <point x="153" y="666" type="curve" smooth="yes"/>
      <point x="172" y="666"/>
      <point x="199" y="649"/>
      <point x="235" y="616" type="curve"/>
      <point x="236" y="604"/>
      <point x="244" y="598"/>
      <point x="254" y="598" type="curve" smooth="yes"/>
      <point x="265" y="598"/>
      <point x="278" y="606"/>
      <point x="278" y="620" type="curve" smooth="yes"/>
      <point x="278" y="696"/>
      <point x="224" y="735"/>
      <point x="183" y="735" type="curve" smooth="yes"/>
      <point x="143" y="735"/>
      <point x="101" y="705"/>
      <point x="82" y="643" type="curve" smooth="yes"/>
      <point x="49" y="539"/>
      <point x="24" y="414"/>
      <point x="24" y="293" type="curve" smooth="yes"/>
      <point x="24" y="189"/>
      <point x="42" y="88"/>
      <point x="90" y="3" type="curve" smooth="yes"/>
      <point x="94" y="-5"/>
      <point x="100" y="-9"/>
      <point x="110" y="-8" type="curve" smooth="yes"/>
      <point x="228" y="4"/>
      <point x="283" y="108"/>
      <point x="283" y="214" type="curve" smooth="yes"/>
      <point x="283" y="237"/>
      <point x="281" y="259"/>
    </contour>
    <contour>
      <point x="244" y="204" type="curve" smooth="yes"/>
      <point x="244" y="133"/>
      <point x="216" y="75"/>
      <point x="156" y="41" type="curve" smooth="yes"/>
      <point x="149" y="37"/>
      <point x="143" y="35"/>
      <point x="137" y="35" type="curve" smooth="yes"/>
      <point x="86" y="35"/>
      <point x="76" y="179"/>
      <point x="72" y="209" type="curve" smooth="yes"/>
      <point x="69" y="230"/>
      <point x="68" y="252"/>
      <point x="68" y="274" type="curve" smooth="yes"/>
      <point x="68" y="291"/>
      <point x="69" y="308"/>
      <point x="70" y="325" type="curve"/>
      <point x="91" y="333"/>
      <point x="113" y="342"/>
      <point x="134" y="351" type="curve" smooth="yes"/>
      <point x="146" y="356"/>
      <point x="156" y="358"/>
      <point x="166" y="358" type="curve" smooth="yes"/>
      <point x="232" y="358"/>
      <point x="244" y="252"/>
    </contour>
  </outline>
</glyph>
<glyph name="seven" format="1">
  <advance width="378"/>
  <unicode hex="0037"/>
  <outline>
    <contour>
      <point x="321" y="740" type="curve" smooth="yes"/>
      <point x="230" y="723"/>
      <point x="135" y="740"/>
      <point x="46" y="716" type="curve" smooth="yes"/>
      <point x="36" y="713"/>
      <point x="31" y="704"/>
      <point x="31" y="696" type="curve" smooth="yes"/>
      <point x="31" y="686"/>
      <point x="38" y="676"/>
      <point x="50" y="676" type="curve" smooth="yes"/>
      <point x="51" y="676"/>
      <point x="52" y="676"/>
      <point x="53" y="676" type="curve" smooth="yes"/>
      <point x="136" y="686"/>
      <point x="219" y="679"/>
      <point x="301" y="690" type="curve"/>
      <point x="287" y="452"/>
      <point x="102" y="262"/>
      <point x="101" y="19" type="curve" smooth="yes"/>
      <point x="101" y="4"/>
      <point x="114" y="-5"/>
      <point x="126" y="-5" type="curve" smooth="yes"/>
      <point x="136" y="-5"/>
      <point x="146" y="2"/>
      <point x="146" y="15" type="curve" smooth="yes"/>
      <point x="147" y="268"/>
      <point x="345" y="462"/>
      <point x="348" y="715" type="curve" smooth="yes"/>
      <point x="348" y="730"/>
      <point x="339" y="740"/>
      <point x="325" y="740" type="curve" smooth="yes"/>
      <point x="324" y="740"/>
      <point x="322" y="740"/>
    </contour>
  </outline>
</glyph>
<glyph name="eight" format="1">
  <advance width="328"/>
  <unicode hex="0038"/>
  <outline>
    <contour>
      <point x="181" y="399" type="curve"/>
      <point x="241" y="499"/>
      <point x="321" y="636"/>
      <point x="242" y="722" type="curve" smooth="yes"/>
      <point x="112" y="862"/>
      <point x="-73" y="557"/>
      <point x="73" y="422" type="curve"/>
      <point x="73" y="414"/>
      <point x="77" y="406"/>
      <point x="87" y="402" type="curve" smooth="yes"/>
      <point x="100" y="397"/>
      <point x="114" y="391"/>
      <point x="126" y="384" type="curve"/>
      <point x="66" y="284"/>
      <point x="5" y="174"/>
      <point x="45" y="69" type="curve" smooth="yes"/>
      <point x="97" y="-68"/>
      <point x="247" y="4"/>
      <point x="289" y="101" type="curve" smooth="yes"/>
      <point x="331" y="197"/>
      <point x="266" y="329"/>
    </contour>
    <contour>
      <point x="105" y="442" type="curve"/>
      <point x="36" y="504"/>
      <point x="40" y="600"/>
      <point x="93" y="677" type="curve" smooth="yes"/>
      <point x="132" y="733"/>
      <point x="237" y="730"/>
      <point x="239" y="648" type="curve" smooth="yes"/>
      <point x="240" y="595"/>
      <point x="213" y="544"/>
      <point x="190" y="498" type="curve" smooth="yes"/>
      <point x="179" y="473"/>
      <point x="165" y="449"/>
      <point x="150" y="423" type="curve"/>
      <point x="135" y="431"/>
      <point x="120" y="438"/>
    </contour>
    <contour>
      <point x="211" y="60" type="curve"/>
      <point x="128" y="28"/>
      <point x="81" y="48"/>
      <point x="70" y="120" type="curve"/>
      <point x="67" y="147"/>
      <point x="71" y="174"/>
      <point x="80" y="200" type="curve"/>
      <point x="94" y="252"/>
      <point x="124" y="301"/>
      <point x="151" y="347" type="curve" smooth="yes"/>
      <point x="153" y="351"/>
      <point x="155" y="355"/>
      <point x="158" y="360" type="curve"/>
      <point x="241" y="286"/>
      <point x="290" y="145"/>
    </contour>
  </outline>
</glyph>
<glyph name="nine" format="1">
  <advance width="397"/>
  <unicode hex="0039"/>
  <outline>
    <contour>
      <point x="357" y="475" type="curve" smooth="yes"/>
      <point x="350" y="538"/>
      <point x="342" y="681"/>
      <point x="273" y="711" type="curve" smooth="yes"/>
      <point x="268" y="713"/>
      <point x="265" y="713"/>
      <point x="261" y="712" type="curve"/>
      <point x="178" y="844"/>
      <point x="55" y="622"/>
      <point x="37" y="544" type="curve" smooth="yes"/>
      <point x="19" y="468"/>
      <point x="33" y="409"/>
      <point x="91" y="356" type="curve" smooth="yes"/>
      <point x="154" y="301"/>
      <point x="237" y="300"/>
      <point x="289" y="367" type="curve" smooth="yes"/>
      <point x="299" y="380"/>
      <point x="276" y="396"/>
      <point x="266" y="382" type="curve" smooth="yes"/>
      <point x="214" y="305"/>
      <point x="119" y="368"/>
      <point x="83" y="426" type="curve" smooth="yes"/>
      <point x="60" y="462"/>
      <point x="72" y="516"/>
      <point x="82" y="554" type="curve" smooth="yes"/>
      <point x="97" y="612"/>
      <point x="175" y="780"/>
      <point x="246" y="685" type="curve" smooth="yes"/>
      <point x="248" y="683"/>
      <point x="250" y="681"/>
      <point x="253" y="681" type="curve"/>
      <point x="299" y="561"/>
      <point x="319" y="450"/>
      <point x="324" y="318" type="curve" smooth="yes"/>
      <point x="325" y="262"/>
      <point x="327" y="201"/>
      <point x="312" y="146" type="curve" smooth="yes"/>
      <point x="298" y="91"/>
      <point x="253" y="35"/>
      <point x="191" y="34" type="curve" smooth="yes"/>
      <point x="123" y="32"/>
      <point x="134" y="118"/>
      <point x="141" y="160" type="curve" smooth="yes"/>
      <point x="144" y="175"/>
      <point x="122" y="178"/>
      <point x="116" y="166" type="curve" smooth="yes"/>
      <point x="89" y="108"/>
      <point x="89" y="9"/>
      <point x="172" y="-4" type="curve" smooth="yes"/>
      <point x="264" y="-19"/>
      <point x="332" y="63"/>
      <point x="352" y="145" type="curve" smooth="yes"/>
      <point x="380" y="250"/>
      <point x="369" y="370"/>
    </contour>
  </outline>
</glyph>
<glyph name="colon" format="1">
  <advance width="101"/>
  <unicode hex="003A"/>
  <outline>
    <contour>
      <point x="48" y="415" type="qcurve" smooth="yes"/>
      <point x="63" y="415"/>
      <point x="86" y="440"/>
      <point x="86" y="455" type="qcurve" smooth="yes"/>
      <point x="86" y="478"/>
      <point x="63" y="483" type="qcurve"/>
      <point x="55" y="483" type="line" smooth="yes"/>
      <point x="49" y="485"/>
      <point x="47" y="485" type="qcurve" smooth="yes"/>
      <point x="38" y="485"/>
      <point x="24" y="472"/>
      <point x="24" y="463" type="qcurve" smooth="yes"/>
      <point x="24" y="461" type="line"/>
      <point x="25" y="460" type="line"/>
      <point x="23" y="446"/>
      <point x="23" y="445" type="qcurve" smooth="yes"/>
      <point x="23" y="415"/>
    </contour>
    <contour>
      <point x="44" y="179" type="qcurve" smooth="yes"/>
      <point x="52" y="179"/>
      <point x="56" y="183" type="qcurve"/>
      <point x="53" y="181"/>
      <point x="58" y="183" type="qcurve" smooth="yes"/>
      <point x="58" y="183"/>
      <point x="60" y="184" type="qcurve" smooth="yes"/>
      <point x="64" y="186"/>
      <point x="65" y="186" type="qcurve" smooth="yes"/>
      <point x="70" y="190"/>
      <point x="77" y="193" type="qcurve" smooth="yes"/>
      <point x="86" y="202"/>
      <point x="82" y="213" type="qcurve"/>
      <point x="84" y="224"/>
      <point x="78" y="234" type="qcurve"/>
      <point x="84" y="242"/>
      <point x="72" y="261"/>
      <point x="63" y="261" type="qcurve" smooth="yes"/>
      <point x="55" y="259" type="line"/>
      <point x="23" y="245"/>
      <point x="23" y="209" type="qcurve" smooth="yes"/>
      <point x="23" y="179"/>
    </contour>
  </outline>
</glyph>
<glyph name="semicolon" format="1">
  <advance width="166"/>
  <unicode hex="003B"/>
  <outline>
    <contour>
      <point x="135" y="484" type="curve" smooth="yes"/>
      <point x="135" y="499"/>
      <point x="128" y="514"/>
      <point x="110" y="514" type="curve" smooth="yes"/>
      <point x="100" y="514"/>
      <point x="92" y="507"/>
      <point x="84" y="500" type="curve"/>
      <point x="79" y="504"/>
      <point x="73" y="505"/>
      <point x="67" y="505" type="curve" smooth="yes"/>
      <point x="53" y="505"/>
      <point x="42" y="498"/>
      <point x="42" y="480" type="curve"/>
      <point x="35" y="472"/>
      <point x="29" y="463"/>
      <point x="29" y="451" type="curve" smooth="yes"/>
      <point x="29" y="433"/>
      <point x="43" y="418"/>
      <point x="60" y="410" type="curve" smooth="yes"/>
      <point x="69" y="406"/>
      <point x="82" y="408"/>
      <point x="88" y="415" type="curve" smooth="yes"/>
      <point x="95" y="421"/>
      <point x="103" y="428"/>
      <point x="111" y="438" type="curve" smooth="yes"/>
      <point x="112" y="438"/>
      <point x="112" y="438"/>
      <point x="112" y="438" type="curve"/>
      <point x="131" y="440"/>
      <point x="135" y="464"/>
    </contour>
    <contour>
      <point x="72" y="235" type="curve" smooth="yes"/>
      <point x="68" y="240"/>
      <point x="63" y="242"/>
      <point x="58" y="242" type="curve" smooth="yes"/>
      <point x="47" y="242"/>
      <point x="37" y="230"/>
      <point x="40" y="217" type="curve"/>
      <point x="34" y="212"/>
      <point x="32" y="206"/>
      <point x="32" y="200" type="curve" smooth="yes"/>
      <point x="32" y="186"/>
      <point x="44" y="172"/>
      <point x="58" y="172" type="curve" smooth="yes"/>
      <point x="61" y="172"/>
      <point x="64" y="173"/>
      <point x="67" y="174" type="curve"/>
      <point x="68" y="167"/>
      <point x="69" y="159"/>
      <point x="69" y="152" type="curve" smooth="yes"/>
      <point x="69" y="117"/>
      <point x="52" y="84"/>
      <point x="52" y="47" type="curve" smooth="yes"/>
      <point x="52" y="37"/>
      <point x="61" y="29"/>
      <point x="71" y="29" type="curve" smooth="yes"/>
      <point x="75" y="29"/>
      <point x="79" y="30"/>
      <point x="82" y="33" type="curve" smooth="yes"/>
      <point x="109" y="62"/>
      <point x="122" y="102"/>
      <point x="122" y="143" type="curve" smooth="yes"/>
      <point x="122" y="171"/>
      <point x="116" y="198"/>
      <point x="106" y="222" type="curve" smooth="yes"/>
      <point x="102" y="232"/>
      <point x="92" y="237"/>
      <point x="82" y="237" type="curve" smooth="yes"/>
      <point x="78" y="237"/>
      <point x="75" y="236"/>
    </contour>
  </outline>
</glyph>
<glyph name="less" format="1">
  <advance width="429"/>
  <unicode hex="003C"/>
  <outline>
    <contour>
      <point x="374" y="208" type="qcurve" smooth="yes"/>
      <point x="374" y="216"/>
      <point x="367" y="220" type="qcurve" smooth="yes"/>
      <point x="347" y="235"/>
      <point x="294" y="255" type="qcurve" smooth="yes"/>
      <point x="236" y="277"/>
      <point x="233" y="278" type="qcurve" smooth="yes"/>
      <point x="164" y="309"/>
      <point x="106" y="348" type="qcurve"/>
      <point x="162" y="362"/>
      <point x="249" y="391" type="qcurve" smooth="yes"/>
      <point x="342" y="420"/>
      <point x="392" y="433" type="qcurve" smooth="yes"/>
      <point x="405" y="437"/>
      <point x="405" y="450" type="qcurve" smooth="yes"/>
      <point x="405" y="464"/>
      <point x="390" y="464" type="qcurve" smooth="yes"/>
      <point x="385" y="464" type="line" smooth="yes"/>
      <point x="320" y="464"/>
      <point x="202" y="425" type="qcurve" smooth="yes"/>
      <point x="86" y="385"/>
      <point x="53" y="379" type="qcurve" smooth="yes"/>
      <point x="36" y="376"/>
      <point x="36" y="359" type="qcurve" smooth="yes"/>
      <point x="36" y="348"/>
      <point x="45" y="341" type="qcurve" smooth="yes"/>
      <point x="100" y="295"/>
      <point x="180" y="256" type="qcurve" smooth="yes"/>
      <point x="218" y="237" type="line" smooth="yes"/>
      <point x="275" y="209"/>
      <point x="307" y="200" type="qcurve" smooth="yes"/>
      <point x="334" y="192"/>
      <point x="353" y="192" type="qcurve" smooth="yes"/>
      <point x="374" y="192"/>
    </contour>
  </outline>
</glyph>
<glyph name="equal" format="1">
  <advance width="388"/>
  <unicode hex="003D"/>
  <outline>
    <contour>
      <point x="346" y="420" type="curve" smooth="yes"/>
      <point x="359" y="421"/>
      <point x="367" y="432"/>
      <point x="367" y="442" type="curve" smooth="yes"/>
      <point x="367" y="451"/>
      <point x="362" y="459"/>
      <point x="350" y="459" type="curve" smooth="yes"/>
      <point x="244" y="459"/>
      <point x="129" y="451"/>
      <point x="25" y="431" type="curve" smooth="yes"/>
      <point x="18" y="430"/>
      <point x="15" y="424"/>
      <point x="15" y="419" type="curve" smooth="yes"/>
      <point x="15" y="413"/>
      <point x="19" y="408"/>
      <point x="26" y="407" type="curve" smooth="yes"/>
      <point x="50" y="403"/>
      <point x="74" y="402"/>
      <point x="99" y="402" type="curve" smooth="yes"/>
      <point x="181" y="402"/>
      <point x="266" y="418"/>
    </contour>
    <contour>
      <point x="340" y="287" type="curve" smooth="yes"/>
      <point x="285" y="291"/>
      <point x="223" y="298"/>
      <point x="163" y="298" type="curve" smooth="yes"/>
      <point x="128" y="298"/>
      <point x="93" y="296"/>
      <point x="61" y="288" type="curve" smooth="yes"/>
      <point x="51" y="285"/>
      <point x="42" y="277"/>
      <point x="42" y="266" type="curve" smooth="yes"/>
      <point x="42" y="264"/>
      <point x="43" y="263"/>
      <point x="43" y="261" type="curve"/>
      <point x="41" y="270"/>
      <point x="40" y="266"/>
      <point x="38" y="257" type="curve" smooth="yes"/>
      <point x="36" y="246"/>
      <point x="48" y="239"/>
      <point x="55" y="244" type="curve"/>
      <point x="59" y="242"/>
      <point x="64" y="241"/>
      <point x="69" y="242" type="curve" smooth="yes"/>
      <point x="94" y="246"/>
      <point x="118" y="247"/>
      <point x="143" y="247" type="curve" smooth="yes"/>
      <point x="342" y="241" type="line" smooth="yes"/>
      <point x="355" y="241"/>
      <point x="361" y="251"/>
      <point x="361" y="262" type="curve" smooth="yes"/>
      <point x="361" y="274"/>
      <point x="354" y="286"/>
    </contour>
  </outline>
</glyph>
<glyph name="greater" format="1">
  <advance width="422"/>
  <unicode hex="003E"/>
  <outline>
    <contour>
      <point x="43" y="464" type="curve" smooth="yes"/>
      <point x="159" y="466"/>
      <point x="269" y="402"/>
      <point x="381" y="379" type="curve" smooth="yes"/>
      <point x="401" y="375"/>
      <point x="405" y="352"/>
      <point x="389" y="341" type="curve" smooth="yes"/>
      <point x="348" y="307"/>
      <point x="302" y="280"/>
      <point x="254" y="256" type="curve" smooth="yes"/>
      <point x="204" y="231"/>
      <point x="135" y="190"/>
      <point x="77" y="192" type="curve" smooth="yes"/>
      <point x="61" y="193"/>
      <point x="52" y="210"/>
      <point x="66" y="220" type="curve" smooth="yes"/>
      <point x="103" y="248"/>
      <point x="158" y="258"/>
      <point x="201" y="278" type="curve" smooth="yes"/>
      <point x="245" y="297"/>
      <point x="288" y="321"/>
      <point x="327" y="348" type="curve"/>
      <point x="231" y="372"/>
      <point x="138" y="409"/>
      <point x="42" y="433" type="curve" smooth="yes"/>
      <point x="26" y="439"/>
      <point x="25" y="464"/>
    </contour>
  </outline>
</glyph>
<glyph name="question" format="1">
  <advance width="280"/>
  <unicode hex="003F"/>
  <outline>
    <contour>
      <point x="126" y="71" type="qcurve" smooth="yes"/>
      <point x="113" y="71"/>
      <point x="108" y="63" type="qcurve"/>
      <point x="94" y="55"/>
      <point x="94" y="35"/>
      <point x="104" y="25" type="qcurve"/>
      <point x="108" y="-9"/>
      <point x="132" y="-9" type="qcurve" smooth="yes"/>
      <point x="150" y="-9"/>
      <point x="181" y="17"/>
      <point x="181" y="32" type="qcurve" smooth="yes"/>
      <point x="181" y="65"/>
      <point x="138" y="69" type="qcurve" smooth="yes"/>
      <point x="128" y="71"/>
    </contour>
    <contour>
      <point x="112" y="180" type="qcurve" smooth="yes"/>
      <point x="123" y="180"/>
      <point x="139" y="194"/>
      <point x="139" y="205" type="qcurve" smooth="yes"/>
      <point x="139" y="213"/>
      <point x="137" y="225"/>
      <point x="137" y="233" type="qcurve" smooth="yes"/>
      <point x="137" y="298"/>
      <point x="200" y="394" type="qcurve" smooth="yes"/>
      <point x="226" y="433"/>
      <point x="246" y="468"/>
      <point x="261" y="519"/>
      <point x="261" y="549" type="qcurve" smooth="yes"/>
      <point x="261" y="622"/>
      <point x="181" y="740"/>
      <point x="130" y="740" type="qcurve" smooth="yes"/>
      <point x="85" y="740"/>
      <point x="16" y="665"/>
      <point x="16" y="615" type="qcurve" smooth="yes"/>
      <point x="16" y="557"/>
      <point x="43" y="557" type="qcurve" smooth="yes"/>
      <point x="52" y="557"/>
      <point x="66" y="569"/>
      <point x="66" y="578" type="qcurve" smooth="yes"/>
      <point x="66" y="588"/>
      <point x="65" y="595" type="qcurve" smooth="yes"/>
      <point x="63" y="609"/>
      <point x="63" y="611" type="qcurve" smooth="yes"/>
      <point x="63" y="647"/>
      <point x="93" y="692"/>
      <point x="121" y="692" type="qcurve" smooth="yes"/>
      <point x="166" y="692"/>
      <point x="213" y="619"/>
      <point x="213" y="564" type="qcurve" smooth="yes"/>
      <point x="213" y="522"/>
      <point x="186" y="451"/>
      <point x="153" y="396" type="qcurve" smooth="yes"/>
      <point x="120" y="342"/>
      <point x="90" y="261"/>
      <point x="90" y="215" type="qcurve" smooth="yes"/>
      <point x="90" y="180"/>
    </contour>
  </outline>
</glyph>
<glyph name="at" format="1">
  <advance width="748"/>
  <unicode hex="0040"/>
  <outline>
    <contour>
      <point x="276" y="149" type="curve" smooth="yes"/>
      <point x="341" y="149"/>
      <point x="392" y="193"/>
      <point x="416" y="240" type="curve"/>
      <point x="424.375" y="191.148"/>
      <point x="462.434" y="131"/>
      <point x="520" y="131" type="curve" smooth="yes"/>
      <point x="601.646" y="131"/>
      <point x="658" y="212"/>
      <point x="658" y="346" type="curve" smooth="yes"/>
      <point x="658" y="499.832"/>
      <point x="556" y="597"/>
      <point x="340" y="597" type="curve" smooth="yes"/>
      <point x="137.807" y="597"/>
      <point x="36" y="441.861"/>
      <point x="36" y="266" type="curve" smooth="yes"/>
      <point x="36" y="69"/>
      <point x="166" y="-56"/>
      <point x="354" y="-56" type="curve" smooth="yes"/>
      <point x="448" y="-56"/>
      <point x="604" y="-28"/>
      <point x="716" y="76" type="curve" smooth="yes"/>
      <point x="719.664" y="79.4023"/>
      <point x="721" y="85"/>
      <point x="721" y="89" type="curve" smooth="yes"/>
      <point x="721" y="102"/>
      <point x="709" y="113"/>
      <point x="697" y="113" type="curve" smooth="yes"/>
      <point x="692" y="113"/>
      <point x="687" y="111"/>
      <point x="683" y="107" type="curve" smooth="yes"/>
      <point x="609" y="33"/>
      <point x="449" y="-26"/>
      <point x="360" y="-26" type="curve" smooth="yes"/>
      <point x="188" y="-26"/>
      <point x="72" y="102.871"/>
      <point x="72" y="268" type="curve" smooth="yes"/>
      <point x="72" y="421"/>
      <point x="166" y="561"/>
      <point x="342" y="561" type="curve" smooth="yes"/>
      <point x="538" y="561"/>
      <point x="620" y="472.616"/>
      <point x="620" y="343" type="curve" smooth="yes"/>
      <point x="620" y="244"/>
      <point x="586" y="164"/>
      <point x="520" y="164" type="curve" smooth="yes"/>
      <point x="484.45" y="164"/>
      <point x="444" y="230.22"/>
      <point x="444" y="274" type="curve" smooth="yes"/>
      <point x="444" y="330"/>
      <point x="459.097" y="373.292"/>
      <point x="475" y="421" type="curve" smooth="yes"/>
      <point x="479.814" y="435.443"/>
      <point x="480" y="444"/>
      <point x="461" y="449" type="curve" smooth="yes"/>
      <point x="439.724" y="454.599"/>
      <point x="432" y="416"/>
      <point x="425" y="399" type="curve"/>
      <point x="425" y="402"/>
      <point x="423" y="406"/>
      <point x="419" y="408" type="curve" smooth="yes"/>
      <point x="395" y="421"/>
      <point x="370" y="427"/>
      <point x="345" y="427" type="curve" smooth="yes"/>
      <point x="256" y="427"/>
      <point x="172" y="353"/>
      <point x="172" y="269" type="curve" smooth="yes"/>
      <point x="172" y="216.356"/>
      <point x="212.57" y="149"/>
    </contour>
    <contour>
      <point x="370" y="240" type="curve" smooth="yes"/>
      <point x="352" y="208"/>
      <point x="313" y="193"/>
      <point x="282" y="193" type="curve" smooth="yes"/>
      <point x="250" y="193"/>
      <point x="213" y="224"/>
      <point x="213" y="274" type="curve" smooth="yes"/>
      <point x="213" y="346"/>
      <point x="291" y="401"/>
      <point x="357" y="401" type="curve" smooth="yes"/>
      <point x="374" y="401"/>
      <point x="395.325" y="395.343"/>
      <point x="406" y="382" type="curve" smooth="yes"/>
      <point x="414" y="372"/>
      <point x="417" y="382"/>
      <point x="420" y="386" type="curve"/>
      <point x="404" y="341"/>
      <point x="392" y="282"/>
    </contour>
  </outline>
</glyph>
<glyph name="A" format="1">
  <advance width="433"/>
  <unicode hex="0041"/>
  <outline>
    <contour>
      <point x="238" y="603" type="qcurve"/>
      <point x="247" y="567"/>
      <point x="268" y="486" type="qcurve" smooth="yes"/>
      <point x="305" y="338"/>
      <point x="323" y="211" type="qcurve"/>
      <point x="239" y="204"/>
      <point x="139" y="203" type="qcurve"/>
      <point x="179" y="387"/>
    </contour>
    <contour>
      <point x="231" y="719" type="qcurve"/>
      <point x="226" y="725"/>
      <point x="211" y="716"/>
      <point x="212" y="708" type="qcurve" smooth="yes"/>
      <point x="214" y="681"/>
      <point x="219" y="648" type="qcurve"/>
      <point x="68" y="117"/>
      <point x="41" y="30" type="qcurve"/>
      <point x="39" y="22" type="line" smooth="yes"/>
      <point x="39" y="13"/>
      <point x="51" y="2"/>
      <point x="60" y="2" type="qcurve" smooth="yes"/>
      <point x="72" y="2"/>
      <point x="76" y="14" type="qcurve" smooth="yes"/>
      <point x="82" y="27"/>
      <point x="128" y="170" type="qcurve"/>
      <point x="146" y="172"/>
      <point x="330" y="179" type="qcurve"/>
      <point x="350" y="36"/>
      <point x="357" y="2" type="qcurve" smooth="yes"/>
      <point x="360" y="-12"/>
      <point x="376" y="-12" type="qcurve" smooth="yes"/>
      <point x="394" y="-12"/>
      <point x="394" y="5" type="qcurve" smooth="yes"/>
      <point x="394" y="80"/>
      <point x="378" y="169" type="qcurve" smooth="yes"/>
      <point x="365" y="241"/>
      <point x="345" y="331" type="qcurve" smooth="yes"/>
      <point x="325" y="415"/>
      <point x="314" y="469" type="qcurve" smooth="yes"/>
      <point x="297" y="546"/>
      <point x="279" y="606" type="qcurve" smooth="yes"/>
      <point x="268" y="640"/>
      <point x="253" y="672" type="qcurve" smooth="yes"/>
      <point x="253" y="674"/>
      <point x="257" y="693"/>
      <point x="260" y="713"/>
      <point x="260" y="718" type="qcurve" smooth="yes"/>
      <point x="260" y="733"/>
      <point x="244" y="733" type="qcurve" smooth="yes"/>
      <point x="233" y="733"/>
    </contour>
  </outline>
</glyph>
<glyph name="B" format="1">
  <advance width="362"/>
  <unicode hex="0042"/>
  <outline>
    <contour>
      <point x="175" y="356" type="curve"/>
      <point x="268" y="399"/>
      <point x="305" y="496"/>
      <point x="305" y="562" type="curve" smooth="yes"/>
      <point x="305" y="656"/>
      <point x="230" y="744"/>
      <point x="134" y="744" type="curve" smooth="yes"/>
      <point x="114" y="744"/>
      <point x="93" y="740"/>
      <point x="72" y="732" type="curve" smooth="yes"/>
      <point x="67" y="730"/>
      <point x="65" y="723"/>
      <point x="66" y="718" type="curve"/>
      <point x="65" y="716"/>
      <point x="65" y="716"/>
      <point x="65" y="712" type="curve" smooth="yes"/>
      <point x="61" y="487"/>
      <point x="49" y="233"/>
      <point x="49" y="7" type="curve" smooth="yes"/>
      <point x="49" y="-5"/>
      <point x="59" y="-12"/>
      <point x="69" y="-12" type="curve" smooth="yes"/>
      <point x="70" y="-12"/>
      <point x="70" y="-12"/>
      <point x="71" y="-12" type="curve" smooth="yes"/>
      <point x="86" y="-14"/>
      <point x="101" y="-16"/>
      <point x="115" y="-16" type="curve" smooth="yes"/>
      <point x="238" y="-16"/>
      <point x="301" y="76"/>
      <point x="301" y="170" type="curve" smooth="yes"/>
      <point x="301" y="246"/>
      <point x="260" y="323"/>
    </contour>
    <contour>
      <point x="93" y="374" type="curve" smooth="yes"/>
      <point x="92" y="374"/>
      <point x="90" y="373"/>
      <point x="88" y="373" type="curve"/>
      <point x="90" y="476"/>
      <point x="90" y="607"/>
      <point x="90" y="710" type="curve" smooth="yes"/>
      <point x="90" y="711" type="line"/>
      <point x="101" y="713"/>
      <point x="111" y="713"/>
      <point x="121" y="713" type="curve" smooth="yes"/>
      <point x="218" y="713"/>
      <point x="266" y="642"/>
      <point x="266" y="568" type="curve" smooth="yes"/>
      <point x="266" y="486"/>
      <point x="208" y="374"/>
    </contour>
    <contour>
      <point x="88" y="338" type="curve"/>
      <point x="93" y="333"/>
      <point x="103" y="335"/>
      <point x="112" y="335" type="curve" smooth="yes"/>
      <point x="214" y="335"/>
      <point x="259" y="258"/>
      <point x="259" y="180" type="curve" smooth="yes"/>
      <point x="259" y="99"/>
      <point x="211" y="17"/>
      <point x="126" y="17" type="curve" smooth="yes"/>
      <point x="113" y="17"/>
      <point x="100" y="19"/>
      <point x="86" y="23" type="curve"/>
      <point x="86" y="128"/>
      <point x="87" y="233"/>
    </contour>
  </outline>
</glyph>
<glyph name="C" format="1">
  <advance width="377"/>
  <unicode hex="0043"/>
  <outline>
    <contour>
      <point x="322" y="652" type="curve" smooth="yes"/>
      <point x="348" y="678"/>
      <point x="280.832" y="744"/>
      <point x="210" y="744" type="curve" smooth="yes"/>
      <point x="74" y="744"/>
      <point x="58" y="634"/>
      <point x="58" y="400" type="curve" smooth="yes"/>
      <point x="58" y="130"/>
      <point x="75" y="-7"/>
      <point x="203" y="-7" type="curve" smooth="yes"/>
      <point x="299" y="-7"/>
      <point x="323" y="45"/>
      <point x="323" y="81" type="curve" smooth="yes"/>
      <point x="323" y="117"/>
      <point x="326" y="150"/>
      <point x="300" y="150" type="curve" smooth="yes"/>
      <point x="274" y="150"/>
      <point x="284" y="102"/>
      <point x="284" y="84" type="curve" smooth="yes"/>
      <point x="284" y="54"/>
      <point x="257" y="29"/>
      <point x="210" y="29" type="curve" smooth="yes"/>
      <point x="110" y="29"/>
      <point x="98" y="96"/>
      <point x="98" y="470" type="curve" smooth="yes"/>
      <point x="98" y="586"/>
      <point x="112" y="704"/>
      <point x="210" y="704" type="curve" smooth="yes"/>
      <point x="286" y="704"/>
      <point x="296" y="626"/>
    </contour>
  </outline>
</glyph>
<glyph name="D" format="1">
  <advance width="445"/>
  <unicode hex="0044"/>
  <outline>
    <contour>
      <point x="338" y="665" type="curve" smooth="yes"/>
      <point x="275" y="745"/>
      <point x="193.562" y="739.954"/>
      <point x="99" y="730" type="curve" smooth="yes"/>
      <point x="80" y="728"/>
      <point x="80.9737" y="698"/>
      <point x="100" y="698" type="curve" smooth="yes"/>
      <point x="106" y="698"/>
      <point x="112" y="698"/>
      <point x="118" y="698" type="curve"/>
      <point x="132" y="480"/>
      <point x="128" y="265"/>
      <point x="111" y="43" type="curve" smooth="yes"/>
      <point x="111" y="42" type="line"/>
      <point x="96" y="41"/>
      <point x="81.9857" y="40.0979"/>
      <point x="68" y="38" type="curve" smooth="yes"/>
      <point x="48" y="35"/>
      <point x="51.7549" y="5.34167"/>
      <point x="70" y="5" type="curve" smooth="yes"/>
      <point x="337" y="3.12771e-015"/>
      <point x="372" y="39"/>
      <point x="382" y="311" type="curve" smooth="yes"/>
      <point x="386.306" y="428.13"/>
      <point x="418.1" y="563.285"/>
    </contour>
    <contour>
      <point x="343" y="315" type="curve" smooth="yes"/>
      <point x="334.915" y="236.709"/>
      <point x="353.197" y="148.659"/>
      <point x="305" y="91" type="curve" smooth="yes"/>
      <point x="274.175" y="54.1231"/>
      <point x="212.524" y="47.6154"/>
      <point x="153" y="44" type="curve"/>
      <point x="160" y="252"/>
      <point x="178" y="480"/>
      <point x="151" y="698" type="curve"/>
      <point x="222" y="699"/>
      <point x="278.881" y="693.928"/>
      <point x="326" y="616" type="curve" smooth="yes"/>
      <point x="378" y="530"/>
      <point x="352.722" y="409.141"/>
    </contour>
  </outline>
</glyph>
<glyph name="E" format="1">
  <advance width="386"/>
  <unicode hex="0045"/>
  <outline>
    <contour>
      <point x="337" y="738" type="curve" smooth="yes"/>
      <point x="254" y="738"/>
      <point x="162" y="757"/>
      <point x="78" y="745" type="curve"/>
      <point x="71" y="758"/>
      <point x="47" y="758"/>
      <point x="47" y="739" type="curve" smooth="yes"/>
      <point x="47" y="739"/>
      <point x="47" y="738"/>
      <point x="46" y="738" type="curve"/>
      <point x="39" y="733"/>
      <point x="37" y="721"/>
      <point x="46" y="716" type="curve"/>
      <point x="36" y="485"/>
      <point x="26" y="254"/>
      <point x="53" y="25" type="curve" smooth="yes"/>
      <point x="54" y="15"/>
      <point x="62" y="8"/>
      <point x="72" y="7" type="curve" smooth="yes"/>
      <point x="148" y="-2"/>
      <point x="225" y="-1"/>
      <point x="302" y="-10" type="curve" smooth="yes"/>
      <point x="322" y="-12"/>
      <point x="329" y="17"/>
      <point x="310" y="24" type="curve" smooth="yes"/>
      <point x="269" y="38"/>
      <point x="234" y="41"/>
      <point x="190" y="43" type="curve"/>
      <point x="164" y="44"/>
      <point x="137" y="45"/>
      <point x="111" y="46" type="curve" smooth="yes"/>
      <point x="74" y="48"/>
      <point x="79" y="245"/>
      <point x="79" y="241" type="curve" smooth="yes"/>
      <point x="78" y="283"/>
      <point x="78" y="324"/>
      <point x="78" y="366" type="curve"/>
      <point x="110" y="350"/>
      <point x="150" y="352"/>
      <point x="184" y="352" type="curve" smooth="yes"/>
      <point x="209" y="352"/>
      <point x="271" y="348"/>
      <point x="286" y="374" type="curve" smooth="yes"/>
      <point x="289" y="381"/>
      <point x="290" y="391"/>
      <point x="282" y="396" type="curve" smooth="yes"/>
      <point x="260" y="408"/>
      <point x="225" y="394"/>
      <point x="203" y="392" type="curve" smooth="yes"/>
      <point x="160" y="388"/>
      <point x="120" y="391"/>
      <point x="78" y="396" type="curve"/>
      <point x="79" y="501"/>
      <point x="83" y="604"/>
      <point x="81" y="709" type="curve"/>
      <point x="163" y="694"/>
      <point x="252" y="696"/>
      <point x="333" y="695" type="curve" smooth="yes"/>
      <point x="360" y="695"/>
      <point x="365" y="738"/>
    </contour>
  </outline>
</glyph>
<glyph name="F" format="1">
  <advance width="358"/>
  <unicode hex="0046"/>
  <outline>
    <contour>
      <point x="318" y="737" type="curve" smooth="yes"/>
      <point x="299" y="763"/>
      <point x="233" y="749"/>
      <point x="206" y="748" type="curve" smooth="yes"/>
      <point x="160" y="748"/>
      <point x="113" y="751"/>
      <point x="67" y="746" type="curve"/>
      <point x="66" y="752"/>
      <point x="66" y="758"/>
      <point x="65" y="763" type="curve" smooth="yes"/>
      <point x="60" y="784"/>
      <point x="29" y="778"/>
      <point x="32" y="757" type="curve" smooth="yes"/>
      <point x="33" y="752"/>
      <point x="33" y="746"/>
      <point x="34" y="741" type="curve"/>
      <point x="18" y="737"/>
      <point x="20" y="717"/>
      <point x="36" y="714" type="curve" smooth="yes"/>
      <point x="36" y="714"/>
      <point x="36" y="714"/>
      <point x="37" y="714" type="curve"/>
      <point x="59" y="478"/>
      <point x="22" y="246"/>
      <point x="40" y="11" type="curve" smooth="yes"/>
      <point x="41" y="-10"/>
      <point x="76" y="-8"/>
      <point x="78" y="13" type="curve" smooth="yes"/>
      <point x="89" y="127"/>
      <point x="95" y="244"/>
      <point x="95" y="360" type="curve"/>
      <point x="151" y="361"/>
      <point x="266" y="362"/>
      <point x="258" y="407" type="curve" smooth="yes"/>
      <point x="253" y="436"/>
      <point x="207" y="418"/>
      <point x="190" y="414" type="curve" smooth="yes"/>
      <point x="159" y="407"/>
      <point x="127" y="399"/>
      <point x="95" y="390" type="curve"/>
      <point x="94" y="498"/>
      <point x="88" y="604"/>
      <point x="73" y="709" type="curve"/>
      <point x="120" y="705"/>
      <point x="169" y="708"/>
      <point x="216" y="708" type="curve" smooth="yes"/>
      <point x="245" y="708"/>
      <point x="299" y="694"/>
      <point x="319" y="719" type="curve" smooth="yes"/>
      <point x="325" y="724"/>
      <point x="324" y="733"/>
    </contour>
  </outline>
</glyph>
<glyph name="G" format="1">
  <advance width="357"/>
  <unicode hex="0047"/>
  <outline>
    <contour>
      <point x="67" y="374" type="curve" smooth="yes"/>
      <point x="67" y="387"/>
      <point x="67" y="400"/>
      <point x="67" y="413" type="curve" smooth="yes"/>
      <point x="67" y="458"/>
      <point x="70" y="513"/>
      <point x="76" y="558" type="curve" smooth="yes"/>
      <point x="86" y="629"/>
      <point x="129" y="701"/>
      <point x="190" y="701" type="curve" smooth="yes"/>
      <point x="220" y="701"/>
      <point x="255" y="683"/>
      <point x="292" y="637" type="curve" smooth="yes"/>
      <point x="295" y="633"/>
      <point x="299" y="632"/>
      <point x="302" y="632" type="curve" smooth="yes"/>
      <point x="309" y="632"/>
      <point x="316" y="639"/>
      <point x="316" y="647" type="curve" smooth="yes"/>
      <point x="316" y="649"/>
      <point x="316" y="650"/>
      <point x="315" y="652" type="curve" smooth="yes"/>
      <point x="295" y="703"/>
      <point x="237" y="745"/>
      <point x="181" y="745" type="curve" smooth="yes"/>
      <point x="159" y="745"/>
      <point x="138" y="739"/>
      <point x="119" y="725" type="curve" smooth="yes"/>
      <point x="43" y="672"/>
      <point x="33" y="560"/>
      <point x="27" y="475" type="curve" smooth="yes"/>
      <point x="24" y="437"/>
      <point x="20" y="389"/>
      <point x="20" y="337" type="curve" smooth="yes"/>
      <point x="20" y="198"/>
      <point x="46" y="28"/>
      <point x="175" y="-6" type="curve" smooth="yes"/>
      <point x="188" y="-9"/>
      <point x="199" y="-11"/>
      <point x="210" y="-11" type="curve" smooth="yes"/>
      <point x="309" y="-11"/>
      <point x="337" y="128"/>
      <point x="337" y="227" type="curve" smooth="yes"/>
      <point x="337" y="257"/>
      <point x="335" y="284"/>
      <point x="331" y="304" type="curve" smooth="yes"/>
      <point x="323" y="343"/>
      <point x="284" y="374"/>
      <point x="245" y="374" type="curve" smooth="yes"/>
      <point x="188" y="374"/>
      <point x="166" y="315"/>
      <point x="166" y="262" type="curve" smooth="yes"/>
      <point x="166" y="219"/>
      <point x="176" y="174"/>
      <point x="180" y="141" type="curve" smooth="yes"/>
      <point x="181" y="130"/>
      <point x="189" y="125"/>
      <point x="198" y="125" type="curve" smooth="yes"/>
      <point x="209" y="125"/>
      <point x="220" y="132"/>
      <point x="220" y="146" type="curve" smooth="yes"/>
      <point x="220" y="184"/>
      <point x="212" y="223"/>
      <point x="212" y="262" type="curve" smooth="yes"/>
      <point x="212" y="269"/>
      <point x="212" y="276"/>
      <point x="212" y="283" type="curve" smooth="yes"/>
      <point x="214" y="308"/>
      <point x="235" y="325"/>
      <point x="256" y="325" type="curve" smooth="yes"/>
      <point x="270" y="325"/>
      <point x="285" y="317"/>
      <point x="290" y="297" type="curve" smooth="yes"/>
      <point x="298" y="265"/>
      <point x="302" y="231"/>
      <point x="302" y="197" type="curve" smooth="yes"/>
      <point x="302" y="131"/>
      <point x="260" y="36"/>
      <point x="200" y="36" type="curve" smooth="yes"/>
      <point x="181" y="36"/>
      <point x="160" y="44"/>
      <point x="138" y="65" type="curve" smooth="yes"/>
      <point x="70" y="129"/>
      <point x="67" y="251"/>
      <point x="67" y="345" type="curve" smooth="yes"/>
      <point x="67" y="355"/>
      <point x="67" y="365"/>
    </contour>
  </outline>
</glyph>
<glyph name="H" format="1">
  <advance width="392"/>
  <unicode hex="0048"/>
  <outline>
    <contour>
      <point x="331" y="720" type="curve" smooth="yes"/>
      <point x="330" y="736"/>
      <point x="307" y="734"/>
      <point x="306" y="719" type="curve" smooth="yes"/>
      <point x="295" y="607"/>
      <point x="299" y="494"/>
      <point x="303" y="382" type="curve"/>
      <point x="264" y="378"/>
      <point x="240" y="382"/>
      <point x="211" y="378" type="curve" smooth="yes"/>
      <point x="186" y="374"/>
      <point x="151" y="369"/>
      <point x="122" y="360" type="curve"/>
      <point x="126" y="486"/>
      <point x="122" y="612"/>
      <point x="92" y="731" type="curve" smooth="yes"/>
      <point x="87" y="751"/>
      <point x="55" y="746"/>
      <point x="60" y="725" type="curve" smooth="yes"/>
      <point x="106" y="486"/>
      <point x="55" y="250"/>
      <point x="71" y="9" type="curve" smooth="yes"/>
      <point x="72.1436" y="-8.22461"/>
      <point x="101" y="-8"/>
      <point x="101" y="10" type="curve" smooth="yes"/>
      <point x="105" y="112"/>
      <point x="115" y="216"/>
      <point x="120" y="321" type="curve"/>
      <point x="148" y="323"/>
      <point x="178" y="331"/>
      <point x="205" y="334" type="curve" smooth="yes"/>
      <point x="235" y="336"/>
      <point x="261" y="342"/>
      <point x="305" y="348" type="curve"/>
      <point x="308" y="234"/>
      <point x="311" y="118"/>
      <point x="290" y="3" type="curve" smooth="yes"/>
      <point x="286" y="-21"/>
      <point x="323.012" y="-23.3623"/>
      <point x="326" y="-1" type="curve" smooth="yes"/>
      <point x="357" y="231"/>
      <point x="342" y="486"/>
    </contour>
  </outline>
</glyph>
<glyph name="I" format="1">
  <advance width="119"/>
  <unicode hex="0049"/>
  <outline>
    <contour>
      <point x="48" y="674" type="curve" smooth="yes"/>
      <point x="48" y="567"/>
      <point x="53" y="459"/>
      <point x="53" y="352" type="curve" smooth="yes"/>
      <point x="53" y="241"/>
      <point x="47" y="130"/>
      <point x="24" y="21" type="curve" smooth="yes"/>
      <point x="23" y="19"/>
      <point x="23" y="17"/>
      <point x="23" y="15" type="curve" smooth="yes"/>
      <point x="23" y="5"/>
      <point x="31" y="-1"/>
      <point x="41" y="-1" type="curve" smooth="yes"/>
      <point x="51" y="-1"/>
      <point x="62" y="5"/>
      <point x="65" y="17" type="curve" smooth="yes"/>
      <point x="88" y="126"/>
      <point x="95" y="237"/>
      <point x="95" y="349" type="curve" smooth="yes"/>
      <point x="95" y="473"/>
      <point x="86" y="596"/>
      <point x="82" y="719" type="curve" smooth="yes"/>
      <point x="81" y="730"/>
      <point x="72" y="737"/>
      <point x="63" y="737" type="curve" smooth="yes"/>
      <point x="55" y="737"/>
      <point x="48" y="732"/>
      <point x="48" y="722" type="curve" smooth="yes"/>
      <point x="48" y="706"/>
      <point x="48" y="690"/>
    </contour>
  </outline>
</glyph>
<glyph name="J" format="1">
  <advance width="329"/>
  <unicode hex="004A"/>
  <outline>
    <contour>
      <point x="47" y="116" type="curve" smooth="yes"/>
      <point x="47" y="124"/>
      <point x="50" y="132"/>
      <point x="50" y="140" type="curve" smooth="yes"/>
      <point x="50" y="148"/>
      <point x="43" y="153"/>
      <point x="37" y="153" type="curve" smooth="yes"/>
      <point x="32" y="153"/>
      <point x="28" y="151"/>
      <point x="25" y="145" type="curve" smooth="yes"/>
      <point x="15" y="123"/>
      <point x="10" y="103"/>
      <point x="10" y="85" type="curve" smooth="yes"/>
      <point x="10" y="28"/>
      <point x="56" y="-7"/>
      <point x="106" y="-7" type="curve" smooth="yes"/>
      <point x="146" y="-7"/>
      <point x="189" y="15"/>
      <point x="216" y="67" type="curve" smooth="yes"/>
      <point x="260" y="151"/>
      <point x="253" y="274"/>
      <point x="257" y="366" type="curve" smooth="yes"/>
      <point x="258" y="409"/>
      <point x="260" y="457"/>
      <point x="260" y="505" type="curve" smooth="yes"/>
      <point x="260" y="572"/>
      <point x="256" y="641"/>
      <point x="240" y="700" type="curve"/>
      <point x="263.561" y="701"/>
      <point x="288.805" y="700"/>
      <point x="309" y="708" type="curve" smooth="yes"/>
      <point x="316" y="712"/>
      <point x="319" y="722"/>
      <point x="311" y="727" type="curve" smooth="yes"/>
      <point x="292.488" y="734"/>
      <point x="267.244" y="737"/>
      <point x="242" y="737" type="curve" smooth="yes"/>
      <point x="204.742" y="737"/>
      <point x="165.79" y="731"/>
      <point x="137" y="725" type="curve" smooth="yes"/>
      <point x="128" y="722"/>
      <point x="124" y="714"/>
      <point x="124" y="706" type="curve" smooth="yes"/>
      <point x="124" y="698"/>
      <point x="128" y="690"/>
      <point x="137" y="690" type="curve" smooth="yes"/>
      <point x="159.345" y="690"/>
      <point x="184.173" y="695"/>
      <point x="209" y="696" type="curve"/>
      <point x="209" y="696"/>
      <point x="209" y="695"/>
      <point x="209" y="694" type="curve" smooth="yes"/>
      <point x="215" y="604"/>
      <point x="219" y="515"/>
      <point x="219" y="425" type="curve" smooth="yes"/>
      <point x="219" y="337"/>
      <point x="216" y="254"/>
      <point x="207" y="170" type="curve" smooth="yes"/>
      <point x="202" y="130"/>
      <point x="195" y="98"/>
      <point x="174" y="61" type="curve" smooth="yes"/>
      <point x="157" y="30"/>
      <point x="138" y="18"/>
      <point x="119" y="18" type="curve" smooth="yes"/>
      <point x="81" y="18"/>
      <point x="47" y="69"/>
    </contour>
  </outline>
</glyph>
<glyph name="K" format="1">
  <advance width="400"/>
  <unicode hex="004B"/>
  <outline>
    <contour>
      <point x="54" y="202" type="qcurve" smooth="yes"/>
      <point x="35" y="79"/>
      <point x="35" y="15" type="qcurve" smooth="yes"/>
      <point x="35" y="-3"/>
      <point x="58" y="-3" type="qcurve" smooth="yes"/>
      <point x="72" y="-3"/>
      <point x="76" y="21"/>
      <point x="88" y="96" type="qcurve" smooth="yes"/>
      <point x="109" y="219"/>
      <point x="110" y="292" type="qcurve"/>
      <point x="134" y="308"/>
      <point x="154" y="344" type="qcurve"/>
      <point x="176" y="298"/>
      <point x="209" y="240" type="qcurve" smooth="yes"/>
      <point x="290" y="90"/>
      <point x="318" y="7" type="qcurve" smooth="yes"/>
      <point x="322" y="-5"/>
      <point x="335" y="-5" type="qcurve" smooth="yes"/>
      <point x="344" y="-5"/>
      <point x="360" y="8"/>
      <point x="360" y="17" type="qcurve" smooth="yes"/>
      <point x="360" y="18"/>
      <point x="358" y="26" type="qcurve" smooth="yes"/>
      <point x="263" y="243"/>
      <point x="172" y="376" type="qcurve"/>
      <point x="180" y="390"/>
      <point x="218" y="456" type="qcurve" smooth="yes"/>
      <point x="275" y="556"/>
      <point x="309" y="625" type="qcurve" smooth="yes"/>
      <point x="337" y="683"/>
      <point x="350" y="717" type="qcurve" smooth="yes"/>
      <point x="351" y="718"/>
      <point x="351" y="721" type="qcurve" smooth="yes"/>
      <point x="351" y="733"/>
      <point x="338" y="733" type="qcurve" smooth="yes"/>
      <point x="332" y="733"/>
      <point x="329" y="728" type="qcurve" smooth="yes"/>
      <point x="314" y="702"/>
      <point x="273" y="629" type="qcurve" smooth="yes"/>
      <point x="245" y="579"/>
      <point x="185" y="474" type="qcurve" smooth="yes"/>
      <point x="145" y="405"/>
      <point x="133" y="389" type="qcurve" smooth="yes"/>
      <point x="112" y="350" type="line"/>
      <point x="112" y="401" type="line" smooth="yes"/>
      <point x="112" y="563"/>
      <point x="91" y="725" type="qcurve" smooth="yes"/>
      <point x="91" y="730"/>
      <point x="81" y="730" type="qcurve" smooth="yes"/>
      <point x="64" y="730"/>
      <point x="64" y="722" type="qcurve" smooth="yes"/>
      <point x="64" y="694" type="line" smooth="yes"/>
      <point x="64" y="635"/>
      <point x="72" y="453"/>
      <point x="72" y="392" type="qcurve" smooth="yes"/>
      <point x="72" y="326"/>
    </contour>
  </outline>
</glyph>
<glyph name="L" format="1">
  <advance width="326"/>
  <unicode hex="004C"/>
  <outline>
    <contour>
      <point x="68" y="735" type="line" smooth="yes"/>
      <point x="63" y="498"/>
      <point x="24" y="261"/>
      <point x="30" y="23" type="curve" smooth="yes"/>
      <point x="30" y="12"/>
      <point x="37" y="-1"/>
      <point x="49" y="-1" type="curve" smooth="yes"/>
      <point x="125" y="0"/>
      <point x="201" y="-2"/>
      <point x="275" y="3" type="curve" smooth="yes"/>
      <point x="299" y="4"/>
      <point x="293" y="41"/>
      <point x="269" y="39" type="curve" smooth="yes"/>
      <point x="243" y="36"/>
      <point x="74" y="9"/>
      <point x="72" y="74" type="curve" smooth="yes"/>
      <point x="71" y="148"/>
      <point x="76" y="222"/>
      <point x="81" y="296" type="curve" smooth="yes"/>
      <point x="90" y="443"/>
      <point x="105" y="589"/>
      <point x="95" y="736" type="curve" smooth="yes"/>
      <point x="94" y="753"/>
      <point x="68" y="751"/>
      <point x="68" y="735" type="curve" smooth="yes"/>
    </contour>
  </outline>
</glyph>
<glyph name="M" format="1">
  <advance width="492"/>
  <unicode hex="004D"/>
  <outline>
    <contour>
      <point x="404" y="739" type="qcurve" smooth="yes"/>
      <point x="395" y="739"/>
      <point x="390" y="731" type="qcurve" smooth="yes"/>
      <point x="299" y="536"/>
      <point x="259" y="366" type="qcurve"/>
      <point x="259" y="367"/>
      <point x="256" y="377"/>
      <point x="249" y="397"/>
      <point x="246" y="408" type="qcurve" smooth="yes"/>
      <point x="232" y="451"/>
      <point x="232" y="453"/>
      <point x="219" y="490"/>
      <point x="206" y="525"/>
      <point x="202" y="532" type="qcurve" smooth="yes"/>
      <point x="199" y="538"/>
      <point x="184" y="569" type="qcurve" smooth="yes"/>
      <point x="170" y="599"/>
      <point x="134" y="649" type="qcurve" smooth="yes"/>
      <point x="116" y="674"/>
      <point x="100" y="691" type="qcurve" smooth="yes"/>
      <point x="99" y="692" type="line" smooth="yes"/>
      <point x="98" y="694"/>
      <point x="94" y="700"/>
      <point x="92" y="703" type="qcurve" smooth="yes"/>
      <point x="87" y="710"/>
      <point x="77" y="722" type="qcurve" smooth="yes"/>
      <point x="69" y="730"/>
      <point x="68" y="730" type="qcurve" smooth="yes"/>
      <point x="56" y="730"/>
      <point x="58" y="706" type="qcurve" smooth="yes"/>
      <point x="69" y="448"/>
      <point x="69" y="53" type="qcurve" smooth="yes"/>
      <point x="69" y="15" type="line" smooth="yes"/>
      <point x="69" y="9"/>
      <point x="80" y="-2"/>
      <point x="88" y="-2" type="qcurve" smooth="yes"/>
      <point x="107" y="-2"/>
      <point x="107" y="9" type="qcurve" smooth="yes"/>
      <point x="107" y="440"/>
      <point x="92" y="653" type="qcurve"/>
      <point x="127" y="611"/>
      <point x="154" y="558" type="qcurve" smooth="yes"/>
      <point x="186" y="491"/>
      <point x="198" y="456" type="qcurve" smooth="yes"/>
      <point x="215" y="407" type="line" smooth="yes"/>
      <point x="216" y="402"/>
      <point x="233" y="349" type="qcurve" smooth="yes"/>
      <point x="243" y="317"/>
      <point x="250" y="296" type="qcurve" smooth="yes"/>
      <point x="254" y="281"/>
      <point x="271" y="281" type="qcurve" smooth="yes"/>
      <point x="287" y="281"/>
      <point x="287" y="297" type="qcurve" smooth="yes"/>
      <point x="288" y="348"/>
      <point x="320" y="478"/>
      <point x="337" y="522" type="qcurve" smooth="yes"/>
      <point x="350" y="556"/>
      <point x="388" y="648" type="qcurve"/>
      <point x="392" y="460"/>
      <point x="392" y="15" type="qcurve" smooth="yes"/>
      <point x="392" y="6"/>
      <point x="407" y="-5"/>
      <point x="417" y="-5" type="qcurve" smooth="yes"/>
      <point x="435" y="-5"/>
      <point x="435" y="13" type="qcurve" smooth="yes"/>
      <point x="435" y="28" type="line"/>
      <point x="423" y="241"/>
      <point x="423" y="718" type="qcurve" smooth="yes"/>
      <point x="423" y="727"/>
      <point x="411" y="739"/>
    </contour>
  </outline>
</glyph>
<glyph name="N" format="1">
  <advance width="448"/>
  <unicode hex="004E"/>
  <outline>
    <contour>
      <point x="359" y="727" type="curve" smooth="yes"/>
      <point x="354.42" y="741.143"/>
      <point x="335" y="734"/>
      <point x="337" y="720" type="curve" smooth="yes"/>
      <point x="364" y="514"/>
      <point x="361" y="314"/>
      <point x="333" y="111" type="curve"/>
      <point x="261" y="307"/>
      <point x="194" y="512"/>
      <point x="103" y="700" type="curve"/>
      <point x="102" y="708"/>
      <point x="102" y="716"/>
      <point x="102" y="724" type="curve" smooth="yes"/>
      <point x="101" y="738"/>
      <point x="79" y="737"/>
      <point x="78" y="723" type="curve" smooth="yes"/>
      <point x="69" y="482"/>
      <point x="80" y="241"/>
      <point x="53" y="0" type="curve" smooth="yes"/>
      <point x="50" y="-21"/>
      <point x="83" y="-24"/>
      <point x="86" y="-3" type="curve" smooth="yes"/>
      <point x="111" y="192"/>
      <point x="113" y="390"/>
      <point x="107" y="587" type="curve"/>
      <point x="161" y="398"/>
      <point x="250" y="213"/>
      <point x="320" y="31" type="curve" smooth="yes"/>
      <point x="320" y="31" type="line"/>
      <point x="319" y="28"/>
      <point x="319" y="24"/>
      <point x="318" y="21" type="curve" smooth="yes"/>
      <point x="314" y="-1"/>
      <point x="353.057" y="-9.48145"/>
      <point x="357" y="12" type="curve" smooth="yes"/>
      <point x="395" y="219"/>
      <point x="426" y="520.119"/>
    </contour>
  </outline>
</glyph>
<glyph name="O" format="1">
  <advance width="399"/>
  <unicode hex="004F"/>
  <outline>
    <contour>
      <point x="75" y="695" type="curve" smooth="yes"/>
      <point x="66" y="688"/>
      <point x="68" y="676"/>
      <point x="74" y="669" type="curve"/>
      <point x="39" y="611"/>
      <point x="22" y="509"/>
      <point x="22" y="402" type="curve" smooth="yes"/>
      <point x="22" y="208"/>
      <point x="78" y="-8"/>
      <point x="185" y="-8" type="curve" smooth="yes"/>
      <point x="332.035" y="-8"/>
      <point x="383" y="231.895"/>
      <point x="383" y="393" type="curve" smooth="yes"/>
      <point x="383" y="571"/>
      <point x="324" y="741"/>
      <point x="199" y="741" type="curve" smooth="yes"/>
      <point x="163" y="741"/>
      <point x="122" y="727"/>
    </contour>
    <contour>
      <point x="196" y="22" type="curve" smooth="yes"/>
      <point x="119" y="22"/>
      <point x="76" y="228"/>
      <point x="70" y="289" type="curve" smooth="yes"/>
      <point x="65" y="329"/>
      <point x="62" y="375"/>
      <point x="62" y="422" type="curve" smooth="yes"/>
      <point x="62" y="510"/>
      <point x="74" y="604"/>
      <point x="111" y="674" type="curve"/>
      <point x="146" y="692"/>
      <point x="176" y="700"/>
      <point x="202" y="700" type="curve" smooth="yes"/>
      <point x="306" y="700"/>
      <point x="344" y="569"/>
      <point x="344" y="424" type="curve" smooth="yes"/>
      <point x="344" y="272.934"/>
      <point x="306.259" y="22"/>
    </contour>
  </outline>
</glyph>
<glyph name="P" format="1">
  <advance width="341"/>
  <unicode hex="0050"/>
  <outline>
    <contour>
      <point x="314" y="607" type="curve" smooth="yes"/>
      <point x="294" y="713"/>
      <point x="187" y="734"/>
      <point x="92" y="734" type="curve" smooth="yes"/>
      <point x="71" y="734"/>
      <point x="51" y="733"/>
      <point x="32" y="732" type="curve" smooth="yes"/>
      <point x="22" y="731"/>
      <point x="17" y="723"/>
      <point x="17" y="715" type="curve" smooth="yes"/>
      <point x="17" y="706"/>
      <point x="23" y="697"/>
      <point x="34" y="696" type="curve" smooth="yes"/>
      <point x="39" y="696"/>
      <point x="45" y="696"/>
      <point x="51" y="695" type="curve"/>
      <point x="51" y="683"/>
      <point x="50" y="670"/>
      <point x="50" y="658" type="curve" smooth="yes"/>
      <point x="50" y="571"/>
      <point x="59" y="484"/>
      <point x="67" y="396" type="curve"/>
      <point x="59" y="392"/>
      <point x="55" y="383"/>
      <point x="55" y="375" type="curve" smooth="yes"/>
      <point x="55" y="366"/>
      <point x="60" y="358"/>
      <point x="70" y="356" type="curve"/>
      <point x="72" y="319"/>
      <point x="74" y="281"/>
      <point x="74" y="244" type="curve" smooth="yes"/>
      <point x="74" y="170"/>
      <point x="68" y="97"/>
      <point x="47" y="25" type="curve" smooth="yes"/>
      <point x="46" y="23"/>
      <point x="46" y="21"/>
      <point x="46" y="19" type="curve" smooth="yes"/>
      <point x="46" y="7"/>
      <point x="57" y="-2"/>
      <point x="68" y="-2" type="curve" smooth="yes"/>
      <point x="75" y="-2"/>
      <point x="82" y="2"/>
      <point x="85" y="11" type="curve" smooth="yes"/>
      <point x="109" y="93"/>
      <point x="117" y="178"/>
      <point x="117" y="265" type="curve" smooth="yes"/>
      <point x="117" y="295"/>
      <point x="116" y="325"/>
      <point x="114" y="356" type="curve"/>
      <point x="231" y="366"/>
      <point x="318" y="443"/>
      <point x="318" y="562" type="curve" smooth="yes"/>
      <point x="318" y="577"/>
      <point x="317" y="591"/>
    </contour>
    <contour>
      <point x="111" y="397" type="curve"/>
      <point x="103" y="498"/>
      <point x="91" y="597"/>
      <point x="82" y="695" type="curve"/>
      <point x="84" y="695"/>
      <point x="87" y="695"/>
      <point x="89" y="695" type="curve" smooth="yes"/>
      <point x="152" y="695"/>
      <point x="219" y="694"/>
      <point x="260" y="643" type="curve" smooth="yes"/>
      <point x="277" y="621"/>
      <point x="285" y="592"/>
      <point x="285" y="563" type="curve" smooth="yes"/>
      <point x="285" y="527"/>
      <point x="274" y="489"/>
      <point x="256" y="463" type="curve" smooth="yes"/>
      <point x="225" y="415"/>
      <point x="166" y="399"/>
    </contour>
  </outline>
</glyph>
<glyph name="Q" format="1">
  <advance width="376"/>
  <unicode hex="0051"/>
  <outline>
    <contour>
      <point x="324" y="-24" type="curve" smooth="yes"/>
      <point x="307" y="-23"/>
      <point x="292" y="-23"/>
      <point x="276" y="-24" type="curve"/>
      <point x="271" y="-9"/>
      <point x="267" y="6"/>
      <point x="261" y="24" type="curve"/>
      <point x="345" y="130"/>
      <point x="347" y="512"/>
      <point x="335" y="591" type="curve" smooth="yes"/>
      <point x="312" y="748"/>
      <point x="109" y="791"/>
      <point x="46" y="636" type="curve" smooth="yes"/>
      <point x="40" y="620"/>
      <point x="60" y="611"/>
      <point x="71" y="623" type="curve"/>
      <point x="75" y="630"/>
      <point x="79" y="636"/>
      <point x="84" y="642" type="curve"/>
      <point x="14" y="457"/>
      <point x="-22" y="-10"/>
      <point x="214" y="-3" type="curve" smooth="yes"/>
      <point x="220" y="-3"/>
      <point x="224" y="-2"/>
      <point x="230" y="0" type="curve"/>
      <point x="235" y="-17"/>
      <point x="240" y="-34"/>
      <point x="247" y="-50" type="curve" smooth="yes"/>
      <point x="250" y="-56"/>
      <point x="256" y="-61"/>
      <point x="262" y="-61" type="curve" smooth="yes"/>
      <point x="284" y="-61"/>
      <point x="305" y="-62"/>
      <point x="326" y="-60" type="curve" smooth="yes"/>
      <point x="347" y="-59"/>
      <point x="345" y="-25"/>
    </contour>
    <contour>
      <point x="218" y="32" type="curve" smooth="yes"/>
      <point x="159" y="30"/>
      <point x="127" y="84"/>
      <point x="108" y="131" type="curve" smooth="yes"/>
      <point x="46" y="279"/>
      <point x="61" y="531"/>
      <point x="131" y="675" type="curve" smooth="yes"/>
      <point x="132" y="676"/>
      <point x="132" y="677"/>
      <point x="132" y="678" type="curve"/>
      <point x="164" y="692"/>
      <point x="202" y="691"/>
      <point x="247" y="675" type="curve"/>
      <point x="309" y="642"/>
      <point x="299" y="549"/>
      <point x="296" y="494" type="curve" smooth="yes"/>
      <point x="292" y="423"/>
      <point x="294" y="351"/>
      <point x="288" y="281" type="curve" smooth="yes"/>
      <point x="286" y="250"/>
      <point x="275" y="122"/>
      <point x="248" y="63" type="curve"/>
      <point x="231" y="105"/>
      <point x="206" y="137"/>
      <point x="161" y="116" type="curve" smooth="yes"/>
      <point x="150" y="111"/>
      <point x="152" y="91"/>
      <point x="165" y="91" type="curve" smooth="yes"/>
      <point x="198" y="92"/>
      <point x="208" y="71"/>
      <point x="217" y="43" type="curve" smooth="yes"/>
      <point x="219" y="40"/>
      <point x="220" y="36"/>
      <point x="221" y="33" type="curve"/>
      <point x="220" y="32"/>
      <point x="219" y="32"/>
    </contour>
  </outline>
</glyph>
<glyph name="R" format="1">
  <advance width="343"/>
  <unicode hex="0052"/>
  <outline>
    <contour>
      <point x="35" y="728" type="curve"/>
      <point x="26" y="728"/>
      <point x="24" y="713"/>
      <point x="31" y="708" type="curve"/>
      <point x="30" y="682"/>
      <point x="30" y="657"/>
      <point x="30" y="631" type="curve" smooth="yes"/>
      <point x="30" y="474"/>
      <point x="39" y="306"/>
      <point x="39" y="149" type="curve" smooth="yes"/>
      <point x="39" y="106"/>
      <point x="37" y="64"/>
      <point x="37" y="21" type="curve" smooth="yes"/>
      <point x="37" y="8"/>
      <point x="48" y="1"/>
      <point x="58" y="1" type="curve" smooth="yes"/>
      <point x="68" y="1"/>
      <point x="77" y="7"/>
      <point x="77" y="19" type="curve" smooth="yes"/>
      <point x="79" y="71"/>
      <point x="79" y="123"/>
      <point x="79" y="175" type="curve" smooth="yes"/>
      <point x="79" y="217"/>
      <point x="79" y="260"/>
      <point x="78" y="303" type="curve"/>
      <point x="79" y="303"/>
      <point x="80" y="303"/>
      <point x="81" y="303" type="curve" smooth="yes"/>
      <point x="107" y="306"/>
      <point x="131" y="311"/>
      <point x="154" y="320" type="curve"/>
      <point x="170" y="314"/>
      <point x="182" y="303"/>
      <point x="193" y="283" type="curve" smooth="yes"/>
      <point x="209" y="250"/>
      <point x="210" y="207"/>
      <point x="213" y="170" type="curve" smooth="yes"/>
      <point x="217" y="112.102"/>
      <point x="217" y="43.7627"/>
      <point x="267" y="2" type="curve" smooth="yes"/>
      <point x="271" y="-2"/>
      <point x="276" y="-4"/>
      <point x="280" y="-4" type="curve" smooth="yes"/>
      <point x="291" y="-4"/>
      <point x="299" y="7"/>
      <point x="299" y="19" type="curve" smooth="yes"/>
      <point x="299" y="25"/>
      <point x="297" y="32"/>
      <point x="291" y="37" type="curve" smooth="yes"/>
      <point x="236" y="84.1548"/>
      <point x="258" y="204.448"/>
      <point x="242" y="267" type="curve" smooth="yes"/>
      <point x="234" y="299"/>
      <point x="218" y="325"/>
      <point x="197" y="342" type="curve"/>
      <point x="258" y="380"/>
      <point x="295" y="455"/>
      <point x="295" y="540" type="curve" smooth="yes"/>
      <point x="295" y="653"/>
      <point x="206" y="744"/>
      <point x="104" y="744" type="curve" smooth="yes"/>
      <point x="84" y="744"/>
      <point x="65" y="741"/>
      <point x="45" y="733" type="curve"/>
      <point x="41" y="733"/>
      <point x="37" y="731"/>
    </contour>
    <contour>
      <point x="134" y="362" type="curve" smooth="yes"/>
      <point x="125" y="362"/>
      <point x="83" y="358"/>
      <point x="87" y="343" type="curve"/>
      <point x="84" y="343"/>
      <point x="82" y="343"/>
      <point x="79" y="343" type="curve" smooth="yes"/>
      <point x="78" y="344"/>
      <point x="77" y="344"/>
      <point x="77" y="344" type="curve"/>
      <point x="73" y="461"/>
      <point x="67" y="590"/>
      <point x="63" y="708" type="curve"/>
      <point x="161" y="707"/>
      <point x="238" y="680"/>
      <point x="258" y="565" type="curve" smooth="yes"/>
      <point x="260" y="554"/>
      <point x="261" y="543"/>
      <point x="261" y="532" type="curve" smooth="yes"/>
      <point x="261" y="462"/>
      <point x="221" y="387"/>
      <point x="160" y="359" type="curve"/>
      <point x="152" y="361"/>
      <point x="143" y="362"/>
    </contour>
  </outline>
</glyph>
<glyph name="S" format="1">
  <advance width="373"/>
  <unicode hex="0053"/>
  <outline>
    <contour>
      <point x="93" y="589" type="curve" smooth="yes"/>
      <point x="93" y="644"/>
      <point x="127" y="698"/>
      <point x="192" y="698" type="curve" smooth="yes"/>
      <point x="244" y="698"/>
      <point x="282" y="666"/>
      <point x="311" y="632" type="curve" smooth="yes"/>
      <point x="315" y="627"/>
      <point x="321" y="625"/>
      <point x="326" y="625" type="curve" smooth="yes"/>
      <point x="337" y="625"/>
      <point x="347" y="634"/>
      <point x="347" y="645" type="curve" smooth="yes"/>
      <point x="347" y="648"/>
      <point x="347" y="651"/>
      <point x="345" y="654" type="curve" smooth="yes"/>
      <point x="317" y="715"/>
      <point x="260" y="743"/>
      <point x="204" y="743" type="curve" smooth="yes"/>
      <point x="124" y="743"/>
      <point x="45" y="688"/>
      <point x="45" y="594" type="curve" smooth="yes"/>
      <point x="45" y="587"/>
      <point x="45" y="580"/>
      <point x="46" y="573" type="curve" smooth="yes"/>
      <point x="59" y="469"/>
      <point x="137" y="387"/>
      <point x="199" y="308" type="curve" smooth="yes"/>
      <point x="232" y="264"/>
      <point x="299" y="206"/>
      <point x="299" y="150" type="curve" smooth="yes"/>
      <point x="299" y="68.3098"/>
      <point x="244.424" y="30"/>
      <point x="183" y="30" type="curve" smooth="yes"/>
      <point x="130" y="30"/>
      <point x="74" y="93"/>
      <point x="38" y="155" type="curve" smooth="yes"/>
      <point x="33.6807" y="162.439"/>
      <point x="24.0059" y="160.822"/>
      <point x="16" y="155" type="curve" smooth="yes"/>
      <point x="5" y="147"/>
      <point x="10.9668" y="135.983"/>
      <point x="12" y="134" type="curve" smooth="yes"/>
      <point x="49" y="63"/>
      <point x="92" y="-9"/>
      <point x="176" y="-9" type="curve" smooth="yes"/>
      <point x="177" y="-9"/>
      <point x="177" y="-9"/>
      <point x="178" y="-9" type="curve" smooth="yes"/>
      <point x="264.032" y="-9"/>
      <point x="341" y="45.4477"/>
      <point x="341" y="150" type="curve" smooth="yes"/>
      <point x="341" y="233"/>
      <point x="255" y="307"/>
      <point x="203" y="374" type="curve" smooth="yes"/>
      <point x="160" y="429"/>
      <point x="114" y="490"/>
      <point x="96" y="559" type="curve" smooth="yes"/>
      <point x="94" y="569"/>
      <point x="93" y="579"/>
    </contour>
  </outline>
</glyph>
<glyph name="T" format="1">
  <advance width="345"/>
  <unicode hex="0054"/>
  <outline>
    <contour>
      <point x="304" y="730" type="curve" smooth="yes"/>
      <point x="260" y="730"/>
      <point x="215" y="733"/>
      <point x="171" y="733" type="curve" smooth="yes"/>
      <point x="127" y="733"/>
      <point x="83" y="730"/>
      <point x="39" y="720" type="curve" smooth="yes"/>
      <point x="29" y="718"/>
      <point x="24" y="709"/>
      <point x="24" y="701" type="curve" smooth="yes"/>
      <point x="24" y="691"/>
      <point x="30" y="681"/>
      <point x="41" y="681" type="curve" smooth="yes"/>
      <point x="43" y="681"/>
      <point x="44" y="682"/>
      <point x="46" y="682" type="curve" smooth="yes"/>
      <point x="90" y="692"/>
      <point x="135" y="694"/>
      <point x="181" y="694" type="curve"/>
      <point x="181" y="693"/>
      <point x="180" y="693"/>
      <point x="180" y="692" type="curve" smooth="yes"/>
      <point x="164" y="469"/>
      <point x="142" y="233"/>
      <point x="142" y="10" type="curve" smooth="yes"/>
      <point x="142" y="-1"/>
      <point x="151" y="-6"/>
      <point x="161" y="-6" type="curve" smooth="yes"/>
      <point x="171" y="-6"/>
      <point x="180" y="-1"/>
      <point x="183" y="10" type="curve" smooth="yes"/>
      <point x="210" y="131"/>
      <point x="219" y="256"/>
      <point x="219" y="381" type="curve" smooth="yes"/>
      <point x="219" y="485"/>
      <point x="213" y="590"/>
      <point x="204" y="693" type="curve"/>
      <point x="204" y="694" type="line"/>
      <point x="236" y="694"/>
      <point x="269" y="693"/>
      <point x="301" y="693" type="curve" smooth="yes"/>
      <point x="313" y="693"/>
      <point x="320" y="703"/>
      <point x="320" y="713" type="curve" smooth="yes"/>
      <point x="320" y="721"/>
      <point x="315" y="729"/>
    </contour>
  </outline>
</glyph>
<glyph name="U" format="1">
  <advance width="395"/>
  <unicode hex="0055"/>
  <outline>
    <contour>
      <point x="47" y="425" type="curve"/>
      <point x="47" y="425"/>
      <point x="29" y="0"/>
      <point x="206" y="0" type="curve" smooth="yes"/>
      <point x="349" y="0"/>
      <point x="332" y="275"/>
      <point x="332" y="275" type="curve"/>
      <point x="332" y="275"/>
      <point x="340" y="412"/>
      <point x="340" y="489" type="curve" smooth="yes"/>
      <point x="340" y="571"/>
      <point x="335.021" y="655.853"/>
      <point x="325" y="726" type="curve" smooth="yes"/>
      <point x="324" y="733"/>
      <point x="318" y="737"/>
      <point x="311" y="737" type="curve" smooth="yes"/>
      <point x="302" y="737"/>
      <point x="291" y="730"/>
      <point x="291" y="720" type="curve" smooth="yes"/>
      <point x="291" y="710"/>
      <point x="290" y="700"/>
      <point x="290" y="690" type="curve" smooth="yes"/>
      <point x="290" y="610"/>
      <point x="302" y="530"/>
      <point x="302" y="450" type="curve" smooth="yes"/>
      <point x="302" y="428"/>
      <point x="302" y="410"/>
      <point x="302" y="385" type="curve" smooth="yes"/>
      <point x="302" y="378"/>
      <point x="302" y="371"/>
      <point x="302" y="364" type="curve" smooth="yes"/>
      <point x="302" y="234"/>
      <point x="291" y="29"/>
      <point x="206" y="29" type="curve" smooth="yes"/>
      <point x="96" y="29"/>
      <point x="89" y="292"/>
      <point x="89" y="389" type="curve" smooth="yes"/>
      <point x="89" y="403"/>
      <point x="89" y="414"/>
      <point x="89" y="420" type="curve" smooth="yes"/>
      <point x="89" y="428"/>
      <point x="89" y="435"/>
      <point x="89" y="443" type="curve" smooth="yes"/>
      <point x="89" y="503"/>
      <point x="96" y="566"/>
      <point x="96" y="627" type="curve" smooth="yes"/>
      <point x="96" y="659"/>
      <point x="92.3267" y="689.713"/>
      <point x="88" y="720" type="curve" smooth="yes"/>
      <point x="87" y="727"/>
      <point x="81" y="731"/>
      <point x="75" y="731" type="curve" smooth="yes"/>
      <point x="69" y="731"/>
      <point x="63.7138" y="727.031"/>
      <point x="63" y="719" type="curve" smooth="yes"/>
      <point x="59" y="674"/>
      <point x="47" y="554"/>
    </contour>
  </outline>
</glyph>
<glyph name="V" format="1">
  <advance width="430"/>
  <unicode hex="0056"/>
  <outline>
    <contour>
      <point x="360" y="728" type="curve" smooth="yes"/>
      <point x="285" y="528"/>
      <point x="258" y="317"/>
      <point x="206" y="112" type="curve"/>
      <point x="160" y="324"/>
      <point x="117" y="535"/>
      <point x="71" y="746" type="curve" smooth="yes"/>
      <point x="66" y="770"/>
      <point x="31" y="764"/>
      <point x="34" y="740" type="curve" smooth="yes"/>
      <point x="72" y="496"/>
      <point x="127" y="254"/>
      <point x="182" y="13" type="curve" smooth="yes"/>
      <point x="186" y="-6"/>
      <point x="219" y="-13"/>
      <point x="225" y="10" type="curve" smooth="yes"/>
      <point x="284" y="245"/>
      <point x="309" y="487"/>
      <point x="394" y="715" type="curve" smooth="yes"/>
      <point x="403" y="737"/>
      <point x="369" y="751"/>
    </contour>
  </outline>
</glyph>
<glyph name="W" format="1">
  <advance width="537"/>
  <unicode hex="0057"/>
  <outline>
    <contour>
      <point x="468" y="721" type="curve" smooth="yes"/>
      <point x="428" y="550"/>
      <point x="407" y="337"/>
      <point x="367" y="152" type="curve"/>
      <point x="357" y="361"/>
      <point x="338" y="720"/>
      <point x="234" y="720" type="curve" smooth="yes"/>
      <point x="220" y="720"/>
      <point x="213" y="708"/>
      <point x="221" y="697" type="curve" smooth="yes"/>
      <point x="288" y="613"/>
      <point x="289" y="478"/>
      <point x="299" y="375" type="curve"/>
      <point x="299" y="375"/>
      <point x="300" y="374"/>
      <point x="300" y="373" type="curve"/>
      <point x="299" y="373"/>
      <point x="299" y="373"/>
      <point x="298" y="373" type="curve" smooth="yes"/>
      <point x="289" y="373"/>
      <point x="279" y="368"/>
      <point x="278" y="356" type="curve" smooth="yes"/>
      <point x="265" y="258"/>
      <point x="239" y="168"/>
      <point x="208" y="75" type="curve"/>
      <point x="178" y="311"/>
      <point x="142" y="516"/>
      <point x="67" y="727" type="curve" smooth="yes"/>
      <point x="64" y="734"/>
      <point x="59" y="737"/>
      <point x="53" y="737" type="curve" smooth="yes"/>
      <point x="45" y="737"/>
      <point x="37" y="731"/>
      <point x="37" y="722" type="curve" smooth="yes"/>
      <point x="37" y="721"/>
      <point x="38" y="720"/>
      <point x="38" y="718" type="curve" smooth="yes"/>
      <point x="110" y="486"/>
      <point x="144" y="246"/>
      <point x="175" y="5" type="curve" smooth="yes"/>
      <point x="176" y="-3"/>
      <point x="183" y="-12"/>
      <point x="193" y="-12" type="curve" smooth="yes"/>
      <point x="198" y="-12"/>
      <point x="204" y="-12"/>
      <point x="209" y="-11" type="curve" smooth="yes"/>
      <point x="216" y="-11"/>
      <point x="223" y="-5"/>
      <point x="225" y="2" type="curve" smooth="yes"/>
      <point x="255" y="99"/>
      <point x="288" y="192"/>
      <point x="307" y="291" type="curve"/>
      <point x="314" y="197"/>
      <point x="317" y="103"/>
      <point x="332" y="10" type="curve" smooth="yes"/>
      <point x="334" y="-1"/>
      <point x="345" y="-7"/>
      <point x="355" y="-7" type="curve" smooth="yes"/>
      <point x="364" y="-7"/>
      <point x="372" y="-3"/>
      <point x="374" y="7" type="curve" smooth="yes"/>
      <point x="429" y="218"/>
      <point x="453" y="496"/>
      <point x="504" y="708" type="curve" smooth="yes"/>
      <point x="504" y="710"/>
      <point x="505" y="711"/>
      <point x="505" y="713" type="curve" smooth="yes"/>
      <point x="505" y="725"/>
      <point x="494" y="734"/>
      <point x="484" y="734" type="curve" smooth="yes"/>
      <point x="477" y="734"/>
      <point x="470" y="730"/>
    </contour>
  </outline>
</glyph>
<glyph name="X" format="1">
  <advance width="369"/>
  <unicode hex="0058"/>
  <outline>
    <contour>
      <point x="296" y="724" type="curve" smooth="yes"/>
      <point x="249.795" y="632"/>
      <point x="215.645" y="550.354"/>
      <point x="190" y="450" type="curve"/>
      <point x="167.651" y="550.08"/>
      <point x="147.593" y="656.407"/>
      <point x="74" y="730" type="curve" smooth="yes"/>
      <point x="70" y="734"/>
      <point x="65" y="736"/>
      <point x="61" y="736" type="curve" smooth="yes"/>
      <point x="52" y="736"/>
      <point x="45" y="729"/>
      <point x="45" y="719" type="curve" smooth="yes"/>
      <point x="45" y="716"/>
      <point x="45.5449" y="711.738"/>
      <point x="48" y="708" type="curve" smooth="yes"/>
      <point x="113.89" y="607.678"/>
      <point x="140.037" y="495.862"/>
      <point x="162" y="383" type="curve"/>
      <point x="123.377" y="256.814"/>
      <point x="81.6902" y="132.071"/>
      <point x="43" y="16" type="curve" smooth="yes"/>
      <point x="42" y="13"/>
      <point x="41" y="10"/>
      <point x="41" y="8" type="curve" smooth="yes"/>
      <point x="41" y="-2"/>
      <point x="51" y="-9"/>
      <point x="61" y="-9" type="curve" smooth="yes"/>
      <point x="68" y="-9"/>
      <point x="76.2125" y="-5.56503"/>
      <point x="79" y="2" type="curve" smooth="yes"/>
      <point x="117.228" y="105.745"/>
      <point x="150.554" y="213.152"/>
      <point x="178" y="323" type="curve"/>
      <point x="203.151" y="216.212"/>
      <point x="239.534" y="123.463"/>
      <point x="286" y="10" type="curve" smooth="yes"/>
      <point x="289.39" y="1.72291"/>
      <point x="298" y="-2"/>
      <point x="305" y="-2" type="curve" smooth="yes"/>
      <point x="317" y="-2"/>
      <point x="329" y="6"/>
      <point x="329" y="19" type="curve" smooth="yes"/>
      <point x="329" y="22"/>
      <point x="328.618" y="25.7778"/>
      <point x="327" y="29" type="curve" smooth="yes"/>
      <point x="273.779" y="135"/>
      <point x="232.605" y="255.246"/>
      <point x="204" y="371" type="curve"/>
      <point x="245.333" y="485.249"/>
      <point x="264" y="601"/>
      <point x="328" y="710" type="curve" smooth="yes"/>
      <point x="337.427" y="726.056"/>
      <point x="304.958" y="741.836"/>
    </contour>
  </outline>
</glyph>
<glyph name="Y" format="1">
  <advance width="399"/>
  <unicode hex="0059"/>
  <outline>
    <contour>
      <point x="204" y="319" type="curve" smooth="yes"/>
      <point x="241" y="467"/>
      <point x="327" y="593"/>
      <point x="375" y="735" type="curve" smooth="yes"/>
      <point x="379" y="748"/>
      <point x="360" y="759"/>
      <point x="354" y="746" type="curve" smooth="yes"/>
      <point x="295" y="635"/>
      <point x="228" y="523"/>
      <point x="185" y="403" type="curve"/>
      <point x="166" y="521"/>
      <point x="111" y="643"/>
      <point x="66" y="749" type="curve" smooth="yes"/>
      <point x="55" y="774"/>
      <point x="17" y="756"/>
      <point x="28" y="731" type="curve" smooth="yes"/>
      <point x="79" y="603"/>
      <point x="104" y="466"/>
      <point x="157" y="341" type="curve" smooth="yes"/>
      <point x="158" y="339"/>
      <point x="159" y="338"/>
      <point x="160" y="336" type="curve"/>
      <point x="158" y="334"/>
      <point x="156" y="330"/>
      <point x="157" y="325" type="curve" smooth="yes"/>
      <point x="166" y="270"/>
      <point x="174" y="218"/>
      <point x="175" y="162" type="curve" smooth="yes"/>
      <point x="175" y="112"/>
      <point x="160" y="61"/>
      <point x="162" y="12" type="curve" smooth="yes"/>
      <point x="162" y="-5"/>
      <point x="185" y="-19"/>
      <point x="196" y="-1" type="curve" smooth="yes"/>
      <point x="222" y="43"/>
      <point x="216" y="110"/>
      <point x="216" y="158" type="curve" smooth="yes"/>
      <point x="215" y="206"/>
      <point x="214" y="262"/>
      <point x="195" y="307" type="curve"/>
      <point x="200" y="309"/>
      <point x="203" y="313"/>
    </contour>
  </outline>
</glyph>
<glyph name="Z" format="1">
  <advance width="319"/>
  <unicode hex="005A"/>
  <outline>
    <contour>
      <point x="272" y="739" type="curve" smooth="yes"/>
      <point x="194.686" y="738.565"/>
      <point x="113.136" y="738.13"/>
      <point x="39" y="729" type="curve" smooth="yes"/>
      <point x="30" y="726"/>
      <point x="26" y="720"/>
      <point x="26" y="714" type="curve" smooth="yes"/>
      <point x="26" y="706"/>
      <point x="32" y="698"/>
      <point x="43" y="698" type="curve" smooth="yes"/>
      <point x="44" y="698" type="line" smooth="yes"/>
      <point x="110.429" y="698.667"/>
      <point x="172.571" y="699.6"/>
      <point x="239" y="700" type="curve"/>
      <point x="141" y="493"/>
      <point x="154" y="252"/>
      <point x="36" y="55" type="curve" smooth="yes"/>
      <point x="32" y="48"/>
      <point x="32" y="41"/>
      <point x="35" y="35" type="curve"/>
      <point x="31" y="32"/>
      <point x="29" y="27"/>
      <point x="29" y="22" type="curve" smooth="yes"/>
      <point x="29" y="16"/>
      <point x="32" y="11"/>
      <point x="39" y="8" type="curve" smooth="yes"/>
      <point x="67" y="-2"/>
      <point x="94" y="-6"/>
      <point x="122" y="-6" type="curve" smooth="yes"/>
      <point x="168.333" y="-6"/>
      <point x="214.667" y="-1.29412"/>
      <point x="261" y="2" type="curve" smooth="yes"/>
      <point x="273" y="4"/>
      <point x="278" y="13"/>
      <point x="278" y="22" type="curve" smooth="yes"/>
      <point x="278" y="34"/>
      <point x="270" y="46"/>
      <point x="258" y="46" type="curve" smooth="yes"/>
      <point x="255" y="46"/>
      <point x="252" y="45"/>
      <point x="248" y="43" type="curve" smooth="yes"/>
      <point x="211.817" y="34.4286"/>
      <point x="172.44" y="31"/>
      <point x="132" y="31" type="curve" smooth="yes"/>
      <point x="113" y="31"/>
      <point x="94" y="33"/>
      <point x="75" y="35" type="curve"/>
      <point x="195" y="244"/>
      <point x="171" y="498"/>
      <point x="286" y="709" type="curve" smooth="yes"/>
      <point x="288" y="712"/>
      <point x="289" y="716"/>
      <point x="289" y="720" type="curve" smooth="yes"/>
      <point x="289" y="729"/>
      <point x="283" y="739"/>
    </contour>
  </outline>
</glyph>
<glyph name="bracketleft" format="1">
  <advance width="280"/>
  <unicode hex="005B"/>
  <outline>
    <contour>
      <point x="44" y="733" type="curve"/>
      <point x="42" y="737"/>
      <point x="40" y="742"/>
      <point x="40" y="747" type="curve" smooth="yes"/>
      <point x="40" y="758"/>
      <point x="47" y="768"/>
      <point x="62" y="769" type="curve" smooth="yes"/>
      <point x="85" y="770"/>
      <point x="107" y="771"/>
      <point x="129" y="771" type="curve" smooth="yes"/>
      <point x="159" y="771"/>
      <point x="189" y="770"/>
      <point x="219" y="770" type="curve" smooth="yes"/>
      <point x="237" y="770"/>
      <point x="246" y="756"/>
      <point x="246" y="742" type="curve" smooth="yes"/>
      <point x="246" y="730"/>
      <point x="239" y="719"/>
      <point x="224" y="719" type="curve" smooth="yes"/>
      <point x="200" y="719"/>
      <point x="178" y="718"/>
      <point x="154" y="718" type="curve" smooth="yes"/>
      <point x="83" y="719" type="line"/>
      <point x="85" y="439"/>
      <point x="87" y="157"/>
      <point x="128" y="-122" type="curve"/>
      <point x="130" y="-121"/>
      <point x="132" y="-120"/>
      <point x="135" y="-120" type="curve" smooth="yes"/>
      <point x="156" y="-117"/>
      <point x="174" y="-116"/>
      <point x="195" y="-113" type="curve" smooth="yes"/>
      <point x="196" y="-113"/>
      <point x="197" y="-113"/>
      <point x="198" y="-113" type="curve" smooth="yes"/>
      <point x="213" y="-113"/>
      <point x="221" y="-125"/>
      <point x="221" y="-137" type="curve" smooth="yes"/>
      <point x="221" y="-150"/>
      <point x="213" y="-162"/>
      <point x="197" y="-162" type="curve" smooth="yes"/>
      <point x="175" y="-162"/>
      <point x="155" y="-159"/>
      <point x="133" y="-156" type="curve" smooth="yes"/>
      <point x="130" y="-155"/>
      <point x="127" y="-154"/>
      <point x="124" y="-152" type="curve"/>
      <point x="121" y="-154"/>
      <point x="118" y="-155"/>
      <point x="114" y="-155" type="curve" smooth="yes"/>
      <point x="106" y="-155"/>
      <point x="97" y="-150"/>
      <point x="95" y="-140" type="curve" smooth="yes"/>
      <point x="52" y="55"/>
      <point x="34" y="260"/>
      <point x="34" y="464" type="curve" smooth="yes"/>
      <point x="34" y="554"/>
      <point x="38" y="644"/>
    </contour>
  </outline>
</glyph>
<glyph name="backslash" format="1">
  <advance width="352"/>
  <unicode hex="005C"/>
  <outline>
    <contour>
      <point x="19" y="758" type="curve" smooth="yes"/>
      <point x="92" y="462"/>
      <point x="153" y="144"/>
      <point x="284" y="-132" type="curve" smooth="yes"/>
      <point x="299" y="-165"/>
      <point x="346" y="-140"/>
      <point x="328" y="-109" type="curve" smooth="yes"/>
      <point x="176" y="162"/>
      <point x="172" y="489"/>
      <point x="45" y="768" type="curve" smooth="yes"/>
      <point x="38" y="786"/>
      <point x="14" y="777"/>
    </contour>
  </outline>
</glyph>
<glyph name="bracketright" format="1">
  <advance width="280"/>
  <unicode hex="005D"/>
  <outline>
    <contour>
      <point x="233" y="747" type="qcurve" smooth="yes"/>
      <point x="233" y="768"/>
      <point x="211" y="769" type="qcurve" smooth="yes"/>
      <point x="149" y="771"/>
      <point x="144" y="771" type="qcurve" smooth="yes"/>
      <point x="99" y="771" type="line" smooth="yes"/>
      <point x="79" y="770"/>
      <point x="54" y="770" type="qcurve" smooth="yes"/>
      <point x="42" y="770"/>
      <point x="27" y="754"/>
      <point x="27" y="742" type="qcurve" smooth="yes"/>
      <point x="27" y="726"/>
      <point x="49" y="726" type="qcurve" smooth="yes"/>
      <point x="84" y="726" type="line" smooth="yes"/>
      <point x="99" y="725"/>
      <point x="119" y="725" type="qcurve" smooth="yes"/>
      <point x="190" y="726" type="line"/>
      <point x="190" y="617"/>
      <point x="191" y="521" type="qcurve" smooth="yes"/>
      <point x="191" y="254"/>
      <point x="182" y="95" type="qcurve" smooth="yes"/>
      <point x="174" y="-25"/>
      <point x="161" y="-122" type="qcurve"/>
      <point x="155" y="-120"/>
      <point x="154" y="-120" type="qcurve" smooth="yes"/>
      <point x="128" y="-116"/>
      <point x="124" y="-116" type="qcurve" smooth="yes"/>
      <point x="104" y="-114"/>
      <point x="94" y="-113" type="qcurve" smooth="yes"/>
      <point x="91" y="-113" type="line" smooth="yes"/>
      <point x="68" y="-113"/>
      <point x="68" y="-137" type="qcurve" smooth="yes"/>
      <point x="68" y="-162"/>
      <point x="92" y="-162" type="qcurve" smooth="yes"/>
      <point x="112" y="-162"/>
      <point x="156" y="-156" type="qcurve" smooth="yes"/>
      <point x="158" y="-156"/>
      <point x="165" y="-152" type="qcurve"/>
      <point x="170" y="-155"/>
      <point x="175" y="-155" type="qcurve" smooth="yes"/>
      <point x="192" y="-155"/>
      <point x="194" y="-140" type="qcurve" smooth="yes"/>
      <point x="213" y="-26"/>
      <point x="217" y="38" type="qcurve" smooth="yes"/>
      <point x="219" y="75"/>
      <point x="223" y="220" type="qcurve" smooth="yes"/>
      <point x="224" y="248"/>
      <point x="227" y="348"/>
      <point x="227" y="369" type="qcurve" smooth="yes"/>
      <point x="236" y="639"/>
      <point x="229" y="733" type="qcurve"/>
      <point x="233" y="740"/>
    </contour>
  </outline>
</glyph>
<glyph name="asciicircum" format="1">
  <advance width="324"/>
  <unicode hex="005E"/>
  <outline>
    <contour>
      <point x="302" y="420" type="curve" smooth="yes"/>
      <point x="254" y="522"/>
      <point x="234" y="633"/>
      <point x="173" y="729" type="curve" smooth="yes"/>
      <point x="168" y="738"/>
      <point x="160" y="741"/>
      <point x="152" y="741" type="curve" smooth="yes"/>
      <point x="142" y="741"/>
      <point x="132" y="734"/>
      <point x="130" y="721" type="curve" smooth="yes"/>
      <point x="120" y="661"/>
      <point x="113" y="601"/>
      <point x="97" y="542" type="curve" smooth="yes"/>
      <point x="83" y="488"/>
      <point x="47" y="447"/>
      <point x="30" y="395" type="curve" smooth="yes"/>
      <point x="29" y="393"/>
      <point x="29" y="392"/>
      <point x="29" y="390" type="curve" smooth="yes"/>
      <point x="29" y="382"/>
      <point x="36" y="377"/>
      <point x="43" y="377" type="curve" smooth="yes"/>
      <point x="45" y="377"/>
      <point x="47" y="377"/>
      <point x="49" y="378" type="curve" smooth="yes"/>
      <point x="131" y="413"/>
      <point x="152" y="547"/>
      <point x="165" y="649" type="curve"/>
      <point x="202" y="568"/>
      <point x="224" y="481"/>
      <point x="262" y="401" type="curve" smooth="yes"/>
      <point x="266" y="392"/>
      <point x="273" y="389"/>
      <point x="281" y="389" type="curve" smooth="yes"/>
      <point x="293" y="389"/>
      <point x="305" y="397"/>
      <point x="305" y="409" type="curve" smooth="yes"/>
      <point x="305" y="412"/>
      <point x="304" y="416"/>
    </contour>
  </outline>
</glyph>
<glyph name="underscore" format="1">
  <advance width="521"/>
  <unicode hex="005F"/>
  <outline>
    <contour>
      <point x="53" y="-140" type="line" smooth="yes"/>
      <point x="194" y="-123"/>
      <point x="330" y="-157"/>
      <point x="469" y="-153" type="curve" smooth="yes"/>
      <point x="500" y="-152"/>
      <point x="506" y="-106"/>
      <point x="474" y="-104" type="curve" smooth="yes"/>
      <point x="332" y="-94"/>
      <point x="187" y="-72"/>
      <point x="45" y="-92" type="curve" smooth="yes"/>
      <point x="13" y="-96"/>
      <point x="22" y="-144"/>
      <point x="53" y="-140" type="curve" smooth="yes"/>
    </contour>
  </outline>
</glyph>
<glyph name="grave" format="1">
  <advance width="203"/>
  <unicode hex="0060"/>
  <outline>
    <contour>
      <point x="156" y="643" type="qcurve" smooth="yes"/>
      <point x="157" y="642"/>
      <point x="162" y="642" type="qcurve" smooth="yes"/>
      <point x="168" y="642"/>
      <point x="179" y="651"/>
      <point x="179" y="657" type="qcurve" smooth="yes"/>
      <point x="179" y="659" type="line" smooth="yes"/>
      <point x="178" y="660"/>
      <point x="178" y="661" type="qcurve" smooth="yes"/>
      <point x="173" y="677"/>
      <point x="167" y="687" type="qcurve" smooth="yes"/>
      <point x="166" y="690"/>
      <point x="150" y="709" type="qcurve" smooth="yes"/>
      <point x="148" y="711"/>
      <point x="132" y="728"/>
      <point x="130" y="730" type="qcurve" smooth="yes"/>
      <point x="102" y="760"/>
      <point x="78" y="807" type="qcurve" smooth="yes"/>
      <point x="70" y="821"/>
      <point x="57" y="821" type="qcurve" smooth="yes"/>
      <point x="47" y="821"/>
      <point x="31" y="807"/>
      <point x="31" y="796" type="qcurve" smooth="yes"/>
      <point x="31" y="794"/>
      <point x="33" y="786" type="qcurve" smooth="yes"/>
      <point x="50" y="745"/>
      <point x="84" y="703" type="qcurve" smooth="yes"/>
      <point x="124" y="654"/>
    </contour>
  </outline>
</glyph>
<glyph name="a" format="1">
  <advance width="443"/>
  <unicode hex="0061"/>
  <outline>
    <contour>
      <point x="390" y="79" type="curve" smooth="yes"/>
      <point x="304" y="15"/>
      <point x="299" y="183"/>
      <point x="296" y="238" type="curve" smooth="yes"/>
      <point x="292" y="295"/>
      <point x="293" y="352"/>
      <point x="294" y="410" type="curve"/>
      <point x="294" y="412"/>
      <point x="295" y="413"/>
      <point x="295" y="415" type="curve" smooth="yes"/>
      <point x="296" y="427"/>
      <point x="296" y="438"/>
      <point x="294" y="449" type="curve"/>
      <point x="294" y="452"/>
      <point x="294" y="454"/>
      <point x="294" y="457" type="curve" smooth="yes"/>
      <point x="294" y="464"/>
      <point x="291" y="469"/>
      <point x="287" y="473" type="curve"/>
      <point x="262" y="535"/>
      <point x="186" y="565"/>
      <point x="125" y="514" type="curve" smooth="yes"/>
      <point x="49" y="449"/>
      <point x="32" y="306"/>
      <point x="24" y="213" type="curve" smooth="yes"/>
      <point x="18" y="135"/>
      <point x="70" y="-22"/>
      <point x="173" y="1" type="curve" smooth="yes"/>
      <point x="230" y="13"/>
      <point x="261" y="96"/>
      <point x="274" y="145" type="curve"/>
      <point x="294" y="43"/>
      <point x="334" y="-25"/>
      <point x="413" y="52" type="curve" smooth="yes"/>
      <point x="429" y="69"/>
      <point x="409" y="93"/>
    </contour>
    <contour>
      <point x="238" y="135" type="curve" smooth="yes"/>
      <point x="219" y="72"/>
      <point x="160" y="-3"/>
      <point x="102" y="68" type="curve" smooth="yes"/>
      <point x="74" y="103"/>
      <point x="56" y="164"/>
      <point x="58" y="210" type="curve" smooth="yes"/>
      <point x="60" y="272"/>
      <point x="75" y="335"/>
      <point x="94" y="394" type="curve" smooth="yes"/>
      <point x="105" y="428"/>
      <point x="122" y="462"/>
      <point x="146" y="488" type="curve" smooth="yes"/>
      <point x="185" y="528"/>
      <point x="229" y="503"/>
      <point x="255" y="464" type="curve"/>
      <point x="255" y="463"/>
      <point x="254" y="462"/>
      <point x="254" y="460" type="curve" smooth="yes"/>
      <point x="238" y="352"/>
      <point x="266" y="241"/>
    </contour>
  </outline>
</glyph>
<glyph name="b" format="1">
  <advance width="345"/>
  <unicode hex="0062"/>
  <outline>
    <contour>
      <point x="190" y="492" type="curve" smooth="yes"/>
      <point x="137" y="515"/>
      <point x="96" y="489"/>
      <point x="71" y="450" type="curve"/>
      <point x="70" y="559"/>
      <point x="68" y="670"/>
      <point x="62" y="779" type="curve" smooth="yes"/>
      <point x="62" y="795"/>
      <point x="36" y="794"/>
      <point x="35" y="778" type="curve" smooth="yes"/>
      <point x="23" y="517"/>
      <point x="29" y="254"/>
      <point x="28" y="-8" type="curve" smooth="yes"/>
      <point x="28" y="-36"/>
      <point x="71" y="-39"/>
      <point x="70" y="-12" type="curve" smooth="yes"/>
      <point x="70" y="26"/>
      <point x="70" y="62"/>
      <point x="70" y="100" type="curve"/>
      <point x="84" y="32"/>
      <point x="126" y="-37"/>
      <point x="201" y="16" type="curve" smooth="yes"/>
      <point x="272" y="66"/>
      <point x="313" y="179"/>
      <point x="316" y="262" type="curve" smooth="yes"/>
      <point x="319" y="350"/>
      <point x="274" y="455"/>
    </contour>
    <contour>
      <point x="279" y="265" type="curve" smooth="yes"/>
      <point x="278" y="203"/>
      <point x="246" y="138"/>
      <point x="211" y="88" type="curve" smooth="yes"/>
      <point x="198" y="70"/>
      <point x="178" y="45"/>
      <point x="155" y="41" type="curve" smooth="yes"/>
      <point x="126" y="35"/>
      <point x="119" y="109"/>
      <point x="117" y="124" type="curve" smooth="yes"/>
      <point x="113" y="150"/>
      <point x="80" y="148"/>
      <point x="70" y="130" type="curve"/>
      <point x="71" y="215"/>
      <point x="71" y="300"/>
      <point x="71" y="385" type="curve"/>
      <point x="91" y="437"/>
      <point x="127" y="490"/>
      <point x="189" y="456" type="curve" smooth="yes"/>
      <point x="253" y="420"/>
      <point x="280" y="333"/>
    </contour>
  </outline>
</glyph>
<glyph name="c" format="1">
  <advance width="349"/>
  <unicode hex="0063"/>
  <outline>
    <contour>
      <point x="153" y="506" type="qcurve" smooth="yes"/>
      <point x="33" y="432"/>
      <point x="33" y="260" type="qcurve" smooth="yes"/>
      <point x="33" y="70"/>
      <point x="143" y="13" type="qcurve" smooth="yes"/>
      <point x="170" y="-2"/>
      <point x="200" y="-2" type="qcurve" smooth="yes"/>
      <point x="247" y="-2"/>
      <point x="317" y="82"/>
      <point x="317" y="136" type="qcurve" smooth="yes"/>
      <point x="317" y="145"/>
      <point x="303" y="158"/>
      <point x="294" y="158" type="qcurve" smooth="yes"/>
      <point x="274" y="158"/>
      <point x="274" y="139" type="qcurve" smooth="yes"/>
      <point x="271" y="98"/>
      <point x="243" y="52"/>
      <point x="212" y="44" type="qcurve" smooth="yes"/>
      <point x="198" y="42"/>
      <point x="197" y="42" type="qcurve" smooth="yes"/>
      <point x="173" y="42"/>
      <point x="122" y="75"/>
      <point x="109" y="98" type="qcurve" smooth="yes"/>
      <point x="75" y="156"/>
      <point x="75" y="275" type="qcurve" smooth="yes"/>
      <point x="75" y="414"/>
      <point x="201" y="485" type="qcurve" smooth="yes"/>
      <point x="214" y="491"/>
      <point x="225" y="491" type="qcurve" smooth="yes"/>
      <point x="268" y="491"/>
      <point x="300" y="444" type="qcurve" smooth="yes"/>
      <point x="303" y="439"/>
      <point x="316" y="446"/>
      <point x="317" y="452" type="qcurve" smooth="yes"/>
      <point x="318" y="492"/>
      <point x="276" y="530"/>
      <point x="236" y="529" type="qcurve" smooth="yes"/>
      <point x="188" y="528"/>
    </contour>
  </outline>
</glyph>
<glyph name="d" format="1">
  <advance width="372"/>
  <unicode hex="0064"/>
  <outline>
    <contour>
      <point x="314" y="766" type="curve" smooth="yes"/>
      <point x="313.609" y="782.026"/>
      <point x="286.746" y="783.107"/>
      <point x="286" y="767" type="curve" smooth="yes"/>
      <point x="281" y="659"/>
      <point x="280" y="549"/>
      <point x="279" y="441" type="curve"/>
      <point x="254" y="484.86"/>
      <point x="213.149" y="512.656"/>
      <point x="160" y="487" type="curve" smooth="yes"/>
      <point x="75.3333" y="449.509"/>
      <point x="29.7098" y="346.241"/>
      <point x="33" y="258" type="curve" smooth="yes"/>
      <point x="35.3093" y="171.577"/>
      <point x="50.365" y="38.8301"/>
      <point x="120" y="4" type="curve" smooth="yes"/>
      <point x="210" y="-43.7966"/>
      <point x="266" y="29.4237"/>
      <point x="284" y="64" type="curve"/>
      <point x="284" y="47.1814"/>
      <point x="279" y="30.428"/>
      <point x="279" y="14" type="curve" smooth="yes"/>
      <point x="279" y="-13"/>
      <point x="321.21" y="-8.99902"/>
      <point x="321" y="18" type="curve" smooth="yes"/>
      <point x="319" y="266.688"/>
      <point x="320" y="518.464"/>
    </contour>
    <contour>
      <point x="111" y="66" type="curve" smooth="yes"/>
      <point x="75.3509" y="109.014"/>
      <point x="77.4695" y="192.637"/>
      <point x="77" y="261" type="curve" smooth="yes"/>
      <point x="76.0233" y="328"/>
      <point x="100.856" y="413.239"/>
      <point x="161" y="448" type="curve" smooth="yes"/>
      <point x="223" y="483"/>
      <point x="258" y="431"/>
      <point x="279" y="379" type="curve"/>
      <point x="283" y="288.307"/>
      <point x="283" y="198.693"/>
      <point x="283" y="108" type="curve"/>
      <point x="221" y="18.1395"/>
      <point x="180" y="-7.25581"/>
    </contour>
  </outline>
</glyph>
<glyph name="e" format="1">
  <advance width="358"/>
  <unicode hex="0065"/>
  <outline>
    <contour>
      <point x="91" y="267" type="line" smooth="yes"/>
      <point x="214" y="202"/>
      <point x="348" y="248"/>
      <point x="337" y="398" type="curve" smooth="yes"/>
      <point x="328" y="523"/>
      <point x="182" y="595"/>
      <point x="92" y="492" type="curve" smooth="yes"/>
      <point x="0" y="386"/>
      <point x="11" y="171"/>
      <point x="91" y="62" type="curve" smooth="yes"/>
      <point x="168" y="-43"/>
      <point x="346" y="-16"/>
      <point x="315" y="135" type="curve" smooth="yes"/>
      <point x="311" y="156"/>
      <point x="283" y="154"/>
      <point x="280" y="133" type="curve" smooth="yes"/>
      <point x="269" y="76"/>
      <point x="259" y="24"/>
      <point x="188" y="45" type="curve" smooth="yes"/>
      <point x="145" y="58"/>
      <point x="116" y="97"/>
      <point x="98" y="136" type="curve" smooth="yes"/>
      <point x="60" y="220"/>
      <point x="68" y="339"/>
      <point x="99" y="423" type="curve" smooth="yes"/>
      <point x="141" y="536"/>
      <point x="268" y="508"/>
      <point x="293" y="404" type="curve" smooth="yes"/>
      <point x="302" y="365"/>
      <point x="293" y="321"/>
      <point x="263" y="292" type="curve" smooth="yes"/>
      <point x="228" y="258"/>
      <point x="141" y="292"/>
      <point x="99" y="292" type="curve" smooth="yes"/>
      <point x="88" y="292"/>
      <point x="78" y="274"/>
      <point x="91" y="267" type="curve" smooth="yes"/>
    </contour>
  </outline>
</glyph>
<glyph name="f" format="1">
  <advance width="330"/>
  <unicode hex="0066"/>
  <outline>
    <contour>
      <point x="145.682" y="750.709" type="curve" smooth="yes"/>
      <point x="107.257" y="706.374"/>
      <point x="123.059" y="621.864"/>
      <point x="124.763" y="571.893" type="curve" smooth="yes"/>
      <point x="125.614" y="546.907"/>
      <point x="126.466" y="521.922"/>
      <point x="131.247" y="499.071" type="curve"/>
      <point x="102.128" y="502.081"/>
      <point x="74.8369" y="510.156"/>
      <point x="46.751" y="512.2" type="curve" smooth="yes"/>
      <point x="30.6914" y="513.654"/>
      <point x="21.4814" y="490.326"/>
      <point x="36.7793" y="481.843" type="curve" smooth="yes"/>
      <point x="60.0889" y="464.627"/>
      <point x="92.5146" y="457.728"/>
      <point x="125.75" y="454.858" type="curve"/>
      <point x="115.188" y="302.41"/>
      <point x="121.321" y="166.54"/>
      <point x="125.546" y="20.5996" type="curve" smooth="yes"/>
      <point x="126.262" y="-0.388672"/>
      <point x="162.377" y="-3.15918"/>
      <point x="161.627" y="18.8281" type="curve" smooth="yes"/>
      <point x="157.806" y="164.782"/>
      <point x="170.334" y="305.291"/>
      <point x="161.798" y="454.086" type="curve"/>
      <point x="195.131" y="453.222"/>
      <point x="228.293" y="457.354"/>
      <point x="254.573" y="462.252" type="curve" smooth="yes"/>
      <point x="280.422" y="467.136"/>
      <point x="271.063" y="506.84"/>
      <point x="246.215" y="501.99" type="curve" smooth="yes"/>
      <point x="217.367" y="497.005"/>
      <point x="188.385" y="496.017"/>
      <point x="160.332" y="497.062" type="curve"/>
      <point x="160.128" y="503.058"/>
      <point x="160.923" y="509.089"/>
      <point x="160.753" y="514.086" type="curve" smooth="yes"/>
      <point x="163.422" y="553.199"/>
      <point x="162.127" y="591.177"/>
      <point x="162.831" y="629.224" type="curve" smooth="yes"/>
      <point x="162.286" y="645.214"/>
      <point x="163.299" y="662.195"/>
      <point x="164.16" y="678.297" type="curve" smooth="yes"/>
      <point x="171.993" y="792.63"/>
      <point x="257.775" y="720.511"/>
      <point x="267.975" y="626.804" type="curve" smooth="yes"/>
      <point x="269.864" y="609.442"/>
      <point x="293.993" y="607.365"/>
      <point x="293.164" y="621.659" type="curve" smooth="yes"/>
      <point x="285.873" y="747.484"/>
      <point x="217.525" y="840.209"/>
    </contour>
  </outline>
</glyph>
<glyph name="g" format="1">
  <advance width="388"/>
  <unicode hex="0067"/>
  <outline>
    <contour>
      <point x="334" y="550" type="curve" smooth="yes"/>
      <point x="295" y="552"/>
      <point x="250" y="530"/>
      <point x="224" y="502" type="curve" smooth="yes"/>
      <point x="224" y="502"/>
      <point x="223" y="501"/>
      <point x="223" y="500" type="curve"/>
      <point x="216" y="503"/>
      <point x="209" y="506"/>
      <point x="202" y="507" type="curve" smooth="yes"/>
      <point x="192" y="510"/>
      <point x="184" y="506"/>
      <point x="179" y="500" type="curve"/>
      <point x="173" y="500"/>
      <point x="167" y="501"/>
      <point x="162" y="501" type="curve" smooth="yes"/>
      <point x="120" y="498"/>
      <point x="90" y="467"/>
      <point x="69" y="433" type="curve" smooth="yes"/>
      <point x="17" y="354"/>
      <point x="4" y="224"/>
      <point x="75" y="154" type="curve" smooth="yes"/>
      <point x="88" y="140"/>
      <point x="99" y="132"/>
      <point x="113" y="126" type="curve"/>
      <point x="81" y="111"/>
      <point x="62" y="88"/>
      <point x="50" y="50" type="curve" smooth="yes"/>
      <point x="47" y="42"/>
      <point x="49" y="32"/>
      <point x="56" y="28" type="curve" smooth="yes"/>
      <point x="112" y="-6"/>
      <point x="167" y="-38"/>
      <point x="207" y="-89" type="curve" smooth="yes"/>
      <point x="244" y="-135"/>
      <point x="201" y="-172"/>
      <point x="154" y="-182" type="curve" smooth="yes"/>
      <point x="90" y="-197"/>
      <point x="47" y="-117"/>
      <point x="109" y="-83" type="curve" smooth="yes"/>
      <point x="135" y="-69"/>
      <point x="116" y="-27"/>
      <point x="89" y="-41" type="curve" smooth="yes"/>
      <point x="35" y="-69"/>
      <point x="12" y="-124"/>
      <point x="46" y="-178" type="curve" smooth="yes"/>
      <point x="83" y="-238"/>
      <point x="165" y="-236"/>
      <point x="217" y="-200" type="curve" smooth="yes"/>
      <point x="344" y="-112"/>
      <point x="176" y="5"/>
      <point x="91" y="53" type="curve"/>
      <point x="102" y="78"/>
      <point x="120" y="93"/>
      <point x="149" y="102" type="curve" smooth="yes"/>
      <point x="155" y="104"/>
      <point x="158" y="109"/>
      <point x="159" y="115" type="curve"/>
      <point x="217" y="117"/>
      <point x="268" y="173"/>
      <point x="290" y="235" type="curve" smooth="yes"/>
      <point x="314" y="304"/>
      <point x="314" y="421"/>
      <point x="255" y="478" type="curve"/>
      <point x="279" y="497"/>
      <point x="305" y="506"/>
      <point x="335" y="510" type="curve" smooth="yes"/>
      <point x="358" y="513"/>
      <point x="356" y="549"/>
    </contour>
    <contour>
      <point x="102" y="189" type="curve" smooth="yes"/>
      <point x="52" y="239"/>
      <point x="69" y="329"/>
      <point x="92" y="386" type="curve" smooth="yes"/>
      <point x="102" y="413"/>
      <point x="121" y="440"/>
      <point x="145" y="455" type="curve" smooth="yes"/>
      <point x="176" y="473"/>
      <point x="196" y="443"/>
      <point x="222" y="434" type="curve" smooth="yes"/>
      <point x="227" y="432"/>
      <point x="231" y="434"/>
      <point x="235" y="437" type="curve"/>
      <point x="320" y="337"/>
      <point x="210" y="82"/>
    </contour>
  </outline>
</glyph>
<glyph name="h" format="1">
  <advance width="356"/>
  <unicode hex="0068"/>
  <outline>
    <contour>
      <point x="67" y="-3" type="qcurve" smooth="yes"/>
      <point x="86" y="-3"/>
      <point x="88" y="38" type="qcurve" smooth="yes"/>
      <point x="92" y="91"/>
      <point x="95" y="228" type="qcurve" smooth="yes"/>
      <point x="98" y="369"/>
      <point x="99" y="379" type="qcurve"/>
      <point x="123" y="421"/>
      <point x="182" y="484"/>
      <point x="207" y="484" type="qcurve" smooth="yes"/>
      <point x="234" y="484"/>
      <point x="249" y="442" type="qcurve" smooth="yes"/>
      <point x="278" y="361"/>
      <point x="278" y="275" type="qcurve" smooth="yes"/>
      <point x="278" y="241"/>
      <point x="264" y="85"/>
      <point x="264" y="16" type="qcurve" smooth="yes"/>
      <point x="264" y="-7"/>
      <point x="286" y="-7" type="qcurve" smooth="yes"/>
      <point x="305" y="-7"/>
      <point x="305" y="12" type="qcurve" smooth="yes"/>
      <point x="305" y="56"/>
      <point x="309" y="129" type="qcurve" smooth="yes"/>
      <point x="312" y="210"/>
      <point x="312" y="254" type="qcurve" smooth="yes"/>
      <point x="312" y="297"/>
      <point x="311" y="309" type="qcurve" smooth="yes"/>
      <point x="311" y="317"/>
      <point x="309" y="343"/>
      <point x="309" y="355" type="qcurve" smooth="yes"/>
      <point x="309" y="389"/>
      <point x="304" y="406" type="qcurve" smooth="yes"/>
      <point x="302" y="414" type="line" smooth="yes"/>
      <point x="300" y="423"/>
      <point x="299" y="430" type="qcurve" smooth="yes"/>
      <point x="296" y="445"/>
      <point x="281" y="476" type="qcurve" smooth="yes"/>
      <point x="269" y="497"/>
      <point x="249" y="510" type="qcurve" smooth="yes"/>
      <point x="226" y="525"/>
      <point x="200" y="525" type="qcurve" smooth="yes"/>
      <point x="136" y="525"/>
      <point x="91" y="431" type="qcurve"/>
      <point x="91" y="470" type="line"/>
      <point x="91" y="598" type="line" smooth="yes"/>
      <point x="91" y="717"/>
      <point x="87" y="766" type="qcurve" smooth="yes"/>
      <point x="85" y="780"/>
      <point x="72" y="780" type="qcurve" smooth="yes"/>
      <point x="64" y="780"/>
      <point x="52" y="769"/>
      <point x="52" y="760" type="qcurve" smooth="yes"/>
      <point x="52" y="502"/>
      <point x="58" y="373" type="qcurve"/>
      <point x="58" y="337" type="line" smooth="yes"/>
      <point x="58" y="246"/>
      <point x="46" y="80" type="qcurve" smooth="yes"/>
      <point x="45" y="71"/>
      <point x="45" y="37" type="qcurve" smooth="yes"/>
      <point x="45" y="19"/>
      <point x="58" y="-3"/>
    </contour>
  </outline>
</glyph>
<glyph name="i" format="1">
  <advance width="154"/>
  <unicode hex="0069"/>
  <outline>
    <contour>
      <point x="55" y="513" type="line"/>
      <point x="55.2" y="344"/>
      <point x="45" y="164"/>
      <point x="54" y="15" type="curve" smooth="yes"/>
      <point x="54.8462" y="0.989866"/>
      <point x="83.2186" y="-5.87045"/>
      <point x="84" y="8" type="curve" smooth="yes"/>
      <point x="87.2" y="150"/>
      <point x="92.8" y="359"/>
      <point x="90" y="515" type="curve" smooth="yes"/>
      <point x="89.0544" y="536.074"/>
      <point x="57" y="534"/>
      <point x="55" y="513" type="curve" smooth="yes"/>
    </contour>
    <contour>
      <point x="82" y="670" type="move"/>
    </contour>
    <contour>
      <point x="56" y="673" type="curve" smooth="yes"/>
      <point x="49.1905" y="670.655"/>
      <point x="40.3551" y="665.124"/>
      <point x="45" y="656" type="curve" smooth="yes"/>
      <point x="48.25" y="645.324"/>
      <point x="49.6318" y="623"/>
      <point x="58" y="623" type="curve" smooth="yes"/>
      <point x="60.3554" y="623"/>
      <point x="61.5361" y="612.074"/>
      <point x="98" y="624" type="curve" smooth="yes"/>
      <point x="103.293" y="625.385"/>
      <point x="105.06" y="634.979"/>
      <point x="104" y="646" type="curve" smooth="yes"/>
      <point x="103.308" y="650.857"/>
      <point x="108.046" y="656.534"/>
      <point x="95" y="663" type="curve" smooth="yes"/>
      <point x="84.1667" y="673"/>
      <point x="75.3053" y="683.088"/>
    </contour>
    <contour>
      <point x="71" y="678" type="move" smooth="yes"/>
    </contour>
  </outline>
</glyph>
<glyph name="j" format="1">
  <advance width="301"/>
  <unicode hex="006A"/>
  <outline>
    <contour>
      <point x="227" y="675" type="move"/>
    </contour>
    <contour>
      <point x="216" y="682" type="curve" smooth="yes"/>
      <point x="205" y="682"/>
      <point x="186.233" y="674.813"/>
      <point x="190" y="661" type="curve" smooth="yes"/>
      <point x="193" y="650"/>
      <point x="195" y="628"/>
      <point x="203" y="628" type="curve" smooth="yes"/>
      <point x="205" y="628"/>
      <point x="206" y="623"/>
      <point x="216" y="623" type="curve" smooth="yes"/>
      <point x="222" y="623"/>
      <point x="229.663" y="626.333"/>
      <point x="243" y="629" type="curve" smooth="yes"/>
      <point x="248" y="630"/>
      <point x="251.166" y="640.169"/>
      <point x="249" y="651" type="curve" smooth="yes"/>
      <point x="248" y="656"/>
      <point x="250.775" y="658.572"/>
      <point x="240" y="668" type="curve" smooth="yes"/>
      <point x="232" y="675"/>
      <point x="226" y="682"/>
    </contour>
    <contour>
      <point x="216" y="683" type="move" smooth="yes"/>
    </contour>
    <contour>
      <point x="22" y="-141" type="curve" smooth="yes"/>
      <point x="22" y="-184"/>
      <point x="91" y="-227"/>
      <point x="141" y="-227" type="curve" smooth="yes"/>
      <point x="230" y="-227"/>
      <point x="243.71" y="-92.9698"/>
      <point x="250" y="-34" type="curve" smooth="yes"/>
      <point x="258" y="41"/>
      <point x="261" y="116"/>
      <point x="261" y="192" type="curve" smooth="yes"/>
      <point x="261" y="299"/>
      <point x="250" y="405.882"/>
      <point x="250" y="512" type="curve" smooth="yes"/>
      <point x="250" y="522"/>
      <point x="243" y="527"/>
      <point x="235" y="527" type="curve" smooth="yes"/>
      <point x="225" y="527"/>
      <point x="214" y="520"/>
      <point x="214" y="508" type="curve" smooth="yes"/>
      <point x="214" y="422"/>
      <point x="223" y="335"/>
      <point x="223" y="249" type="curve" smooth="yes"/>
      <point x="223" y="156"/>
      <point x="219.695" y="62.0192"/>
      <point x="214" y="-31" type="curve" smooth="yes"/>
      <point x="211" y="-80"/>
      <point x="195" y="-191"/>
      <point x="127" y="-191" type="curve" smooth="yes"/>
      <point x="67" y="-191"/>
      <point x="74.2491" y="-138.664"/>
      <point x="62" y="-106" type="curve" smooth="yes"/>
      <point x="59" y="-98"/>
      <point x="49.7689" y="-97.6733"/>
      <point x="44" y="-102" type="curve" smooth="yes"/>
      <point x="28" y="-114"/>
      <point x="22" y="-128"/>
    </contour>
  </outline>
</glyph>
<glyph name="k" format="1">
  <advance width="341"/>
  <unicode hex="006B"/>
  <outline>
    <contour>
      <point x="296" y="522" type="qcurve" smooth="yes"/>
      <point x="292" y="522"/>
      <point x="287" y="517" type="qcurve" smooth="yes"/>
      <point x="259" y="484"/>
      <point x="229" y="435" type="qcurve" smooth="yes"/>
      <point x="157" y="324"/>
      <point x="138" y="305" type="qcurve" smooth="yes"/>
      <point x="136" y="303" type="line"/>
      <point x="100" y="260"/>
      <point x="79" y="237" type="qcurve"/>
      <point x="79" y="240"/>
      <point x="74" y="347" type="qcurve" smooth="yes"/>
      <point x="68" y="442"/>
      <point x="71" y="492" type="qcurve" smooth="yes"/>
      <point x="74" y="536"/>
      <point x="74" y="755" type="qcurve" smooth="yes"/>
      <point x="74" y="763"/>
      <point x="61" y="774"/>
      <point x="54" y="774" type="qcurve" smooth="yes"/>
      <point x="39" y="774"/>
      <point x="39" y="750" type="qcurve" smooth="yes"/>
      <point x="39" y="692"/>
      <point x="35" y="607" type="qcurve" smooth="yes"/>
      <point x="30" y="500"/>
      <point x="30" y="461" type="qcurve" smooth="yes"/>
      <point x="30" y="416"/>
      <point x="36" y="240"/>
      <point x="36" y="194" type="qcurve" smooth="yes"/>
      <point x="36" y="162"/>
      <point x="33" y="107" type="qcurve" smooth="yes"/>
      <point x="29" y="56"/>
      <point x="29" y="20" type="qcurve" smooth="yes"/>
      <point x="29" y="17" type="line" smooth="yes"/>
      <point x="29" y="-1"/>
      <point x="50" y="-1" type="qcurve" smooth="yes"/>
      <point x="69" y="-1"/>
      <point x="71" y="16" type="qcurve" smooth="yes"/>
      <point x="80" y="88"/>
      <point x="80" y="182" type="qcurve"/>
      <point x="140" y="251" type="line"/>
      <point x="155" y="195"/>
      <point x="175" y="149" type="qcurve" smooth="yes"/>
      <point x="181" y="134"/>
      <point x="192" y="101" type="qcurve" smooth="yes"/>
      <point x="220" y="18"/>
      <point x="253" y="-4" type="qcurve" smooth="yes"/>
      <point x="260" y="-9"/>
      <point x="276" y="0"/>
      <point x="276" y="9" type="qcurve" smooth="yes"/>
      <point x="276" y="42"/>
      <point x="243" y="96" type="qcurve" smooth="yes"/>
      <point x="226" y="125"/>
      <point x="223" y="134" type="qcurve" smooth="yes"/>
      <point x="208" y="172"/>
      <point x="198" y="205" type="qcurve" smooth="yes"/>
      <point x="179" y="260"/>
      <point x="167" y="283" type="qcurve"/>
      <point x="189" y="313"/>
      <point x="230" y="364" type="qcurve" smooth="yes"/>
      <point x="276" y="422"/>
      <point x="294" y="460" type="qcurve" smooth="yes"/>
      <point x="307" y="487"/>
      <point x="307" y="509" type="qcurve" smooth="yes"/>
      <point x="307" y="522"/>
    </contour>
  </outline>
</glyph>
<glyph name="l" format="1">
  <advance width="119"/>
  <unicode hex="006C"/>
  <outline>
    <contour>
      <point x="54" y="759" type="curve" smooth="yes"/>
      <point x="49" y="510"/>
      <point x="31" y="261"/>
      <point x="47" y="17" type="curve" smooth="yes"/>
      <point x="48.7967" y="-10.4002"/>
      <point x="92.2447" y="-4.35421"/>
      <point x="90" y="24" type="curve" smooth="yes"/>
      <point x="71" y="264"/>
      <point x="90" y="512"/>
      <point x="82" y="760" type="curve" smooth="yes"/>
      <point x="81.4801" y="776.116"/>
      <point x="54.3212" y="774.997"/>
    </contour>
  </outline>
</glyph>
<glyph name="m" format="1">
  <advance width="583"/>
  <unicode hex="006D"/>
  <outline>
    <contour>
      <point x="308" y="441" type="curve" smooth="yes"/>
      <point x="308" y="441"/>
      <point x="314" y="300"/>
      <point x="315" y="300" type="curve" smooth="yes"/>
      <point x="315" y="300"/>
      <point x="315" y="307"/>
      <point x="315" y="324" type="curve" smooth="yes"/>
      <point x="312" y="385"/>
      <point x="366" y="496"/>
      <point x="417" y="496" type="curve" smooth="yes"/>
      <point x="434" y="496"/>
      <point x="452" y="484"/>
      <point x="466" y="452" type="curve" smooth="yes"/>
      <point x="489" y="402"/>
      <point x="496" y="344"/>
      <point x="496" y="284" type="curve" smooth="yes"/>
      <point x="496" y="193"/>
      <point x="477" y="98"/>
      <point x="477" y="18" type="curve" smooth="yes"/>
      <point x="477" y="3"/>
      <point x="489" y="-5"/>
      <point x="501" y="-5" type="curve" smooth="yes"/>
      <point x="511" y="-5"/>
      <point x="521" y="1"/>
      <point x="521" y="14" type="curve" smooth="yes"/>
      <point x="522" y="97"/>
      <point x="529" y="180"/>
      <point x="529" y="264" type="curve" smooth="yes"/>
      <point x="529" y="282"/>
      <point x="529" y="301"/>
      <point x="528" y="319" type="curve" smooth="yes"/>
      <point x="525" y="387"/>
      <point x="520" y="502"/>
      <point x="443" y="531" type="curve" smooth="yes"/>
      <point x="437" y="533"/>
      <point x="432" y="534"/>
      <point x="426" y="534" type="curve" smooth="yes"/>
      <point x="369" y="534"/>
      <point x="308" y="441"/>
    </contour>
    <contour>
      <point x="70" y="147" type="curve" smooth="yes"/>
      <point x="70" y="111"/>
      <point x="67" y="78"/>
      <point x="67" y="42" type="curve" smooth="yes"/>
      <point x="67" y="39"/>
      <point x="67" y="37"/>
      <point x="67" y="34" type="curve" smooth="yes"/>
      <point x="67" y="11"/>
      <point x="78" y="-3"/>
      <point x="89" y="-3" type="curve" smooth="yes"/>
      <point x="99" y="-3"/>
      <point x="108" y="9"/>
      <point x="110" y="38" type="curve" smooth="yes"/>
      <point x="114" y="117"/>
      <point x="120" y="199"/>
      <point x="120" y="281" type="curve" smooth="yes"/>
      <point x="120" y="292"/>
      <point x="120" y="303"/>
      <point x="120" y="314" type="curve"/>
      <point x="138" y="377"/>
      <point x="182" y="487"/>
      <point x="226" y="487" type="curve" smooth="yes"/>
      <point x="241" y="487"/>
      <point x="257" y="474"/>
      <point x="271" y="442" type="curve" smooth="yes"/>
      <point x="294" y="393"/>
      <point x="301" y="336"/>
      <point x="301" y="277" type="curve" smooth="yes"/>
      <point x="301" y="188"/>
      <point x="282" y="94"/>
      <point x="282" y="15" type="curve" smooth="yes"/>
      <point x="282" y="0"/>
      <point x="294" y="-8"/>
      <point x="306" y="-8" type="curve" smooth="yes"/>
      <point x="316" y="-8"/>
      <point x="326" y="-2"/>
      <point x="326" y="11" type="curve" smooth="yes"/>
      <point x="327" y="92"/>
      <point x="334" y="174"/>
      <point x="334" y="256" type="curve" smooth="yes"/>
      <point x="334" y="274"/>
      <point x="334" y="291"/>
      <point x="333" y="309" type="curve" smooth="yes"/>
      <point x="330" y="377"/>
      <point x="325" y="492"/>
      <point x="248" y="521" type="curve" smooth="yes"/>
      <point x="238" y="525"/>
      <point x="229" y="526"/>
      <point x="220" y="526" type="curve" smooth="yes"/>
      <point x="172" y="526"/>
      <point x="136" y="478"/>
      <point x="113" y="431" type="curve"/>
      <point x="109" y="464"/>
      <point x="102" y="496"/>
      <point x="95" y="528" type="curve" smooth="yes"/>
      <point x="93" y="538"/>
      <point x="86" y="542"/>
      <point x="78" y="542" type="curve" smooth="yes"/>
      <point x="69" y="542"/>
      <point x="60" y="536"/>
      <point x="60" y="525" type="curve" smooth="yes"/>
      <point x="60" y="456"/>
      <point x="73" y="388"/>
      <point x="73" y="319" type="curve" smooth="yes"/>
      <point x="73" y="279"/>
      <point x="70" y="242"/>
      <point x="70" y="203" type="curve" smooth="yes"/>
      <point x="70" y="185"/>
      <point x="70" y="165"/>
    </contour>
  </outline>
</glyph>
<glyph name="n" format="1">
  <advance width="352"/>
  <unicode hex="006E"/>
  <outline>
    <contour>
      <point x="318" y="316" type="curve" smooth="yes"/>
      <point x="315" y="386"/>
      <point x="310" y="504"/>
      <point x="231" y="534" type="curve" smooth="yes"/>
      <point x="168" y="558"/>
      <point x="121" y="498"/>
      <point x="93" y="441" type="curve"/>
      <point x="89" y="475"/>
      <point x="83" y="508"/>
      <point x="75" y="541" type="curve" smooth="yes"/>
      <point x="70" y="564"/>
      <point x="35" y="558"/>
      <point x="39" y="535" type="curve" smooth="yes"/>
      <point x="51" y="454"/>
      <point x="53" y="373"/>
      <point x="52" y="292" type="curve"/>
      <point x="45" y="224"/>
      <point x="47" y="154"/>
      <point x="47" y="87" type="curve" smooth="yes"/>
      <point x="46" y="73"/>
      <point x="46" y="57"/>
      <point x="46" y="43" type="curve"/>
      <point x="46" y="43"/>
      <point x="46" y="43"/>
      <point x="46" y="43" type="curve"/>
      <point x="46" y="41"/>
      <point x="46" y="39"/>
      <point x="46" y="37" type="curve" smooth="yes"/>
      <point x="45" y="-8"/>
      <point x="86" y="-25"/>
      <point x="90" y="39" type="curve" smooth="yes"/>
      <point x="95" y="131"/>
      <point x="102" y="227"/>
      <point x="100" y="322" type="curve"/>
      <point x="125" y="409"/>
      <point x="197" y="582"/>
      <point x="255" y="453" type="curve" smooth="yes"/>
      <point x="314" y="321"/>
      <point x="268" y="138"/>
      <point x="266" y="-1" type="curve" smooth="yes"/>
      <point x="265" y="-31"/>
      <point x="311" y="-35"/>
      <point x="311" y="-6" type="curve" smooth="yes"/>
      <point x="312" y="101"/>
      <point x="324" y="208"/>
    </contour>
  </outline>
</glyph>
<glyph name="o" format="1">
  <advance width="406"/>
  <unicode hex="006F"/>
  <outline>
    <contour>
      <point x="359" y="252" type="qcurve" smooth="yes"/>
      <point x="359" y="140"/>
      <point x="275" y="-8"/>
      <point x="201" y="-8" type="qcurve" smooth="yes"/>
      <point x="123" y="-8"/>
      <point x="37" y="127"/>
      <point x="37" y="233" type="qcurve" smooth="yes"/>
      <point x="37" y="391"/>
      <point x="117" y="482" type="qcurve" smooth="yes"/>
      <point x="158" y="526"/>
      <point x="209" y="526" type="qcurve" smooth="yes"/>
      <point x="276" y="526"/>
      <point x="359" y="366"/>
    </contour>
    <contour>
      <point x="92" y="360" type="qcurve" smooth="yes"/>
      <point x="77" y="308"/>
      <point x="77" y="246" type="qcurve" smooth="yes"/>
      <point x="77" y="152"/>
      <point x="143" y="24"/>
      <point x="253" y="24"/>
      <point x="319" y="163"/>
      <point x="319" y="264" type="qcurve" smooth="yes"/>
      <point x="319" y="357"/>
      <point x="262" y="485"/>
      <point x="215" y="485" type="qcurve" smooth="yes"/>
      <point x="172" y="485"/>
      <point x="107" y="415"/>
    </contour>
  </outline>
</glyph>
<glyph name="p" format="1">
  <advance width="361"/>
  <unicode hex="0070"/>
  <outline>
    <contour>
      <point x="40" y="435" type="curve"/>
      <point x="36" y="431"/>
      <point x="30" y="421"/>
      <point x="30" y="413" type="curve" smooth="yes"/>
      <point x="30" y="405"/>
      <point x="34" y="398"/>
      <point x="41" y="393" type="curve"/>
      <point x="42.2" y="277"/>
      <point x="47" y="160"/>
      <point x="47" y="44" type="curve" smooth="yes"/>
      <point x="47" y="-38"/>
      <point x="46.25" y="-116"/>
      <point x="44" y="-200" type="curve" smooth="yes"/>
      <point x="43.6838" y="-202.214"/>
      <point x="43" y="-204"/>
      <point x="43" y="-206" type="curve" smooth="yes"/>
      <point x="43" y="-219"/>
      <point x="54" y="-226"/>
      <point x="65" y="-226" type="curve" smooth="yes"/>
      <point x="74" y="-226"/>
      <point x="82.4271" y="-220.938"/>
      <point x="84" y="-209" type="curve" smooth="yes"/>
      <point x="84" y="-144.777"/>
      <point x="84" y="-87.9744"/>
      <point x="82" y="-18" type="curve" smooth="yes"/>
      <point x="82" y="5.33333"/>
      <point x="82" y="28.6667"/>
      <point x="80" y="52" type="curve"/>
      <point x="109.009" y="10.4615"/>
      <point x="149.414" y="-2"/>
      <point x="195" y="-2" type="curve" smooth="yes"/>
      <point x="226.724" y="-2"/>
      <point x="254.215" y="15.2245"/>
      <point x="287" y="61" type="curve" smooth="yes"/>
      <point x="316.52" y="116.115"/>
      <point x="328" y="205.741"/>
      <point x="328" y="291" type="curve" smooth="yes"/>
      <point x="328" y="298"/>
      <point x="327.448" y="306.014"/>
      <point x="327" y="313" type="curve" smooth="yes"/>
      <point x="321.102" y="383.484"/>
      <point x="303.814" y="465.222"/>
      <point x="240" y="503" type="curve" smooth="yes"/>
      <point x="218" y="520"/>
      <point x="196" y="528"/>
      <point x="174" y="528" type="curve" smooth="yes"/>
      <point x="132" y="528"/>
      <point x="93" y="500"/>
      <point x="63" y="465" type="curve"/>
      <point x="61" y="475"/>
      <point x="61.8346" y="483.985"/>
      <point x="61" y="494" type="curve" smooth="yes"/>
      <point x="60" y="506"/>
      <point x="40" y="505.042"/>
      <point x="40" y="493" type="curve" smooth="yes"/>
      <point x="40" y="473"/>
      <point x="40" y="456"/>
    </contour>
    <contour>
      <point x="270" y="105" type="curve" smooth="yes"/>
      <point x="253.895" y="69.9"/>
      <point x="228.316" y="40"/>
      <point x="198" y="40" type="curve" smooth="yes"/>
      <point x="137.282" y="40"/>
      <point x="122.07" y="46.0882"/>
      <point x="80" y="109" type="curve" smooth="yes"/>
      <point x="80" y="109" type="line"/>
      <point x="78.125" y="213.969"/>
      <point x="73.75" y="317.844"/>
      <point x="70" y="425" type="curve"/>
      <point x="71" y="426"/>
      <point x="71.477" y="426.148"/>
      <point x="72" y="427" type="curve" smooth="yes"/>
      <point x="98.243" y="456.839"/>
      <point x="132.262" y="486"/>
      <point x="176" y="486" type="curve" smooth="yes"/>
      <point x="193" y="486"/>
      <point x="214.52" y="483.815"/>
      <point x="230" y="466" type="curve" smooth="yes"/>
      <point x="265.625" y="437.785"/>
      <point x="278.043" y="381.145"/>
      <point x="287" y="338" type="curve" smooth="yes"/>
      <point x="289" y="324"/>
      <point x="290" y="310"/>
      <point x="290" y="296" type="curve" smooth="yes"/>
      <point x="290" y="229.209"/>
      <point x="288.114" y="161.694"/>
    </contour>
  </outline>
</glyph>
<glyph name="q" format="1">
  <advance width="340"/>
  <unicode hex="0071"/>
  <outline>
    <contour>
      <point x="105" y="452" type="qcurve" smooth="yes"/>
      <point x="140" y="493"/>
      <point x="189" y="493" type="qcurve" smooth="yes"/>
      <point x="211" y="493"/>
      <point x="258" y="468"/>
      <point x="269" y="448" type="qcurve"/>
      <point x="269" y="415"/>
      <point x="261" y="148" type="qcurve" smooth="yes"/>
      <point x="258" y="116"/>
      <point x="238" y="82"/>
      <point x="215" y="70" type="qcurve" smooth="yes"/>
      <point x="207" y="67"/>
      <point x="193" y="71" type="qcurve" smooth="yes"/>
      <point x="161" y="80"/>
      <point x="114" y="108"/>
      <point x="83" y="145"/>
      <point x="67" y="173"/>
      <point x="58" y="194" type="qcurve" smooth="yes"/>
      <point x="44" y="227"/>
      <point x="44" y="267" type="qcurve" smooth="yes"/>
      <point x="44" y="381"/>
    </contour>
    <contour>
      <point x="295" y="-149" type="qcurve"/>
      <point x="295" y="-139"/>
      <point x="298" y="-7"/>
      <point x="300" y="52" type="qcurve" smooth="yes"/>
      <point x="303" y="205"/>
      <point x="303" y="288" type="qcurve" smooth="yes"/>
      <point x="303" y="343"/>
      <point x="301" y="425"/>
      <point x="301" y="480" type="qcurve"/>
      <point x="282" y="500"/>
      <point x="214" y="527"/>
      <point x="190" y="527" type="qcurve" smooth="yes"/>
      <point x="136" y="527"/>
      <point x="47" y="437"/>
      <point x="28" y="373" type="qcurve" smooth="yes"/>
      <point x="9" y="315"/>
      <point x="9" y="256" type="qcurve" smooth="yes"/>
      <point x="9" y="193"/>
      <point x="77" y="82"/>
      <point x="133" y="52" type="qcurve" smooth="yes"/>
      <point x="174" y="30"/>
      <point x="211" y="30" type="qcurve" smooth="yes"/>
      <point x="238" y="30"/>
      <point x="258" y="59" type="qcurve"/>
      <point x="253" y="-156"/>
      <point x="253" y="-176" type="qcurve" smooth="yes"/>
      <point x="253" y="-181"/>
      <point x="257" y="-188" type="qcurve"/>
      <point x="245" y="-200"/>
      <point x="245" y="-210" type="qcurve" smooth="yes"/>
      <point x="245" y="-217"/>
      <point x="258" y="-228"/>
      <point x="265" y="-228" type="qcurve" smooth="yes"/>
      <point x="273" y="-228"/>
      <point x="278" y="-220" type="qcurve" smooth="yes"/>
      <point x="294" y="-190"/>
      <point x="324" y="-173" type="qcurve" smooth="yes"/>
      <point x="333" y="-168"/>
      <point x="333" y="-158" type="qcurve" smooth="yes"/>
      <point x="333" y="-151"/>
      <point x="323" y="-139"/>
      <point x="316" y="-139" type="qcurve" smooth="yes"/>
      <point x="311" y="-139"/>
    </contour>
  </outline>
</glyph>
<glyph name="r" format="1">
  <advance width="305"/>
  <unicode hex="0072"/>
  <outline>
    <contour>
      <point x="266" y="509" type="curve" smooth="yes"/>
      <point x="190" y="552"/>
      <point x="139" y="522"/>
      <point x="109" y="459" type="curve"/>
      <point x="94" y="506"/>
      <point x="71" y="547"/>
      <point x="32" y="498" type="curve" smooth="yes"/>
      <point x="23" y="486"/>
      <point x="38" y="472"/>
      <point x="50" y="477" type="curve" smooth="yes"/>
      <point x="71" y="487"/>
      <point x="79" y="436"/>
      <point x="82" y="382" type="curve"/>
      <point x="52" y="253"/>
      <point x="60" y="78"/>
      <point x="74" y="17" type="curve" smooth="yes"/>
      <point x="78" y="-7"/>
      <point x="118" y="-7"/>
      <point x="119" y="18" type="curve" smooth="yes"/>
      <point x="119" y="134"/>
      <point x="129" y="249"/>
      <point x="124" y="364" type="curve"/>
      <point x="142" y="443"/>
      <point x="178" y="496"/>
      <point x="244" y="467" type="curve" smooth="yes"/>
      <point x="268" y="456"/>
      <point x="290" y="496"/>
    </contour>
  </outline>
</glyph>
<glyph name="s" format="1">
  <advance width="304"/>
  <unicode hex="0073"/>
  <outline>
    <contour>
      <point x="267" y="468" type="line" smooth="yes"/>
      <point x="223" y="597"/>
      <point x="53" y="532"/>
      <point x="32" y="425" type="curve" smooth="yes"/>
      <point x="18" y="358"/>
      <point x="68" y="306"/>
      <point x="115" y="268" type="curve" smooth="yes"/>
      <point x="148" y="242"/>
      <point x="183" y="218"/>
      <point x="211" y="183" type="curve" smooth="yes"/>
      <point x="282" y="96"/>
      <point x="151" y="-12"/>
      <point x="76" y="73" type="curve" smooth="yes"/>
      <point x="55" y="95"/>
      <point x="19" y="65"/>
      <point x="40" y="42" type="curve" smooth="yes"/>
      <point x="129" y="-58"/>
      <point x="322" y="26"/>
      <point x="271" y="164" type="curve" smooth="yes"/>
      <point x="247" y="234"/>
      <point x="182" y="271"/>
      <point x="127" y="315" type="curve" smooth="yes"/>
      <point x="6" y="412"/>
      <point x="130" y="564"/>
      <point x="246" y="455" type="curve" smooth="yes"/>
      <point x="256" y="444"/>
      <point x="272" y="455"/>
      <point x="267" y="468" type="curve" smooth="yes"/>
    </contour>
  </outline>
</glyph>
<glyph name="t" format="1">
  <advance width="310"/>
  <unicode hex="0074"/>
  <outline>
    <contour>
      <point x="293" y="106" type="curve" smooth="yes"/>
      <point x="293" y="123"/>
      <point x="290" y="153"/>
      <point x="271" y="153" type="curve" smooth="yes"/>
      <point x="265" y="153"/>
      <point x="259" y="149"/>
      <point x="259" y="142" type="curve" smooth="yes"/>
      <point x="259" y="138"/>
      <point x="259.86" y="132.998"/>
      <point x="260" y="129" type="curve" smooth="yes"/>
      <point x="262" y="72"/>
      <point x="220.246" y="34"/>
      <point x="192" y="34" type="curve" smooth="yes"/>
      <point x="174" y="34"/>
      <point x="161.275" y="50.1586"/>
      <point x="156" y="95" type="curve" smooth="yes"/>
      <point x="154" y="112"/>
      <point x="153.398" y="127.005"/>
      <point x="153" y="144" type="curve" smooth="yes"/>
      <point x="153" y="272"/>
      <point x="153" y="395"/>
      <point x="155" y="522" type="curve"/>
      <point x="170" y="523"/>
      <point x="185.092" y="525.169"/>
      <point x="200" y="524" type="curve" smooth="yes"/>
      <point x="251" y="520" type="line" smooth="yes"/>
      <point x="251.994" y="519.922"/>
      <point x="253" y="520"/>
      <point x="254" y="520" type="curve" smooth="yes"/>
      <point x="267" y="520"/>
      <point x="275" y="531"/>
      <point x="275" y="542" type="curve" smooth="yes"/>
      <point x="275" y="550"/>
      <point x="270.167" y="559.445"/>
      <point x="259" y="560" type="curve" smooth="yes"/>
      <point x="236" y="561.143"/>
      <point x="209" y="562"/>
      <point x="181" y="562" type="curve" smooth="yes"/>
      <point x="172" y="562"/>
      <point x="163" y="561"/>
      <point x="153" y="561" type="curve"/>
      <point x="152" y="625.649"/>
      <point x="150" y="692.351"/>
      <point x="150" y="757" type="curve" smooth="yes"/>
      <point x="150" y="768"/>
      <point x="142" y="773"/>
      <point x="134" y="773" type="curve" smooth="yes"/>
      <point x="124" y="773"/>
      <point x="114" y="766"/>
      <point x="114" y="754" type="curve" smooth="yes"/>
      <point x="114" y="689.359"/>
      <point x="117" y="622.667"/>
      <point x="121" y="557" type="curve"/>
      <point x="89.6173" y="555.929"/>
      <point x="57.4369" y="562.062"/>
      <point x="39" y="551" type="curve" smooth="yes"/>
      <point x="34" y="548"/>
      <point x="32" y="543"/>
      <point x="32" y="538" type="curve" smooth="yes"/>
      <point x="32" y="529"/>
      <point x="39" y="520"/>
      <point x="49" y="520" type="curve" smooth="yes"/>
      <point x="50" y="520"/>
      <point x="50" y="520"/>
      <point x="51" y="520" type="curve" smooth="yes"/>
      <point x="75.338" y="520"/>
      <point x="98.662" y="520"/>
      <point x="123" y="518" type="curve"/>
      <point x="120" y="419"/>
      <point x="120" y="317.02"/>
      <point x="120" y="219" type="curve" smooth="yes"/>
      <point x="120" y="213"/>
      <point x="120" y="207"/>
      <point x="120" y="201" type="curve" smooth="yes"/>
      <point x="120" y="181"/>
      <point x="118" y="156"/>
      <point x="118" y="130" type="curve" smooth="yes"/>
      <point x="118" y="90"/>
      <point x="122.477" y="48.3642"/>
      <point x="143" y="21" type="curve" smooth="yes"/>
      <point x="158" y="1"/>
      <point x="174" y="-7"/>
      <point x="190" y="-7" type="curve" smooth="yes"/>
      <point x="242.644" y="-7"/>
      <point x="293" y="54.0565"/>
    </contour>
  </outline>
</glyph>
<glyph name="u" format="1">
  <advance width="376"/>
  <unicode hex="0075"/>
  <outline>
    <contour>
      <point x="26" y="281" type="curve" smooth="yes"/>
      <point x="26" y="139"/>
      <point x="48" y="-9"/>
      <point x="148" y="-9" type="curve" smooth="yes"/>
      <point x="203" y="-9"/>
      <point x="235" y="30"/>
      <point x="254" y="82" type="curve"/>
      <point x="265" y="49"/>
      <point x="284" y="20"/>
      <point x="313" y="-1" type="curve" smooth="yes"/>
      <point x="317" y="-4"/>
      <point x="321" y="-5"/>
      <point x="325" y="-5" type="curve" smooth="yes"/>
      <point x="337" y="-5"/>
      <point x="347" y="6"/>
      <point x="347" y="18" type="curve" smooth="yes"/>
      <point x="347" y="24"/>
      <point x="345" y="30"/>
      <point x="338" y="34" type="curve" smooth="yes"/>
      <point x="295" y="63"/>
      <point x="282" y="119"/>
      <point x="278" y="170" type="curve"/>
      <point x="278" y="278"/>
      <point x="298" y="396"/>
      <point x="298" y="497" type="curve" smooth="yes"/>
      <point x="298" y="511"/>
      <point x="293" y="519"/>
      <point x="279" y="519" type="curve" smooth="yes"/>
      <point x="272" y="519"/>
      <point x="265" y="515"/>
      <point x="264" y="507" type="curve" smooth="yes"/>
      <point x="247" y="415"/>
      <point x="239" y="272"/>
      <point x="239" y="210" type="curve" smooth="yes"/>
      <point x="239" y="190"/>
      <point x="240" y="170"/>
      <point x="242" y="150" type="curve"/>
      <point x="233" y="78"/>
      <point x="202" y="34"/>
      <point x="153" y="34" type="curve" smooth="yes"/>
      <point x="77" y="34"/>
      <point x="63" y="162"/>
      <point x="63" y="287" type="curve" smooth="yes"/>
      <point x="63" y="371"/>
      <point x="69" y="455"/>
      <point x="69" y="497" type="curve" smooth="yes"/>
      <point x="69" y="512"/>
      <point x="69" y="523"/>
      <point x="56" y="523" type="curve" smooth="yes"/>
      <point x="49" y="523"/>
      <point x="41" y="518"/>
      <point x="40" y="509" type="curve" smooth="yes"/>
      <point x="35" y="463"/>
      <point x="26" y="373"/>
    </contour>
  </outline>
</glyph>
<glyph name="v" format="1">
  <advance width="393"/>
  <unicode hex="0076"/>
  <outline>
    <contour>
      <point x="309" y="441" type="qcurve" smooth="yes"/>
      <point x="304" y="423"/>
      <point x="290" y="377"/>
      <point x="289" y="372" type="qcurve" smooth="yes"/>
      <point x="283" y="350"/>
      <point x="271" y="310" type="qcurve" smooth="yes"/>
      <point x="258" y="264"/>
      <point x="250" y="241" type="qcurve" smooth="yes"/>
      <point x="241" y="217"/>
      <point x="229" y="181" type="qcurve" smooth="yes"/>
      <point x="212" y="129"/>
      <point x="182" y="64" type="qcurve"/>
      <point x="147" y="169"/>
      <point x="104" y="369" type="qcurve" smooth="yes"/>
      <point x="91" y="430"/>
      <point x="70" y="514" type="qcurve" smooth="yes"/>
      <point x="67" y="525"/>
      <point x="55" y="525" type="qcurve" smooth="yes"/>
      <point x="47" y="525"/>
      <point x="35" y="513"/>
      <point x="35" y="504" type="qcurve" smooth="yes"/>
      <point x="35" y="499"/>
      <point x="36" y="497" type="qcurve" smooth="yes"/>
      <point x="62" y="422"/>
      <point x="96" y="257" type="qcurve" smooth="yes"/>
      <point x="130" y="90"/>
      <point x="159" y="11" type="qcurve" smooth="yes"/>
      <point x="164" y="-1"/>
      <point x="180" y="-1" type="qcurve" smooth="yes"/>
      <point x="194" y="-1"/>
      <point x="198" y="8" type="qcurve" smooth="yes"/>
      <point x="243" y="100"/>
      <point x="296" y="270" type="qcurve" smooth="yes"/>
      <point x="348" y="439"/>
      <point x="370" y="497" type="qcurve" smooth="yes"/>
      <point x="371" y="499"/>
      <point x="371" y="504" type="qcurve" smooth="yes"/>
      <point x="371" y="515"/>
      <point x="360" y="531"/>
      <point x="354" y="531" type="qcurve" smooth="yes"/>
      <point x="344" y="531"/>
      <point x="331" y="519"/>
      <point x="326" y="503" type="qcurve" smooth="yes"/>
      <point x="315" y="466"/>
    </contour>
  </outline>
</glyph>
<glyph name="w" format="1">
  <advance width="545"/>
  <unicode hex="0077"/>
  <outline>
    <contour>
      <point x="476" y="527" type="curve" smooth="yes"/>
      <point x="432" y="386"/>
      <point x="422" y="239"/>
      <point x="383" y="96" type="curve"/>
      <point x="361" y="182"/>
      <point x="321" y="263"/>
      <point x="302" y="350" type="curve"/>
      <point x="306" y="367"/>
      <point x="309" y="383"/>
      <point x="312" y="399" type="curve" smooth="yes"/>
      <point x="317" y="422"/>
      <point x="289" y="428"/>
      <point x="275" y="415" type="curve"/>
      <point x="269" y="414"/>
      <point x="265" y="410"/>
      <point x="265" y="402" type="curve" smooth="yes"/>
      <point x="265" y="397"/>
      <point x="266" y="392"/>
      <point x="266" y="388" type="curve"/>
      <point x="247" y="293"/>
      <point x="221" y="200"/>
      <point x="196" y="106" type="curve"/>
      <point x="180" y="179"/>
      <point x="164" y="252"/>
      <point x="146" y="324" type="curve" smooth="yes"/>
      <point x="127" y="396"/>
      <point x="109" y="495"/>
      <point x="52" y="549" type="curve" smooth="yes"/>
      <point x="43" y="558"/>
      <point x="25" y="549"/>
      <point x="32" y="536" type="curve" smooth="yes"/>
      <point x="116" y="380"/>
      <point x="136" y="191"/>
      <point x="175" y="20" type="curve" smooth="yes"/>
      <point x="179" y="3"/>
      <point x="207" y="-3"/>
      <point x="212" y="17" type="curve" smooth="yes"/>
      <point x="238" y="105"/>
      <point x="264" y="194"/>
      <point x="287" y="283" type="curve"/>
      <point x="313" y="195"/>
      <point x="354" y="110"/>
      <point x="357" y="15" type="curve" smooth="yes"/>
      <point x="358" y="-6"/>
      <point x="387" y="-15"/>
      <point x="395" y="6" type="curve" smooth="yes"/>
      <point x="457" y="170"/>
      <point x="465" y="346"/>
      <point x="515" y="512" type="curve" smooth="yes"/>
      <point x="523" y="538"/>
      <point x="484" y="553"/>
    </contour>
  </outline>
</glyph>
<glyph name="x" format="1">
  <advance width="378"/>
  <unicode hex="0078"/>
  <outline>
    <contour>
      <point x="195" y="274" type="qcurve"/>
      <point x="300" y="442"/>
      <point x="331" y="514" type="qcurve" smooth="yes"/>
      <point x="333" y="518"/>
      <point x="324" y="525"/>
      <point x="319" y="525" type="qcurve" smooth="yes"/>
      <point x="311" y="525"/>
      <point x="306" y="517" type="qcurve" smooth="yes"/>
      <point x="275" y="460"/>
      <point x="180" y="305" type="qcurve"/>
      <point x="78" y="467"/>
      <point x="55" y="514" type="qcurve" smooth="yes"/>
      <point x="50" y="522"/>
      <point x="43" y="522" type="qcurve" smooth="yes"/>
      <point x="28" y="522"/>
      <point x="28" y="509" type="qcurve" smooth="yes"/>
      <point x="28" y="508"/>
      <point x="30" y="502" type="qcurve" smooth="yes"/>
      <point x="96" y="376"/>
      <point x="157" y="278" type="qcurve"/>
      <point x="156" y="278"/>
      <point x="156" y="276"/>
      <point x="155" y="275" type="qcurve" smooth="yes"/>
      <point x="133" y="237"/>
      <point x="63" y="69"/>
      <point x="41" y="31" type="qcurve" smooth="yes"/>
      <point x="37" y="24"/>
      <point x="37" y="19" type="qcurve" smooth="yes"/>
      <point x="37" y="11"/>
      <point x="50" y="-1"/>
      <point x="58" y="-1" type="qcurve" smooth="yes"/>
      <point x="73" y="-1"/>
      <point x="77" y="12" type="qcurve" smooth="yes"/>
      <point x="117" y="126"/>
      <point x="179" y="241" type="qcurve"/>
      <point x="185" y="232"/>
      <point x="222" y="168" type="qcurve" smooth="yes"/>
      <point x="273" y="76"/>
      <point x="316" y="11" type="qcurve" smooth="yes"/>
      <point x="322" y="2"/>
      <point x="332" y="2" type="qcurve" smooth="yes"/>
      <point x="339" y="2"/>
      <point x="351" y="11"/>
      <point x="351" y="17" type="qcurve" smooth="yes"/>
      <point x="351" y="22"/>
      <point x="348" y="26" type="qcurve" smooth="yes"/>
      <point x="319" y="76"/>
    </contour>
  </outline>
</glyph>
<glyph name="y" format="1">
  <advance width="403"/>
  <unicode hex="0079"/>
  <outline>
    <contour>
      <point x="56" y="-110" type="curve" smooth="yes"/>
      <point x="56" y="-90.167"/>
      <point x="53.8574" y="-76"/>
      <point x="41" y="-76" type="curve" smooth="yes"/>
      <point x="30.3848" y="-76"/>
      <point x="18" y="-86"/>
      <point x="18" y="-101" type="curve" smooth="yes"/>
      <point x="18" y="-137"/>
      <point x="7.88477" y="-198.761"/>
      <point x="26" y="-209" type="curve" smooth="yes"/>
      <point x="118" y="-261"/>
      <point x="208.955" y="-90.9512"/>
      <point x="247" y="0" type="curve" smooth="yes"/>
      <point x="311" y="153"/>
      <point x="356" y="329"/>
      <point x="380" y="502" type="curve" smooth="yes"/>
      <point x="381.837" y="515.238"/>
      <point x="373.538" y="525"/>
      <point x="368" y="525" type="curve" smooth="yes"/>
      <point x="358.4" y="525"/>
      <point x="347.448" y="512.734"/>
      <point x="344" y="488" type="curve" smooth="yes"/>
      <point x="321" y="323"/>
      <point x="295.248" y="240.599"/>
      <point x="263" y="150" type="curve" smooth="yes"/>
      <point x="249.865" y="113.099"/>
      <point x="241.526" y="75.6787"/>
      <point x="229" y="39" type="curve"/>
      <point x="207.1" y="89.3877"/>
      <point x="187.924" y="131.572"/>
      <point x="156" y="206" type="curve" smooth="yes"/>
      <point x="114.428" y="302.923"/>
      <point x="87.6602" y="402.7"/>
      <point x="67" y="506" type="curve" smooth="yes"/>
      <point x="65" y="516"/>
      <point x="57" y="521"/>
      <point x="49" y="521" type="curve" smooth="yes"/>
      <point x="39" y="521"/>
      <point x="28.1855" y="513.862"/>
      <point x="30" y="502" type="curve" smooth="yes"/>
      <point x="41.0449" y="429.795"/>
      <point x="154" y="88"/>
      <point x="208" y="0" type="curve"/>
      <point x="187.412" y="-50.3184"/>
      <point x="163.883" y="-92.8066"/>
      <point x="133" y="-131" type="curve" smooth="yes"/>
      <point x="99.1289" y="-172.889"/>
      <point x="78.8066" y="-189"/>
      <point x="63" y="-189" type="curve" smooth="yes"/>
      <point x="53.6924" y="-189"/>
      <point x="52" y="-175"/>
      <point x="52" y="-156" type="curve" smooth="yes"/>
      <point x="52" y="-142.061"/>
      <point x="56" y="-125.333"/>
    </contour>
  </outline>
</glyph>
